<svg width="113" height="73" fill="none" xmlns="http://www.w3.org/2000/svg"><g clip-path="url(#clip0_860_4260)" fill="#3D5D4D"><path d="M63.047 27.075l-.225.51.515.219c.432.18.92.273 1.451.273.706 0 1.478-.164 2.25-.487 1.37-.575 2.432-1.555 2.842-2.612l.23-.586-.613-.148c-2.689-.646-5.46.575-6.445 2.837l-.005-.006zm7.55-8.01l-.64-.148c-2.13-.499-4.66.657-5.213 2.37l-.17.532.537.164c.35.104.723.159 1.1.159 1.698 0 3.51-1.019 4.129-2.47l.257-.602v-.005zm.63-4.255l-.695-.18c-1.5-.395-3.11.3-3.915 1.686l-.367.635.712.175a3.544 3.544 0 003.904-1.692l.356-.624h.005zm.739-3.488l.323-.618-.673-.176c-1.183-.306-2.492.247-3.253 1.37l-.416.613.707.224c.224.071.465.104.706.104 1.03 0 2.135-.608 2.612-1.517h-.006zM70.05 7.85l-.334.641.706.159c.154.033.307.05.46.05.821 0 1.67-.455 2.141-1.183l.476-.74-.876-.104c-1.078-.126-2.135.362-2.573 1.183v-.005zM57.582 25.438l.547.088.083-.553c.355-2.442-1.358-4.94-3.981-5.81l-.597-.197-.115.619c-.208 1.117.18 2.508 1.035 3.718.843 1.188 1.944 1.965 3.028 2.135zm2.07-5.371l.542.142.137-.542c.438-1.747-1.107-4.063-3.176-4.764l-.619-.208-.099.646c-.295 1.906 1.265 4.2 3.22 4.726h-.005zm1.5-5.104l.7.23.023-.733c.049-1.6-.953-3.04-2.437-3.494l-.684-.213-.028.717a3.545 3.545 0 002.426 3.499v-.006zm1.911-4.106l.717.18-.027-.739c-.055-1.352-.877-2.513-2.043-2.874l-.662-.208-.05.695c-.093 1.265.877 2.645 2.07 2.946h-.005zm1.675-3.893l.68.235.048-.717c.066-.93-.575-1.9-1.56-2.366l-.8-.372.011.882c.017 1.035.696 2.015 1.616 2.338h.005zM5.855 39.685c.18.083.383.121.597.121.805 0 1.45-.433 1.817-1.227.324-.7.45-.958.493-1.045.126-.252.186-.52.186-.805 0-.734-.345-1.325-.99-1.709l-.044-.022a2.005 2.005 0 00-.882-.224c-.745 0-1.336.361-1.72 1.046l-.153.312c-.427.706-.624 1.254-.624 1.725 0 .909.471 1.555 1.32 1.834v-.006zm106.313 5.345l-.022-.012a1.955 1.955 0 00-.969-.251c-.586 0-1.09.279-1.407.777-2.382 3.63-4.304 5.985-5.706 6.992-1.686 1.21-2.579 1.468-3.028 1.468a1.04 1.04 0 01-.515-.12l-.016-.012c-.8-.41-1.254-1.122-1.38-2.179-.153-1.254-.23-2.124-.23-2.59 0-1.736.35-3.75 1.04-5.968.942-2.858.942-3.127.942-3.302 0-.854-.498-1.462-1.352-1.67l-.35-.088h-.083c-.733 0-1.308.367-1.62 1.024a42.901 42.901 0 00-.888 2.01c-1.27-.92-2.66-1.385-4.145-1.385-3.208 0-5.754 1.933-7.572 5.743l-.05.077c-2.381 3.63-4.303 5.985-5.705 6.992-1.686 1.21-2.579 1.468-3.028 1.468a1.04 1.04 0 01-.515-.12l-.016-.012c-.8-.41-1.254-1.122-1.38-2.179-.153-1.254-.23-2.124-.23-2.59 0-1.736.35-3.75 1.04-5.968.942-2.858.942-3.127.942-3.302 0-.854-.498-1.462-1.352-1.67l-.35-.088h-.083c-.734 0-1.308.367-1.62 1.024a42.901 42.901 0 00-.888 2.01c-1.27-.92-2.66-1.385-4.145-1.385-3.728 0-6.554 2.606-8.405 7.753-.668 2.004-1.018 3.986-1.04 5.892 0 3.05.827 5.065 2.459 6l.049.028c.47.22.964.334 1.467.334 2.169 0 4.583-2.042 7.387-6.253.421-.635.827-1.292 1.215-1.965.45 2.77 1.6 4.626 3.412 5.524.613.318 1.385.482 2.3.482 2.036 0 4.237-1.254 6.68-3.827.054 2.874.881 4.785 2.458 5.689l.05.027c.47.22.963.334 1.467.334 2.168 0 4.583-2.042 7.386-6.253a37.03 37.03 0 001.216-1.966c.449 2.771 1.599 4.627 3.411 5.525.613.318 1.385.482 2.3.482 3.274 0 7.025-3.285 11.46-10.064.181-.29.274-.602.274-.93 0-.642-.296-1.167-.832-1.49l-.033-.017zm-45.7 6.526c-2.901 4.206-4.084 4.644-4.412 4.665-.072-.07-.384-.487-.488-2.277v-.039a4.534 4.534 0 01-.033-.564c0-1.998.488-4.084 1.451-6.198.685-1.495 1.55-2.628 2.569-3.362.536-.389 1.15-.575 1.883-.575.964 0 1.867.422 2.743 1.276h.006a50.521 50.521 0 01-3.724 7.074h.006zm24.964 0c-2.902 4.206-4.085 4.644-4.413 4.665-.072-.07-.384-.487-.488-2.277v-.039a4.535 4.535 0 01-.032-.564c0-1.998.487-4.084 1.45-6.198.685-1.495 1.55-2.628 2.569-3.362.536-.389 1.15-.575 1.883-.575.964 0 1.867.422 2.743 1.276h.006a50.532 50.532 0 01-3.724 7.074h.006z"/><path d="M67.925 59.047l-.022-.01a1.954 1.954 0 00-.969-.253c-.586 0-1.09.28-1.407.778-2.382 3.63-4.304 5.985-5.706 6.992-1.686 1.21-2.578 1.468-3.027 1.468-.203 0-.367-.039-.515-.12l-.017-.012c-.668-.34-1.035-.876-1.226-1.79a37.027 37.027 0 01-.12-3.056c0-4.303.646-9.615 1.927-15.791a1.95 1.95 0 00.186-.838v-.05c.115-.53.23-1.067.356-1.615.903-4.057 1.883-8.36 2.913-12.456 2.853.678 6.083.722 9.472.12.778.016 1.37-.58 1.37-1.369 0-.788-.581-1.369-1.348-1.369-.279 0-.542.077-.76.225-2.974.498-5.69.46-8.088-.11 1.55-5.892 3.066-10.66 4.758-14.954l1.605-3.827c.054-.12.104-.24.158-.361.258-.531.488-1.04.712-1.528.236-.515.455-1.002.701-1.506.082-.17.175-.367.268-.575.186-.4.39-.848.586-1.177 1.232-.454 2.125-1.78 2.13-3.154V.732l-1.768.86c-1.26.613-2.076 1.878-2.02 3.11-.012.017-.028.033-.04.055-.136.18-.311.405-.476.717l-.104.181c-.684 1.188-1.522 2.65-2.327 4.419h-.016l-.624 1.467h.022l-.866 2.103h-.01l-.236.602c-2.13 5.46-3.811 10.114-5.256 14.565a14.1 14.1 0 01-2.426-1.456c-2.103-1.583-3.182-3.379-3.527-4.041a1.311 1.311 0 00-1.325-1.134c-.575 0-1.056.329-1.254.86a1.458 1.458 0 00.258 1.45c.47.91 1.741 3.007 4.227 4.896a16.124 16.124 0 003.252 1.916c-1.385 4.463-2.513 8.663-3.433 12.819-.126.57-.252 1.155-.394 1.845-1.747 2.743-3.33 5-4.709 6.713-1.216 1.522-2.163 2.552-2.814 3.066-.438.345-.729.515-.91.597a1.003 1.003 0 01-.087-.246l-.01-.038c-.357-1.14-.543-3.226-.543-6.215v-2.585c0-1.894-.082-3.532-.24-4.867-.264-1.851-1.052-2.974-2.339-3.346a2.474 2.474 0 00-.657-.093c-1.342 0-2.842 1.183-4.578 3.603-.63.849-1.325 1.894-2.091 3.132.86-4.123 1.741-7.77 2.623-10.875 2.6-9.32 5.267-17.138 7.934-23.27.263.142.57.218.92.218.772 0 1.171-.356 1.374-.657.23-.35.35-.706.35-1.068v-.3a4.82 4.82 0 01-.065-.844c0-.433.076-1.122.23-2.053.093-.663.11-.865.11-.97 0-.717-.22-1.242-.652-1.56-.367-.263-.762-.4-1.172-.4-.816 0-1.479.531-1.982 1.572-1.533 2.66-3.253 6.603-5.11 11.706-3.11 8.498-5.737 17.56-7.818 26.93-.055.251-.11.503-.164.76-5.158 2.004-9.183 4.09-11.992 6.215-2.519-4.358-3.06-6.302-3.06-7.162 0-.328.043-.63.136-.903.252-.8.63-1.435 1.117-1.884 1.364-1.237 2.848-1.84 4.55-1.84 2.043 0 2.043.854 2.043 1.27 0 .592-.12 1.255-.367 1.966-.066.203-.104.4-.104.586 0 .778.405 1.364 1.144 1.643l.022.01c.203.066.4.105.586.105.745 0 1.325-.4 1.632-1.117l.01-.033c.384-1.035.581-2.053.581-3.028 0-2.02-.947-3.532-2.743-4.38l-.044-.017a7.733 7.733 0 00-2.83-.515c-.68 0-1.408.099-2.142.285a10.398 10.398 0 00-4.742 2.513l-.016.017c-1.56 1.56-2.349 3.384-2.349 5.42 0 .433.038.888.12 1.348-.049.06-.098.12-.142.191l-.01.017c-2.553 4.063-4.77 6.976-6.593 8.651-1.38 1.15-1.9 1.342-2.037 1.369-.077-.104-.345-.575-.362-2.267 0-2.83.838-6.423 2.497-10.677.104-.22.159-.45.159-.674 0-.744-.4-1.325-1.134-1.642a1.667 1.667 0 00-.624-.115c-.772 0-1.358.388-1.637 1.09C1.003 45.587.072 49.513.001 53.001c0 .575.022 1.139.071 1.681.203 1.971.936 3.33 2.185 4.047l.022.01a3.307 3.307 0 001.56.384c1.451 0 3.078-.915 4.972-2.793 1.594-1.582 3.406-3.893 5.4-6.883a66.191 66.191 0 002.14 3.921l.05.088c-2.46 2.496-3.949 4.845-4.42 6.975-.3 1.238-.454 2.355-.454 3.319 0 .755.099 1.429.296 2.01.887 3.57 2.683 5.825 5.344 6.701h.016a5.06 5.06 0 001.517.236c1.424-.028 2.683-.553 3.75-1.566l.023-.022c1.374-1.446 2.07-3.357 2.07-5.69-.023-1.259-.236-2.655-.625-4.155l-.01-.033c-.74-2.35-1.77-4.704-3.062-7.014 2.442-1.878 5.613-3.636 9.446-5.251a125.6 125.6 0 00-1.09 7.244 51.712 51.712 0 00-.443 6.538c0 1.719.07 3.268.202 4.604v.044c.077.427.274.783.597 1.068.329.29.761.444 1.292.444h.104a1.743 1.743 0 001.128-.674 1.83 1.83 0 00.389-1.117v-.17a37.873 37.873 0 01-.203-4.03c0-2.157.165-4.517.488-7.025 3.69-6.894 6.373-11.214 7.972-12.846.093.712.192 2.032.192 4.474l-.033 2.497c0 2.108.126 3.997.378 5.601.306 2.234 1.22 3.642 2.732 4.178l.033.011c.285.088.58.132.865.132 1.374 0 2.897-.904 4.654-2.76.756-.778 1.6-1.763 2.514-2.951-.439 3.23-.657 6.154-.657 8.722 0 2.568.164 3.937.339 4.583l-.027.028.186.427c.591 1.358 1.626 2.475 2.825 3.066.613.318 1.386.482 2.3.482 3.274 0 7.025-3.286 11.455-10.053v-.011c.186-.29.279-.602.279-.931 0-.64-.296-1.166-.832-1.49l-.006-.005zM21 65.4c0 1.418-.34 2.497-1.013 3.214-.383.361-.789.537-1.232.537-.18 0-.378-.028-.586-.077-1.396-.466-2.393-1.856-2.951-4.14-.099-.416-.148-.936-.148-1.555 0-1.894.821-3.898 2.43-5.952.209-.257.433-.514.674-.772 1.873 3.45 2.826 6.39 2.826 8.74v.005z"/></g><defs><clipPath id="clip0_860_4260"><path fill="#fff" transform="translate(.001 .732)" d="M0 0h112.999v71.965H0z"/></clipPath></defs></svg>