<svg version="1.1" id="a" xmlns="http://www.w3.org/2000/svg" x="0" y="0" viewBox="0 0 3032.2 807.3" xml:space="preserve"><style>.st0{stroke-width:1.7617}.st0,.st1,.st2{fill:none;stroke:#845349;stroke-miterlimit:10}.st1{stroke-width:.4404}.st2{stroke-width:.9127}</style><path class="st0" d="M478.9 370.8c78.1-35.7 159.8-62.7 241.3-89.6 28.6-9.5 57.4-19 87.2-23.6 111.7-17.3 266.4 212.7 376.8 188.3 26.6-5.9 80.5-22 138-67.8 173.6-138.2 324.1-44.3 324.1-44.3"/><path class="st0" d="M863.4 445.9c64.5 23.6 127.6 50.2 194.2 41.1 54.9-7.4 104.1-38.9 158.7-48.7 27.8-5 56.5-4.3 84-11 90.2-22.1 204.2-78.8 296.6-69.7m-1598.3 78C64.8 392 135 354.4 208 323.5c13-5.5 26.3-10.8 40.3-11.9 19.7-1.5 38.9 5.6 57.4 12.5 78 29.2 156.2 58 234.6 86.4 23.6 8.5 47.7 17.1 72.7 17.9 30.6 1 60.3-9.7 90.8-13 33.8-3.7 69.8 6.7 103.5 11.7"/><path class="st0" d="M71.6 446.9c38.8-23.8 88.8-19.4 132.2-5.5 43.3 13.9 83.9 36.3 128.1 47 67.4 16.3 138.1 4.4 206.4-7.5 32.3-5.6 64.5-11.3 96.8-16.9 11.8-2.1 23.7-4.2 34.6-9.1 24.2-11.1 46.8-36.6 72-28M879.5 516c23.4-14.5 40.2-8.3 66.6-.4 26.4 7.9 51.4 20.7 78.4 25.9 71.9 13.9 146.3-27.5 217.8-11.9 12.5 2.7 24.7 7.2 37.5 7.6 18 .6 35.2-6.8 52.7-11.1 63.3-15.2 131.5 11.6 194.2-6.1M763.5 91.6c6.6 3.6 11.6 10 13.6 17.2 5-4.7 12-9 18.6-7.2m15.1-21.8c6.6 3.6 11.6 10 13.6 17.2 5-4.7 12.5-6.5 19.1-4.7m-140.2 9.2c10-.1 19.7 6.9 22.6 16.5 4.5-8.9 17.1-12.6 25.7-7.6M468.3 295.8c7-1 14.5 3.6 16.7 10.4 5.9-5.2 15.4-5.9 22-1.5m-97.1-.2c13.3-2.7 27.7 7.9 29 21.4 6.3-5.3 15.6-6.9 23.4-4m662.1 343c100.3-2.3 611.6-22.4 711.8-24.7m-1824.7 70c190.6-6.8 456.8-17 526.1-18.5m632.2-13.4c106.1 21.8 210.1 53.5 310.3 94.4M653.9 697c90.8 23 179.6 53.9 265.2 92.1M747.5 687.2c49.7 12.4 98.1 29.6 144.5 51.3 11.9 5.6 23.7 11.5 36.3 15.1 5.8 1.6 4 2.3 10 2.9m-39.7-149.6c71.9-5.1 143.8-10.3 215.7-15.4M4.1 614.5c71.9-5.1 143.8-10.3 215.7-15.4m936.9-4.1c60.7 12.4 120.6 28.5 179.3 48.2M103.5 625.7c68.3 20.8 112.5 38.3 171.2 58m923.2-91.5c56.8-7.8 114.2-11.2 171.6-10.3m-998.1 2.7c85.1 25.6 170.1 51.2 255.2 76.8"/><path class="st0" d="M809.4 551.4c-3.7-.7-7.3-1.6-10.9-2.5-16-4.1-19.3-25.7-5.2-34.3.1-.1.2-.1.3-.2-3.8-10.7-25.5 1-30.1-9.1-1.5-3.3-.3-7.2 2.6-9.5 7.2-5.7 16.7-2.4 24.1-7.3 2.1-1.4 3.8-3.6 4.2-6.1 1.1-6.5-5.7-8.2-7.6-12.9-2.5-6.1 4.4-11.8 10.7-13.7 6.2-1.9 13.8-3.4 16.4-9.4-1.5-6-10.6-8.5-9-15.3.6-2.8 2.9-5 5.7-5.9 11.9-3.8 25.1-7.9 37.2-4 12.7 4.1 22.4 20.5 11.1 31.6-2.1 2.1-3.3 4.9-3.2 7.9.3 15.5 21.6 4.9 28.7 14.1 4.7 6.1-1.2 14.8-7.5 19.3-1.8 1.3-3.6 2.6-5.4 4-6.3 5-3.5 15.1 4.4 16.5h.1c5 .9 10.5 5.3 7.4 10.4-.8 1.3-2 2.3-3.3 3l-44.9 22.4c-3.1 1.5-6.5 3.4-7.6 6.7-1 2.9.1 6 .9 8.9m-352.7-55.6c19.5-2.1 38.4-11.5 57.9-9.1 17.3 2.1 32.3 13.3 49.5 16.7 19.8 3.9 39.9-2.9 60-4.4 35.9-2.8 72.1 11.2 107.4 4.6m62.1 21.2c1.6 18.2-.2 49-4.4 66.8m18.1-64.8c-6.3 21.1-3 45.9.3 67.6m-70.4-33.2l48.1 14m441.4-444c-6-16.6 4.5-36.3 20.5-43.9s35.5-4.8 51 3.7c.3-15.6 15.5-29.3 31.1-28m1504.8 130.1c-6-16.6 4.5-36.3 20.5-43.9s35.5-4.8 51 3.7c.3-15.6 15.5-29.3 31.1-28m-1877.6-26.3c.6-10.4 6-20.4 14.3-26.6 8.3-6.3 19.4-8.6 29.5-6.4 2.8-8.5 10.9-15 19.8-16s18.2 3.7 22.8 11.4M2171.9 123c15.8-22.6 45.2-34.9 72.4-30.4s51 25.7 58.7 52.2c23.5-6.3 50.6 6.7 60.3 29 23.6-3.4 48.7 7.6 62.1 27.3 13.4 19.7 14.5 47.1 2.7 67.8m-1668.5 308v29.5m12.5-25.7v29.4m18.9-23.5v41.6m8.1-40.2v48m-27.2-46.9l18.8 5.4m-206.5 9.9v23.3l32.9 13.7v-20.6l-32.4-15.6"/><path class="st0" d="M617.9 641.5l52.5-.8-.8-20.1h-53.2m110.4-12.3v-49.1l-25.7-5m-39.6 18.6l28.8-18.6m-6.9 19.2l19.2-13.9"/><path class="st0" d="M713.9 591.3v-20.9L693.6 585"/><path class="st0" d="M702.8 586.1h4.5v11.1h-4.5zm-23.6-7h-17.6v8.5H648l8.6 8.5h18.8m-17.8 11.7v-11.1m-73.9 8.6l40.5.7m10.5 0l35.3 14.4m-40.3-4.5c0 .4.1.8.1 1.2-.5-3.6 1.1-7.2 3.4-10s5.8-4.9 8.9-6.9v-8.7c-4.9 2.9-10.1 5.8-14 10s-6.6 9.8-6.1 15.4m191.5-149.2c-2.7.9-3.3 4.7-2 7.3 1.3 2.5 3.7 4.2 5.9 6.1 2.2 1.8 4.2 4.3 4.1 7.1-.1 3.6-3.6 6.1-6.3 8.5-5.6 4.8-9.5 12.4-7.6 19.6 1.3 5 5.2 8.9 9.3 12 6.4 4.8 13.9 8.2 21.8 9.9"/><path class="st1" d="M1142.9 317.8c-5.9-.9-11.7 2.7-15.1 7.6-3.3 4.9-4.6 10.9-5.5 16.7-.5 3.1-.8 6.2-.4 9.3s1.6 6.2 3.9 8.2c.1-2.6-.1-5.1-.6-7.7 0 .4.1.8.1 1.3m-1.1-7c1.4 2.5 2.7 5 3.7 7.6m-2.8-10.8c1.7 2.7 2.7 5.7 3.1 8.8m-2.2-12.4c2 2.8 3.7 6 4.8 9.3m-3.5-12.8c1.1 2.5 2.2 4.9 3.3 7.4m-2.3-10.6c1.8 2.6 3.2 5.5 3.9 8.6"/><path class="st1" d="M1133.4 338.5c-1-3.3-2.2-6.4-3-11.6 2.1 2.5 3.6 5.6 4.2 8.8m1.7-1.9c-1.2-3.1-2.4-6.1-1.2-11.8.9 3.2 1.8 6.4 2.7 9.7m-.3-10.4c.4 2.9.8 5.9 1.1 8.8m6.6-11.1c2.9-1 6.2-.2 8.8 1.5 2.6 1.7 4.5 4.2 6.1 6.8 2.8 4.6 4.9 9.9 4 15.2m-2.4-8.9c1.2 2.7 1.3 5.9.4 8.7m-2.2-12.4c.6 2.1.7 4.2.5 6.4"/><path class="st1" d="M1158.6 333.6c.4-2.6.2-5.2-2.3-9.3.9 2.7.8 5.7-.1 8.4m-.8-1.9c.3-2.8-.1-5.7-3.2-10.1 1.2 2.6 1.5 5.6.8 8.3m-1.9-.2c.8-2.9.7-6-2.4-9.1 1.8 2.4 1.9 5.8.4 8.3m-1.1-.4c.5-2.6.3-5.3-2.2-7.4.3 2.5.1 5.1-.6 7.6m-19.4-1c-3.3.6-6.1 2.9-8 5.7s-3 6-4.1 9.2"/><path class="st1" d="M1116.7 340.8c-.2-1.5-.3-3.1 1-6.5v4.3m1.9-1.1c-.3-2-.5-3.9.9-7.5.3 1.9.6 3.7.9 5.6m1.8-7.4v5.2m9.2-13.7c-6.1-.4-12.4-.2-18.3 1.5-11.6 3.4-21.3 13.9-21.8 25.9"/><path class="st1" d="M1096 336.5c-.7 1.1-.9 2.4-1.1 3.7-.3 1.7-.5 3.4-.6 5.2m2.2-9.8c-.2 2.1-.4 4.2-.4 6.3m4.3-10.8c-1.3 2.2-1.2 4.9-2 7.3-.4 1.3-1.1 2.5-2 3.6m5.4-12c-.7 3.5-1.2 7-1.3 10.6m6.8-14.5c-1.9 1-2.9 3.3-3.4 5.4s-.7 4.4-1.8 6.3m6.9-12.2c-2 3.2-3.1 7-3.1 10.8m7.5-12.5c-2.4 1.8-3.8 4.6-4.9 7.4-.7 1.8-1.2 3.7-.9 5.6m8.4-14.1c-3.1 2.9-5.3 6.8-6.2 10.9m9.3-11.1c-2.5 2.3-4.4 5.3-5.3 8.6m7.8-8.8c-3 2-5.2 5.2-6.1 8.6m8.7-9.3c-2.6 1.8-4.6 4.5-5.7 7.4m6.9-7.3c-1 1.2-2 2.4-2.9 3.6m-37.9-11.9c3.5-3.2 8.6-4.3 13.3-3.9 3.4.3 6.7 1.2 10.1 1.1 4.1-.1 8-1.7 11.9-2.7s8.4-1.5 11.9.5c2.1 1.1 3.7 3 5.2 4.8m-26.1-2.9c-4.3 2.3-7.9 6-9.9 10.4m5.3-9.2c-2.7 1.8-5 4.1-6.9 6.8m4.5-7.2c-2.8 2-5.4 4.3-7.7 6.8"/><path class="st1" d="M1094.6 317c1.5-2.3 3.5-4.2 4.8-6.1-3.2 1.8-5.9 4.3-8.1 7.2m4.6-6.8c-2.1 1.5-3.9 3.3-5.4 5.4m3.9-5.5c-2.3 1.6-4.7 3.3-6.3 5.7m4.6-5.9c-2 1.4-3.8 3-5.5 4.8m25.7-4.9c-.8.6-1.7 1.3-2.4 2-.4.4-.7.8-1.1 1.2-.5.6-1.1 1.3-1.6 2-.9 1.2-1.6 2.4-2.3 3.7m12.6-10.3c-3.1 2.2-5.6 5.3-7.2 8.8m11-9.4c-3.5 2.3-6.4 5.7-8.1 9.5m10.8-9.1c-2.5 1.6-4.6 3.7-6.1 6.2m8.7-5c-1.7 1.6-3.2 3.5-4.4 5.5m7.7-5c-2.4 1.8-4.7 3.9-6.7 6.1m8.6-4.7c-1 1.3-2.1 2.6-3.2 3.8m-23.5-7c3.5-3.2 8-5.1 12.7-5.4s9.4 1 13.3 3.6m-15.9-2.2c-2.2.8-4.2 2.2-5.8 4m8.6-3.8c-1.8.4-3.5 1.6-4.4 3.2m7-3.6c-1.1.8-2.2 1.7-3.3 2.7m21.3 11.4c-.3 3.2-.3 6.4 0 9.6m1.9-9.4c-.5 2.6-1 5.4-.2 8m1.2-7c.7 1 1.4 2.1 2 3.1m-3.5-7.9c2.6-3 5.3-6 8.9-7.7 4.3-2 9.5-1.7 13.5.7 1.7 1.1 3.2 2.5 4.7 3.9 1.4 1.4 2.7 2.9 3.7 4.6.8 1.3 1.3 2.8 1.8 4.2 1 2.9 2.1 5.8 2.7 8.8 1 4.8 1 9.7 1 14.6"/><path class="st1" d="M1191.8 339.6c.6-1.2.5-2.6.3-3.9-.5-4-1.4-8.2-4.1-11.2-.9-1-2-1.8-3.1-2.6-2.1-1.5-4.3-3-6.7-4.1-2.4-1.1-5-1.7-7.6-1.5m4.9 21.7c-.6 2.1-1.6 4-2.8 5.8m.6-8c-.5 1.2-.9 2.3-1.4 3.5-.2.5-.4 1-.5 1.5-.1.3-.1.7-.1 1-.2.7-.6 1.3-.6 2.1m2.9-14.6c-.3 4.4-2.1 8.7-5 12m3.1-16.3c-.5 4.1-1.2 8.1-2.1 12.1m1.4-14.2c-.6 1.7-1.1 3.4-1.7 5.1-.8 2.4-1.6 4.7-2.7 7m1.7-15.4c0 2 .4 3.9.1 5.9-.1 1-.4 2-.7 3l-1.5 4.8m-1-16c.6 4.3.4 8.8-.6 13.1m-1.5-14.4c.3 2.3.6 4.6.3 6.9-.3 2.1-1.1 4.1-.9 6.1m-2.8-15.6c.6 2.2.8 4.6.6 6.8-.1.8-.3 1.7-.3 2.5s.2 1.7.7 2.4m-6.4-18.3c2.2 1.4 3.2 4.1 3.4 6.7.2 2.6-.1 5.2.2 7.8m-6.2-13.7c1.7 1 2.5 3 3 5 .6 2.3 1 4.7 1.2 7.1m-6.3-10.8c1.4.7 2.2 2.2 2.9 3.7.3.6.5 1.2.7 1.8.5 1.5.7 3.1 1.3 4.6m-7-8.5c1.1.3 1.9 1.4 2.4 2.5 1.1 2 2.1 4.2 2.8 6.4m-7.7-7.4c.6.6 1.4 1.1 1.9 1.8.9 1.2 1 3 2.1 4.1m-6-3.8c1.3 1 2.4 2.2 3.2 3.7m29.8 8.1c1.1 1.4 2.3 2.8 3.2 4.4.9 1.6 1.6 3.3 1.8 5.1"/><path class="st1" d="M1174.8 318.8c2.5 1.8 4.1 4.6 5.1 7.5s1.4 6 1.6 9"/><path class="st1" d="M1176.7 320.1c1.9 2.2 3.7 4.5 5 7.1s2.1 5.5 2 8.3"/><path class="st1" d="M1185.4 335.5c-.3-3.6-1.2-7.1-3-10.2-1.5-2.4-3.5-4.5-5.6-6.5m5.7 5.6c2.2 1.2 3.5 3.5 4.6 5.7 1.3 2.7 2.4 5.6 2.6 8.6"/><path class="st1" d="M1183.8 324c3.6 2.4 5.5 6.5 7.2 10.5.6 1.4 1.2 2.8 1 4.3m-50.7-24.7c1.8-3.4 1-7.7-1.1-10.9-2.2-3.5-5.7-6.2-9.6-7.6-3.9-1.5-8.2-1.8-12.3-1.2-1.4.2-2.7.5-3.9 1-1.3.6-2.6 1.4-3.7 2.3-3.5 2.5-7 5.3-9.5 8.9m7-5.6c-2.5 2.1-4.4 5.1-5.2 8.3"/><path class="st1" d="M1115 297.4c-2.5 1.5-4.7 3.6-6.4 6.1-.7 1-1.2 2.1-1.2 3.3m11.3-10c-2.9 1.1-5.5 3.1-7.4 5.6-.6.8-1.1 1.6-1.2 2.5m12.7-8.8c-3.1 1.2-5.9 3.2-8 5.7-.3.4-.7.9-.6 1.4m12.3-6.3c-3.3.9-6.4 2.6-9 4.9-.5.5-1 1-1.2 1.6m15.5-4.6c-4.5-.5-9.1 1.1-12.4 4.2m15.3-2.9c-2.1 0-4.3.1-6.4.6-2.1.6-4.1 1.6-5.5 3.2m14.6-2.1c-3.8-1-8.1-.2-11.2 2.1m3.7 1.6c1-1.3 2.5-2 4.1-2.2s3.2 0 4.4.5c-2.7.3-5.2 1.7-6.8 3.8m1.7 1c.6-1.2 1.8-2 3-2.5s2.6-.6 4-.1c-2.3.4-4.5 1.7-6.1 3.5m6.1-2.5c-1.8 1-3.4 2.4-4.8 4m1.4 1c1-1.1 2-2.2 3.7-2-.7 1-1.4 2.1-2.1 3.1m-24.4-18.4c-5.4-2.6-11.9-2.5-17.6-.6s-10.7 5.5-15.1 9.6m3.5-1.1c-.2 1.6-.3 3.2-.5 4.8m5.1-8.4c-1.9 2.5-3.4 5.3-4.3 8.3m7.7-9.7c-2.1 2.2-3.7 4.9-4.7 7.9m8.8-9.4c-2.1 2.2-3.8 4.8-4.8 7.6m7.3-7.8c-2.2 2-3.9 4.4-5.2 7.1m7.8-7.5c-3.6 1.4-6.3 4.6-7.1 8.4"/><path class="st1" d="M1099 302.1c-.2 0-.4-.3-.4-.6s.1-.5.3-.7c1.5-2.4 3.7-4.4 7.5-5.3-1.6 1-3 2.2-4.3 3.5-.6.6-1.1 1.4-.7 2.2m7.8-5.7c-2.9 1.6-5.5 3.8-7.4 6.4m-13.2-20.9c4.9-3.9 11.1-6.4 17.4-6.6s12.7 2 17.3 6.3c1.5 1.4 2.7 3 4 4.7 2.4 3.1 4.8 6.1 6.6 9.6"/><path class="st1" d="M1095.3 279.6c-1.4.6-2.7 1.5-3.8 2.6-.4.4-.8 1-.6 1.5m9.2-5.9c-2.8 1.2-5.2 3.3-6.8 6m9.7-6.5c-1.9.2-3.4 1.5-4.6 3-1.1 1.4-2 3.1-3.7 3.7m12-7.1c-3.4 1-6.4 3.4-8.2 6.4m11.6-6.2c-3.8.6-7.3 2.8-9.5 5.9m11.4-4.9c-1.2.1-2.5.2-3.6.7-.5.3-1 .6-1.5 1-1.9 1.3-3.9 2.7-5 4.8m12.8-5.8c-3.8.6-6.8 3.4-9.6 6-.6.5-1.2 1.3-1 2m12.1-6.7c-2 .4-4.1 1-5.8 2.2-1.7 1.1-3.2 2.8-3.9 4.7m2.5.4c2.8-2.7 5.8-5.6 10.3-5.3-1.4.4-2.8.8-4.1 1.6s-2.3 1.9-2.8 3.3m6.5-4.2l-6.6 5.4m9.5-4.4c-3.6 1.1-6.9 3.4-9.1 6.5m7.3-5.6l-5.1 5.4m-1 2.5c0-.2.1-.4.2-.6 2-2.9 5.1-5 8.8-5.9-1.7 1.8-3.7 3.4-5.8 4.8m6.9-3.7c-2.1 2-4.2 4-6.5 5.8m7.8-3.9c-1.4 1-2.8 2-4.2 2.9m21.3 15.6c3.7-5.8 10.3-9 16.7-11.5 3.1-1.2 6.2-2.3 9.5-2.8 5.4-.8 11 .2 16.4 1.1 3 .5 6.1 1.1 9.1 1.6m-51.2 13.5c.6.1 1.2.1 1.7.2m-.8-1.8c.5.3 1.1.7 1.6 1"/><path class="st1" d="M1145.8 307.9c-.5-.5-1-1.1-.3-2.5.7.6 1.7 1 2.7.9m-.9-2.1c1.2-.2 2.4.5 3 1.5m-1.5-2.3c1.1-.3 2.2-.5 3.3-.6 1 1 2.1 1.9 3.4 2.5m-4.7-3.5c1.3 0 2.5.2 3.7.5.2 1 1.3 1.4 2.3 1.6m6.2 2.4c-1.5-.2-2.4-1.6-3.5-2.7-1.3-1.3-3-2.1-4.6-3.1 3.9.4 7.4 2.7 10.7 4.8.8.5 1.6 1 2.5 1.2 1.4.4 2.9.1 4.3.2m-17.2-6.9c2.5-.3 5.1-.4 7.3.8 1 .5 1.8 1.2 2.7 1.8 2.1 1.3 4.6 1.8 7.1 2.2m-13.7-6c3.2-.1 6.5 1 9.1 3m-2.1-3.1c2 .3 4 .9 5.8 1.8 1.1.6 2.2 1.3 3.1 2.2.7.7 1.3 1.4 2.2 1.8m-8.6-6.9c4.9.7 9.5 3.4 12.6 7.3"/><path class="st1" d="M1170.9 296.4c2.1.4 4.4.8 6.1 2.2 1.2.9 2 2.2 2.8 3.5.4.7.9 1.4 1.3 2 .3-1.8-.1-3.7-1.2-5.2-1-1.5-2.6-2.6-4.3-3.3m4.9 3.7c1.3.5 2.5 1.5 3.3 2.7.5.8.9 1.7 1.8 2.1-.2-2-.5-4.2-1.9-5.6-1.1-1-2.7-1.4-3.8-2.4.8.3 1.7.6 2.5.9 1.2.4 2.4.9 3.5 1.5 2 1.1 3.7 2.7 4.8 4.6-1.9-2.9-3.9-5.9-7.1-7.2 3.6 1.1 6.8 3 10 4.9-1.7-2-3.6-3.8-5.6-5.4m-55.4-2.6c-.8-10.8 2.4-21.8 8.7-30.6 0 .5.1.9.1 1.4"/><path class="st1" d="M1138.1 267.5c.8-2.3 2.2-4.3 3.8-6-1.2 3.7-4.2 6.8-4.8 10.6 1.2-2.3 2.7-4.8 5.2-5.5-2.5 3.2-4.6 6.6-6.5 10.2 1.5-2 3.5-4.1 6.1-4.3h.1m-6 5.7c1.4-1.4 2.8-2.9 4.8-3.3m-6.9 7.5c1-1.2 2.1-2.5 3.4-3.4s2.9-1.6 4.5-1.6c-1.8 1.2-3.5 2.5-5.1 3.9-1 .9-1.9 1.8-2.3 3 .7-1.2 1.9-2.1 3.2-2.5 1.3-.4 2.7-.5 4.1-.4-.8.2-1.4.7-2.1 1.2-1.9 1.6-3.8 3.3-4.6 5.6.8-.9 1.7-1.7 2.7-2.3 1.1-.5 2.3-.8 3.5-.4-2.4 1.2-4.3 3.3-6.1 5.3-.3.4-.7.9-.4 1.4.9-1.1 1.8-2.2 2.9-3.1s2.5-1.4 3.7-1.3c-1.4.9-2.7 2-3.8 3.3-.6.7-1.1 1.6-.7 2.4 1.2-1.6 2.7-2.9 4.5-3.8-1.8 1.2-2.6 3.4-3.6 5.3-.5 1-1.2 2.2-.9 3.3m5.3-9.3c.9-1.1 2.2-1.9 3.5-2.1.7-.1 1.3-.1 2-.2 1.4-.1 2.8-.3 4.2-.6m-3 2.6c-1.6-.4-3.3-.4-5.6 1.2 1.4 0 2.9.3 4.2.8m-6.1 1.3l4.8.6m-4.9 1.5c1.3.2 2.7.5 4 .7"/><path class="st1" d="M1141.2 303.9c2-5.6 4.5-11.1 8.5-15.5 6.2-6.7 15.5-9.8 24.7-10.5m-4.5 1.3c1.8.4 3.6 1.1 5.1 2.1m-7.4-1.8c1.9.2 3.6 1.2 4.6 2.8"/><path class="st1" d="M1164.2 280.8c1.6.1 3.2.5 4.7 1.2.5.2 1 .5 1.3 1m-10.3-1.5c2.4.3 4.7.9 6.8 1.9.6.3 1.2.6 1.6 1.1-.3-.8-.7-1.6-1-2.5m-11.4 2.4c1.4-.8 3.1-.8 4.7-.4s3.1 1.1 4.6 1.5"/><path class="st1" d="M1161.2 283.7c.6 1.4 1.5 2.7 2.5 3.9-1.2-.7-2.4-1.4-3.8-1.9-2-.7-4.1-.8-7.3.9 3-.3 6.2.1 9.1 1.1.8.3 1.5.6 2.3.9 1 .4 2.1.9 3.1 1.3m-15.8-1c4.2-.4 8.3 1.1 12.2 2.7m-13.8-.8c2.4-.3 5-.1 7.3.7 1.3.4 2.5 1 3.8 1m-12.5.2c1.6-.6 3.4-.3 5.1.1s3.3 1 5.1.9m-11.1 1.4c2.8.1 5.7.2 8.5.4m-10.4 2.8c2.1.1 4.2 0 6.3-.3m-4.5-1.8c2.1.2 4.1.2 6.2.2m-9.4 3.9c1.6 0 3.2.1 4.9.1m-5.8 2.4l3.3-.9m76.9 67.1c-1.9.5-3.6 1.7-5.1 3-5 4.4-9 10.3-9.4 17m3.3-7.4c-.6 1.9-.8 4-.6 6m1.5-8.9c-.9 2.7-.3 5.7.3 8.5"/><path class="st1" d="M1215 377.1c-.5 1.9-.4 3.9-.3 5.8 0 .7.1 1.3.1 2m1.3-8.9c0 2.4.1 4.9.3 7.3m.8-9.1c-.4 2.6-.4 5.3 0 7.9m1.2-9c-.1 2.8 0 5.5.2 8.3m1.8-9.2c.1.5 0 1-.1 1.4-.4 2.3-.5 4.6-.2 6.9m5.8-12.6c1.4-2.6 4.2-4.4 7.1-4.5.4 0 .9 0 1.3.2s.8.6 1.1.9c.7.6 1.5 1 2.3 1.6 2.2 1.5 3.8 3.8 5.3 6.1 2.5 3.8 5.1 7.5 7.6 11.3l-.2.1"/><path class="st1" d="M1232.1 370.4c-.4-.9-.8-1.8-1.4-2.5s-1.6-1.2-2.5-1.1m4.3 2c-.3-.7-.7-1.5-1.2-2.1s-1.2-1.2-2-1.3h-.2c-.1 0 0 .2 0 .2m3.7 1c-.8-.8-1.7-1.5-2.7-2m-45.2 13.1c4.8-4.9 11.2-8 18-9.4 6.7-1.4 13.7-1.1 20.5-.1"/><path class="st1" d="M1184.5 379.1c1.5-.2 2.8-1.2 3.9-2.3s2-2.3 3.2-3.3c-1.9 2.5-2.7 5.7-2.2 8.8 1.7-3.4 3.8-6.6 6.2-9.5m-3.3 7c1.6-1.5 3.1-3.2 4.3-5.1.1-.2.3-.5.4-.7.2-.6.1-1.4 0-2m-1.6 5.9c2.8-1.5 4.8-4.5 4.9-7.7.2.1.4.4.2.6m-1.7 4.9c0 .8-.1 1.7-.2 2.5 1.3-.7 1.8-2.2 2.6-3.4.6-.9 1.5-1.7 2.4-2.5.6-.5 1.2-1.1 1.8-1.6m-4 7.7c.7-1.9 1.5-3.8 2.7-5.4 1.1-1.4 2.5-2.6 3.9-3.6-.3.2-.5.5-.8.7m-3.6 5.8c.2.5.5.9.7 1.4 1.1-.7 1.1-2.4 1.9-3.6.4-.6.9-1 1.4-1.5 1.2-1.3 2.1-3.2 3.9-3.8-.1.1-.1.2-.2.2m-3.1 4.2c.1 1.2.1 2.4.2 3.5 1.5-2.7 3.3-5.2 5.5-7.3.1-.1.1-.1.2-.1s.1.1.1.2m-3.5 6.7c.8-1.7 1.8-3.4 2.9-4.9.7-1 1.6-1.9 2.8-2.1 0 .1 0 .2.1.3m-2.9 6.1c1.5-2.3 3.4-4.2 5.7-5.6.2-.1.3-.2.5-.3m-28-.3c1.7-4.4 4.5-8.6 8.8-10.7-.1.1-.1.3-.2.4"/><path class="st1" d="M1195.7 367.3c.3-3.4 2.5-6.5 5.6-7.9v.3m-3 7.8c.3-3.1 2-6 4.6-7.7.1.1.1.3.2.4m-3 6.8c.6-2.1 1.6-4 2.9-5.7l.3-.3c.1 0 .3.1.3.2m-1.2 5.3c.9-1.8 1.9-3.5 3.1-5.2.1-.2.4-.3.4-.1m-1.7 5.3c1-1.8 2-3.5 3.1-5.3.1.3.1.6 0 .8m-1.4 4.4c1-1.5 1.9-2.9 2.9-4.4.2-.2.4-.5.7-.4.1.2.1.5 0 .7m-.5 3.8c.4-1.1.8-2.3 1.3-3.4.1-.3.4-.6.7-.6.2.2.2.5 0 .7m-.6 2.8c.4-1 .9-1.9 1.5-2.8.1-.2.2-.4.4-.4.2-.1.5.1.4.3m-.8 2.9c.7-.9 1.3-1.8 2-2.7l.3-.3c.1-.1.3.2.1.3m-.6 2.8c.6-1 1.4-2 2.2-2.8m.3 2.7c.5-.8 1.1-1.5 1.7-2.2m-.3 2.4c.5-.9 1-1.8 1.4-2.6m.9 2.2c.4-.4.8-.9 1.3-1.3m27.8 17.8c.3 2.7.2 5.5-.3 8.2-.2-4.8-2.1-9.3-4-13.6m.2 1.6c.4 2.9.6 5.8.5 8.8 0 .7 0 1.4-.4 1.9-.2.2-.4.4-.3.7m-2.2-13.8c1 4 1.2 8.3.7 12.4m-2.6-12.9c.3 3.9.6 7.9-.4 11.8-.1.3-.3.6-.5.5m-1-16c.7 4.2.9 8.5.6 12.7m-2.2-12c.6 3.5.7 7 .4 10.5m-2.5-13.6c.7 3.7.9 7.6.5 11.4"/><path class="st1" d="M1237.2 373c0-1.1-.1-2.2-.1-3.3.2 1.5.3 3 .5 4.5m-4.4-6.3c.8 3.2 1 6.5.6 9.7m-2.5-6.7c.7 1.9 1 4.1.6 6.1m-2.4-7.5c.3 1.5.5 3.1.6 4.7m8.1-7.2c4.3-2.2 9.6-1.5 14.3-.1 6.4 1.9 12.7 5 17.1 10"/><path class="st1" d="M1241.6 368.1c.9.4 1.9.4 2.7.9.7.5 1 1.3 1.3 2.1.6 1.6 1.1 3.2 1.7 4.8m-2.3-8.5c1.8 1.7 3.1 4 3.6 6.4.3 1.5.4 3 1 4.4m-2.1-10.2c2.6 3.3 4 7.6 3.7 11.8m-1.6-11.9c1 1.6 1.9 3.3 2.4 5 .5 1.8.7 3.7.2 5.5m-.4-9.6c.4 2 1.7 3.7 1.9 5.7.1 1.1-.1 2.3 0 3.5m-.2-8.6c.7 1.4 1.4 2.9 1.9 4.4s.5 3.2 0 4.7m-.1-8.7c1.5 2.6 2.1 5.7 1.6 8.6m2.5-.7c0-2.8-1-5.5-2.9-7.6m5.2 7.6c-.1-1.6-.2-3.3-1.1-4.6-.3-.4-.7-.8-1-1.2l-2.3-2.3m6 7.8c.2-2.4-1.3-4.9-3.6-5.7m6.8 5.7c-1.4-2.3-3.3-4.4-5.4-6.2m-32.5-9c5.2-6.9 14-10.2 22.6-11.5 3.7-.6 7.6-.8 11.3 0 3.8.8 7.4 2.6 10.9 4.4m-40 5.5c1.4 1.9 3.3 3.6 5.4 4.7"/><path class="st1" d="M1240.5 365.5c-1.6-1.2-3.2-2.6-4.2-5 1 .2 1.8 1 2.5 1.7 1.5 1.3 3.1 2.4 4.9 3.2m-5.8-7.7c2.7 2.1 4.7 5.2 7.6 7m-5.4-7.7c3.3 1.7 6 4.5 7.5 7.9m-5.3-8.5c2.4.8 4.5 2.5 5.8 4.6.6 1 1.1 2.1 1.7 3.2m-5.8-9.5c2.7 2.1 5 4.8 6.7 7.9m-4.4-6.7c2.5 1.6 4.6 4 5.9 6.7m-3.6-8.8c2.5 2.5 4.7 5.3 6.6 8.3m-4.8-9.5c1.5 2 3.7 3.5 5 5.7.6 1 1 2.2 1.4 3.3m-3-8.6c2.3 2.6 4.4 5.3 6.3 8.3m-3.4-7.8c1 .7 2.1 1.5 2.9 2.4 1.4 1.7 2.1 3.8 2.8 5.9m-4-8.4c3.3 1.7 5.9 4.7 7.2 8.2m-4.3-8.6c1.9.8 3.3 2.4 4.3 4.2s1.6 3.8 2.1 5.8m-3.1-9.6c2.3 1.7 3.6 4.7 3.4 7.6m-1.1-6.5c1.4 1.3 2.2 3.4 1.9 5.3m1.9-.5c-.3-1.4-.9-2.8-1.7-4.7.8 0 1.6.1 2.3.4.7.3 1.4.8 1.8 1.5m-44.7 3.3c1.8-4.7 5.3-8.6 9.5-11.5 4.1-2.9 8.9-4.7 13.8-6m-21.3 14.8c1.2.1 2.4.1 3.6.2m-1.5-1.3h2.1m-1.4-1.2c1.1.1 2.2.1 3.3.2m-1.9-1.5c1.1.2 2.1.4 3.2.6"/><path class="st1" d="M1240.6 352.8c-1.5 0-3-.2-3.4-1.7 1.5.5 3 .8 4.6.9m-3.4-1.6c1.7.3 3.5.3 5.3.1m-4.3-2.1c1.9.5 3.9.9 5.8.5m-3.6-1.3c1.5.4 3 .7 4.6.9m-3.1-1.6c1.5.3 3.1.8 4.1 1.8-.6-.5-1-1.1-1.5-1.7-.5-.6-1.2-1-2-.9m4.4.6c-1.3-.9-2.7-1.6-4.1-2.2-.1.1-.2.3-.1.5m5.7.4c-1.3-.3-2.7-.5-4.1-.5m4.1-1c-1 .2-1.9.4-2.9.6m-18.3 16.9c-.7-4.4-1.4-9.1.3-13.3.5-1.2 1.2-2.4 1.9-3.5 1.7-2.7 3.4-5.5 5.8-7.6 3.2-2.9 7.6-4.4 11.9-4.1"/><path class="st1" d="M1239.2 336.2c3-1.2 6.2-2.3 9.4-1.7 0 .1 0 .3-.1.4m-.4.4c-3.7.3-7.3 1.7-10.7 4.9 2.2-1.3 4.6-2.3 7-2.8h.1m-12.1 8.1c2.8-2.6 6.4-4.5 10.1-5.4m-10.7 7.4c2.6-2.2 5.7-3.8 8.9-4.8-.1 0-.1.1-.2.1m-10.1 8.2c1.6-1.5 3.3-2.9 5.2-3.9-.2 0-.3.1-.5.2m-6.4 6.6c1.1-1.2 2.4-2.2 3.9-2.9 0 .1-.1.3-.1.4m-4.1 4.4c.7-.6 1.5-1.1 2.2-1.7m-52.1 3.3c6.4-6.2 15.4-9.6 24.4-9.3 1.6.1 3.1.2 4.6.7s2.9 1.3 4.3 2.1c5.5 3.3 10.9 6.9 15 11.7m-2.7-1c-1.5.9-2.8 2.2-3.7 3.7"/><path class="st1" d="M1219.3 363.5c.9-1.1 1.9-2.2 2.5-3.9-2 1.1-3.7 2.5-5.1 4.2m-1.3-1c1.2-1.5 2.8-2.8 3.7-4.8-1.7.9-3.2 2.3-4.3 3.9m2.1-4.8c-1.5 1.2-2.8 2.6-4 4.1m-2.4-.8c1.4-1.4 2.8-2.8 3-4.4-2.1.8-4 2.3-5.3 4.2m-.9-1.4c1.4-1.6 2.9-3 3.2-4.6-1.8 1.4-3.5 2.9-5 4.6m4.4-5.3c-2 1-3.9 2.3-5.6 3.7m3.8-4.8c-1.9 1.4-3.8 2.8-5.7 4.3m3.3-5.1c-2.3 1.5-4.3 3.3-6.1 5.3m4.1-5.5c-2.2 1.6-4.1 3.5-5.7 5.7m3-6.1c-2.1 1.6-4.1 3.4-5.9 5.4m4.3-6.1c-3.2 1.8-6.2 4.1-7.6 7.5m3.3-6.6c-3.2 1.2-5.7 3.8-6.7 7.1m2.9-6.5c-2 1.9-4.2 4.1-4.6 6.9m1.4-5.6c-.7 1-1.7 1.7-2.5 2.6-.8.9-1.4 2.1-1 3.3m1-5.5c-1.5 1.6-2.6 3.6-3 5.7m.3-4.2c-1.2 1.7-2.1 3.7-2.4 5.8m.9-4.7c-.8 1.3-1.5 2.6-2.1 3.9-.1.1 0 .4.1.3m.1-4.3c-.6 1.3-1.2 2.6-1.7 3.8m27.2-31.9c4.1.7 7.7 3.3 10.7 6.2 6.7 6.5 11.5 15.5 11.2 24.8m.5-8.2c-.6-.6-1.1-1.2-1.7-1.8m-10.9-2.7c-1.5-.3-2.9-.5-4.4-.5s-3 .4-4.2 1.3m3.7 0c-1.2.3-2.3.6-3.5.9m5.7-.6c-1.3.1-2.5.6-3.5 1.3m1.5.7c1.4-.9 3-1.5 6.1-.8-1.4.3-2.7.8-3.9 1.5m1 1c1.2-.6 2.4-1 4.5.3-.7.4-1.5.8-2.2 1.2l2.8-.1m-.1 2.4c2.3.5 4.5 1.3 7.1 2.3-.8-1.1-1.8-2.1-3-2.9-.5-.4-1.3-.7-1.9-.4"/><path class="st1" d="M1225.5 355.3c-1.7-1.5-3.5-2.8-5.3-4.1-.7-.5-1.6-1-2.4-.7m6.5 2.9c-1-1.2-2-2.4-3.3-3.3s-2.8-1.5-4.3-1.4m6.7 1.6c-1.8-1.7-4.1-2.9-6.5-3.5m5.7 1.2c-1.6-2.1-4.1-3.6-6.7-4m5 1.4c-2-1.6-4.5-2.5-7-2.6m6.3.7c-2.4-1.7-5.2-3.5-8.1-3.1m-2.1-1.1c2.9-.7 5.8.6 8.4.8-2.2-2-5.2-3.1-8.1-3.1-.6 0-1.4.2-1.5.8"/><path class="st1" d="M1216 338c-2.9-1.4-5.9-2.9-9.1-2.9-.3 0-.8.3-.6.5m7.2-.2c-2.6-1-5.3-1.7-8-2.2-.3-.1-.7-.1-.9.2m5.8-.7c-2.8-1-5.7-2-8.6-1.5m3.4-3c-1.9-.5-3.9-.8-5.9-1m8 2.4c-1.3-.2-2.6-.4-4-.6m22 41c.7 0 1.5.1 2 .6.7.6.8 1.8 1.7 2.2m-.9.3c-1.6 1.4-3.2 2.7-4.8 4.1m-.8-1.4c-.1 0-.3-.1-.4-.1 1.6-1.3 3.1-2.7 3.6-4.9-1.5.8-2.9 1.8-4.1 3.1m28.7-10.5c-.1 1-.1 2-.2 3m.9-2.9c1.1.8 2.2 1.4 3.5 1.8m-.6-77c-2.6.2-4.4 2.4-6 4.4-2.9 3.7-5.9 7.5-8 11.8s-3.5 9-3.1 13.7"/><path class="st1" d="M1240.6 315.6c-.5-3.3-.3-6.7 1.5-11.6-.5 2.6-.3 5.4.4 7.9m2.6-11.3c-.5 3.1-.8 6.3-.8 9.5 0 .1 0 .3.1.3s.2-.2.1-.2m2.9-12.5c-1.1 3.9-1.5 8-1.4 12l.3-.6m3.3-14c-1.2 3.2-1.5 6.7-.9 10.1m2.3-12.7c-.6 3.6-.8 7.2-.7 10.9m3.7-12.7c-1.1 3.8-1.6 7.8-1.3 11.8 0 .2 0 .5.2.6s.5-.1.4-.3m10-19.7c5.6-3.1 13.1-1.9 17.5 2.7 2.7 2.9 4.2 6.8 5.5 10.5 1.1 3 2.2 6.1 2.8 9.2.7 3.8.7 7.8 2.5 11.2"/><path class="st1" d="M1287.6 307.7c.2 1.6.2 3.1 0 4.7-.2.1-.4.1-.5.2m.3-7.7c.2 1.8-.3 3.7-1.3 5.3m.5-8.1c-.3 1.5-.7 2.9-1 4.4-.2.7-.5 1.5-1.2 1.5m.3-9.4c.3 3-.2 6.1-1.4 8.8m-1.8-2c2.1-3.5 2.5-7.9-.3-11.6 0 3.2-.5 6.4-1.5 9.5m-.4-11c0 3.2-.3 6.5-.7 9.7m-1.8-11.5c.5 3.4 1.1 7 .1 10.3m-2.2-11.3c.9 3 1 6.2.5 9.2m-1.3-.4c0-3.7-.8-7.3-3-10.6-.2 2.4 0 4.9.5 7.2m-1.6.4c-.2-2.4-.3-4.8-2.1-7.9-.2 2.2-.1 4.4.4 6.5"/><path class="st1" d="M1271.6 288.7c-2.2-1.3-4.3-2.6-4.9-5.6 2.5 1.6 4.9 3.4 7.1 5.4m-4.5-5.7c3.2 1.5 6 3.9 8 6.8"/><path class="st1" d="M1273.3 284.4c.3-.3.8-.2 1.2.1.3.3.5.6.7 1 1 1.9 1.9 3.9 2.9 5.8m-2.1-7.1c1.3 2.3 2.7 4.6 4 6.9.3.5.5 1 .3 1.5h-.6m-.5-7.6c1.2 1 1.7 2.7 2 4.3.6 2.6 1.3 5.3 1.9 7.9m-1-5.6c1.9 3.2 3.5 6.6 4.7 10.1m-25-28.3c-.2-2.5-.8-5.1-2.3-7.1s-3.9-3.5-6.5-3.4c-3.4.2-6.1 3-8 5.9-6.5 9.5-9.4 21.4-8 32.8m2.4-11.4c.4 2.1.7 4.1.9 6.2m.3-11.6c-.7 3.7-.4 7.6 1 11.1"/><path class="st1" d="M1243.3 293.5c-.5-.2-.6-.8-.6-1.3-.5-4.4-.3-8.8 2.3-15.3-1 3.7-.9 7.7.3 11.3m1.6-14.6c-.3 3.5-.4 7-.1 10.5m2.3-13.4c-.5 4.3-.8 8.7-.9 13m3.3-.8c0-4.4.2-8.8 2.6-12.1-.5 3.7-.7 7.4-.7 11m1.9-1.8c.3-3.4.5-6.8 2.4-10.8-.2 2.8-.3 5.6-.5 8.4m-14.8-5.7c-8.7-.5-17.8 1.2-24.9 6.4-7.1 5.2-11.7 14-10.5 22.7m4.8-12.5c-1.2 4-.7 8.5 1.5 12.1"/><path class="st1" d="M1214.4 298.2c-.7.2-1.1-.9-1.1-1.6 0-2.8.5-5.7 2.8-10-.7 3-.7 6.1 0 9.1m1.6-11.5c-.1 2.9.1 5.8.7 8.6m2.4-11.1c-.5 3.2-1 6.3-1.5 9.5-.2 1.3-.3 2.9.6 3.8m4-13.5c-1.4 3.7-2.3 7.5-2.7 11.4m7.7-15c-1.4 4.4-2.6 8.8-3.7 13.3m7.4-15.1c-1.3 3.4-2.5 6.8-3.7 10.3-.2.5-.3 1.1.1 1.5m3.6-7.9c.9-1.6 1.7-3.2 2.6-4.8-1.7 3.4-2.5 7.3-2.4 11.2m4.7-10.8c-1.7 3.3-2.8 7-3.1 10.8m6-11.7c-1.3 2.6-2.4 5.2-3.2 7.9m-43-9.3c4.1-8.7 14.2-13.5 23.8-13.8s19 3.1 26.8 7.3c-2.3 1.5-4.5 3.3-6.5 5.2m2.6-5.6c-2.6 1.3-5.1 2.9-7.2 4.9m3.3-4.7c-2.7 1.5-5.1 3.5-6.9 5.9m3-7c-2.2 1.6-4.2 3.6-5.9 5.8"/><path class="st1" d="M1223.4 273c1.8-2.1 3.6-4.2 3.4-7-2.8 1.4-5.2 3.7-6.8 6.4m-3.9-.6c2.6-2.7 5.3-5.2 5.6-8.5-1.7-.4-3.2 1-4.3 2.3-1.8 2.1-3.7 4.2-5.5 6.2m4.6-8.4c-3.1 2.4-5.9 5.3-8.3 8.5m2.9-7.2c-2.6 2.5-5.3 5-7.9 7.6m4.7-8.4c-2.4 2.6-4.6 5.3-6.6 8.2m3-7c-3.1 2.3-5.8 5.2-8.1 8.3m110.5 23.2c.2-3.4-1.2-6.8-2.7-9.9-2.1-4.7-4.4-9.4-7.5-13.5s-7.2-7.6-12.1-9.3c-8.7-2.9-19.2 1.4-23.4 9.6-.3.6-.5 1.4-.1 1.8m3.7-1.3c.3 2.4.7 4.9 1 7.3m2.8-8.6c.4 2.1.9 4.1 1.3 6.2m2.3-10c.1 3.7.5 7.3 1.2 10.9m1.3-11.9c-.4 4.6-.1 9.3.9 13.9m2.2-13.4c-.2 5.1-.2 10.2.1 15.4"/><path class="st1" d="M1280.9 284.1c.2-4.9.5-9.9 1.6-14.1-.2 5.3-.1 10.6.3 15.9m1.9-13.4c-.6 5.2-.7 10.5-.2 15.8m2.8-17.4c-.5 5.6-.8 11.2-.8 16.8m2-.4c.2-4.8.8-9.5 3.5-13-.9 4.9-1.4 9.8-1.3 14.8m1.5-13.1c.2 3.8.3 7.6.5 11.4 0 .8.1 1.6.6 2.3m2.4-10.8c-.7 4.2-1 8.5-1.1 12.8m2.4 1.1c-.2-4 .2-8.1 2.4-11.1-.2 3.9-.3 7.8-.5 11.7m2.6-7.8c-.3 3.1-.5 6.2-.8 9.4m2-7.5c0 2.8 0 5.7.1 8.5m1.9-5c-.2 2.2-.2 4.5-.1 6.8m-4.7-18.9c4.3-.7 8.6 1.2 11.8 4.1s5.5 6.6 7.8 10.2"/><path class="st1" d="M1315.9 294.2c-.1-2.2-.6-4.3-3.8-7.8.7 2.7 1.3 5.5 1.6 8.3m-2.4-1.2c-.5-2.4-.9-4.8-3.1-9.4.9 2.6 1.4 5.3 1.4 8.1m-1.9-1.3c-.8-3.1-1.7-6.2-4.2-9.8 1 2.7 2.1 5.4 3.1 8m-45-21.4c7.1-8.1 18.4-11.9 29.2-11.3 10.8.6 21.1 5.1 28.6 10.7 2 1 3.2 3.3 3 5.5"/><path class="st1" d="M1318.4 273.7c-.6-2.1-1.3-4.3-3.2-5.9 1.1-.4 2.3.3 2.9 1.4s.6 2.2.6 3.4m-4.5.9c-1-2.4-1.9-4.8-4.1-7.1 1 2 1.9 4 2.7 6.1.1.4.2.9-.2 1m-6-7.2c1.6 2.5 3 5 4.3 7.7m-8.2-8.9c1.1 2.3 2.1 4.6 3.2 6.8.3.6.5 1.3 0 1.7m-8.9-9.9c1.6 3.6 3.6 6.9 5.9 10.1m-10.3-10.6c2.7 2.2 4.8 5.1 6.1 8.3m-11-7.8c1.7 1.5 3.3 3.1 4.9 4.9m-31.2-2.8c6.7-16.8 21.9-29.9 39.5-34m-9.2 4.4c3.6-.1 7.1 1 10 3.1m-12 .4c3.6-.3 7.2.2 10.5 1.6"/><path class="st1" d="M1284.6 241.8c2.4-.2 4.8-.4 7.2-.4 1.1 0 2.5.2 2.9 1.2m-.5 4.1c-3.8-1.8-7.9-2.8-13.4-1.7 4.1.3 8 2.4 10.5 5.6m-12.9-2.2c3.7 1 7.3 2.3 10.8 3.9m-15.8-1.2c3.6.7 7.1 1.7 10.5 3m-13.6-.4c2.8.2 5.6.5 8.4.7m-11.3 2.7c2.8.3 5.5.9 8.2 1.7m-8.2-5.3c-.7-5-2.3-9.9-3.9-14.8-.9-2.6-1.7-5.2-3.5-7.3-2.2-2.5-5.5-3.9-7-6.9 0 .3-.1.5-.1.8m-1.4 3.2c2.1 1.4 4.1 2.8 6.2 4.3m-5-1.8c1.5 1.6 3 3 4.7 4.3m-6-1.6c3.1.9 6.2 1.9 9.3 2.8m-9.8.8c3.1.3 6.2 1.4 8.8 3.1m-4.6.2c3.4.2 6.7 1.3 9.4 3.3m-7.6 2.3c2.8.2 5.5 1.3 7.7 3m-7.9.6c2.9.7 5.8 1.9 8.4 3.5m-5.8 3.2c2.1.1 4.1.7 6 1.6 0 0-8-7.6-8.5-7.6-2.8-1.6-5.2-2.3-8.4-2.1m-15.3 8.3c-1.1.9-2.1 1.9-3.2 2.8"/><path class="st1" d="M1260.7 266.6c-2.5-5.8-5.8-11.2-10-15.9-4.3-4.9-9.8-9.2-16.3-9.5-3.9-.2-7.8 1.2-11.5 2.5-4.5 1.6-9 3.3-12.8 6"/><path class="st1" d="M1215.3 252.7c.7-1.9 1.5-3.8 2.5-5.6.5-1 1.4-2.1 2.5-1.8m-2.8 6.7c1.7-2.2 3.5-4.4 5.2-6.6m-2.2 6.5c2.5-2.5 5-5 7.7-7.3m-5.3 6.4c2.4-1.8 4.9-3.5 7.4-5 1.1-.6 2.4-1.3 3.5-.8m-7.9 7.2c2.7-1.9 5.4-3.7 8.3-5.3.6-.3 1.2-.7 1.9-.7.7-.1 1.4.2 1.8.8m-8.1 5.9c4-2.2 8.3-3.6 12.8-4.2m-9.6 5.9c3.4-2.8 7.7-4.4 12.1-4.6m-9.6 6.1c3.7-2.2 8.2-3.2 12.6-2.6m-10.1 4.9c2.1-1 4.3-2 6.6-2.6 2.3-.6 4.7-.7 7 0m1.3 1.5c-.5-.8-1.8-.7-2.7-.5-3.1.7-6.2 1.5-7.4 4.1 3.4-1.7 7.4-2.4 11.2-1.8m-9 3.3c3.3-.5 6.6-1 9.9-1.4m-19.3.2c0-1.2.5-2.6 2.2-3.1-.5 1.3-.5 2.8-.1 4.2m2.6-1.4c.2.8.3 1.6.5 2.4"/><path class="st2" d="M1263.4 274.5c-10.7 59.2-13 99.8-.1 158.6m-35.8-64.3c-3.1 22.9-3.5 45.2-1.1 68.2m-82.7-113.6c-2.7 38.6 15.3 87.5 30.5 123"/><path class="st1" d="M167.7 190.6c-5.9-.9-11.7 2.7-15.1 7.6-3.3 4.9-4.6 10.9-5.5 16.7-.5 3.1-.8 6.2-.4 9.3s1.6 6.2 3.9 8.2c.1-2.6-.1-5.1-.6-7.7 0 .4.1.8.1 1.3m-1.1-6.9c1.4 2.5 2.7 5 3.7 7.6m-2.8-10.9c1.7 2.7 2.7 5.7 3.1 8.8m-2.2-12.4c2 2.8 3.7 6 4.8 9.3m-3.5-12.8c1.1 2.5 2.2 4.9 3.3 7.4m-2.4-10.6c1.8 2.6 3.2 5.5 3.9 8.6"/><path class="st1" d="M158.1 211.3c-1-3.3-2.2-6.4-3-11.6 2.1 2.5 3.6 5.6 4.2 8.8m1.8-1.9c-1.2-3.1-2.4-6.1-1.2-11.8.9 3.2 1.8 6.4 2.7 9.7m-.3-10.3c.4 2.9.8 5.9 1.1 8.8m6.6-11.2c2.9-1 6.2-.2 8.8 1.5s4.5 4.2 6.1 6.8c2.8 4.6 4.9 9.9 4 15.2m-2.5-8.8c1.2 2.7 1.3 5.9.4 8.7m-2.2-12.5c.6 2.1.7 4.2.5 6.4"/><path class="st1" d="M183.4 206.5c.4-2.6.2-5.2-2.3-9.3.9 2.7.8 5.7-.1 8.4m-.9-1.9c.3-2.8-.1-5.7-3.2-10.1 1.2 2.6 1.5 5.6.8 8.3m-1.8-.3c.8-2.9.7-6-2.4-9.1 1.8 2.4 1.9 5.8.4 8.3m-1.1-.4c.5-2.6.3-5.3-2.2-7.4.3 2.5.1 5.1-.6 7.6m-19.5-1c-3.3.6-6.1 2.9-8 5.7s-3 6-4.1 9.2"/><path class="st1" d="M141.5 213.6c-.2-1.5-.3-3.1 1-6.5v4.3m1.9-1c-.3-2-.5-3.9.9-7.5.3 1.9.6 3.7.9 5.6m1.8-7.5v5.2m9.2-13.7c-6.1-.4-12.4-.2-18.3 1.5-11.6 3.4-21.3 13.9-21.8 25.9"/><path class="st1" d="M120.7 209.3c-.7 1.1-.9 2.4-1.1 3.7-.3 1.7-.5 3.4-.6 5.2m2.3-9.8c-.2 2.1-.4 4.2-.4 6.3m4.3-10.8c-1.3 2.2-1.2 4.9-2 7.3-.4 1.3-1.1 2.5-2 3.6m5.3-11.9c-.7 3.5-1.2 7-1.3 10.6m6.8-14.6c-1.9 1-2.9 3.3-3.4 5.4s-.7 4.4-1.8 6.3m7-12.2c-2 3.2-3.1 7-3.1 10.8m7.5-12.5c-2.4 1.8-3.8 4.6-4.9 7.4-.7 1.8-1.2 3.7-.9 5.6m8.3-14.1c-3.1 2.9-5.3 6.8-6.2 10.9m9.4-11.1c-2.5 2.3-4.4 5.3-5.3 8.6m7.8-8.8c-3 2-5.2 5.2-6.1 8.6m8.7-9.2c-2.6 1.8-4.6 4.5-5.7 7.4m6.9-7.4c-1 1.2-2 2.4-2.9 3.6m-38-11.9c3.5-3.2 8.6-4.3 13.3-3.9 3.4.3 6.7 1.2 10.1 1.1 4.1-.1 8-1.7 11.9-2.7s8.4-1.5 11.9.5c2.1 1.1 3.7 3 5.2 4.8m-26-2.9c-4.3 2.3-7.9 6-9.9 10.4m5.3-9.2c-2.7 1.8-5 4.1-6.9 6.8m4.4-7.2c-2.8 2-5.4 4.3-7.7 6.8"/><path class="st1" d="M119.4 189.9c1.5-2.3 3.5-4.2 4.8-6.1-3.2 1.8-5.9 4.3-8.1 7.2m4.6-6.9c-2.1 1.5-3.9 3.3-5.4 5.4m3.8-5.5c-2.3 1.6-4.7 3.3-6.3 5.7m4.6-5.9c-2 1.4-3.8 3-5.5 4.8m25.8-4.8c-.8.6-1.7 1.3-2.4 2-.4.4-.7.8-1.1 1.2-.5.6-1.1 1.3-1.6 2-.9 1.2-1.6 2.4-2.3 3.7m12.6-10.4c-3.1 2.2-5.6 5.3-7.2 8.8m10.9-9.4c-3.5 2.3-6.4 5.7-8.1 9.5m10.8-9.1c-2.5 1.6-4.6 3.7-6.1 6.2m8.8-5c-1.7 1.6-3.2 3.5-4.4 5.5m7.7-5c-2.4 1.8-4.7 3.9-6.7 6.1m8.5-4.6c-1 1.3-2.1 2.6-3.2 3.8m-23.5-7.1c3.5-3.2 8-5.1 12.7-5.4s9.4 1 13.3 3.6m-15.8-2.1c-2.2.8-4.2 2.2-5.8 4m8.5-3.9c-1.8.4-3.5 1.6-4.4 3.2m7.1-3.6c-1.1.8-2.2 1.7-3.3 2.7M164 192c-.3 3.2-.3 6.4 0 9.6m1.9-9.5c-.5 2.6-1 5.4-.2 8m1.2-6.9c.7 1 1.4 2.1 2 3.1m-3.5-7.9c2.6-3 5.3-6 8.9-7.7 4.3-2 9.5-1.7 13.5.7 1.7 1.1 3.2 2.5 4.7 3.9 1.4 1.4 2.7 2.9 3.7 4.6.8 1.3 1.3 2.8 1.8 4.2 1 2.9 2.1 5.8 2.7 8.8 1 4.8 1 9.7 1 14.6"/><path class="st1" d="M216.6 212.5c.6-1.2.5-2.6.3-3.9-.5-4-1.4-8.2-4.1-11.2-.9-1-2-1.8-3.1-2.6-2.1-1.5-4.3-3-6.7-4.1-2.4-1.1-5-1.7-7.6-1.5m4.9 21.6c-.6 2.1-1.6 4-2.8 5.8m.6-7.9c-.5 1.2-.9 2.3-1.4 3.5-.2.5-.4 1-.5 1.5-.1.3-.1.7-.1 1-.2.7-.6 1.3-.6 2.1m2.9-14.7c-.3 4.4-2.1 8.7-5 12m3.1-16.3c-.5 4.1-1.2 8.1-2.1 12.1m1.3-14.2c-.6 1.7-1.1 3.4-1.7 5.1-.8 2.4-1.6 4.7-2.7 7m1.7-15.4c0 2 .4 3.9.1 5.9-.1 1-.4 2-.7 3l-1.5 4.8m-.9-16c.6 4.3.4 8.8-.6 13.1m-1.6-14.4c.3 2.3.6 4.6.3 6.9-.3 2.1-1.1 4.1-.9 6.1m-2.7-15.5c.6 2.2.8 4.6.6 6.8-.1.8-.3 1.7-.3 2.5s.2 1.7.7 2.4m-6.5-18.4c2.2 1.4 3.2 4.1 3.4 6.7s-.1 5.2.2 7.8m-6.2-13.6c1.7 1 2.5 3 3 5 .6 2.3 1 4.7 1.2 7.1m-6.2-10.8c1.4.7 2.2 2.2 2.9 3.7.3.6.5 1.2.7 1.8.5 1.5.7 3.1 1.3 4.6m-7.1-8.5c1.1.3 1.9 1.4 2.4 2.5 1.1 2 2.1 4.2 2.8 6.4m-7.6-7.5c.6.6 1.4 1.1 1.9 1.8.9 1.2 1 3 2.1 4.1m-6-3.8c1.3 1 2.4 2.2 3.2 3.7m29.7 8.1c1.1 1.4 2.3 2.8 3.2 4.4.9 1.6 1.6 3.3 1.8 5.1"/><path class="st1" d="M199.6 191.6c2.5 1.8 4.1 4.6 5.1 7.5s1.4 6 1.6 9"/><path class="st1" d="M201.5 192.9c1.9 2.2 3.7 4.5 5 7.1s2.1 5.5 2 8.3"/><path class="st1" d="M210.2 208.3c-.3-3.6-1.2-7.1-3-10.2-1.5-2.4-3.5-4.5-5.6-6.5m5.7 5.6c2.2 1.2 3.5 3.5 4.6 5.7 1.3 2.7 2.4 5.6 2.6 8.6"/><path class="st1" d="M208.5 196.8c3.6 2.4 5.5 6.5 7.2 10.5.6 1.4 1.2 2.8 1 4.3m-50.6-24.7c1.8-3.4 1-7.7-1.1-10.9-2.2-3.5-5.7-6.2-9.6-7.6-3.9-1.5-8.2-1.8-12.3-1.2-1.4.2-2.7.5-3.9 1-1.3.6-2.6 1.4-3.7 2.3-3.5 2.5-7 5.3-9.5 8.9m7-5.5c-2.5 2.1-4.4 5.1-5.2 8.3"/><path class="st1" d="M139.8 170.2c-2.5 1.5-4.7 3.6-6.4 6.1-.7 1-1.2 2.1-1.2 3.3m11.3-10c-2.9 1.1-5.5 3.1-7.4 5.6-.6.8-1.1 1.6-1.2 2.5m12.7-8.8c-3.1 1.2-5.9 3.2-8 5.7-.3.4-.7.9-.6 1.4m12.3-6.3c-3.3.9-6.4 2.6-9 4.9-.5.5-1 1-1.2 1.6m15.4-4.6c-4.5-.5-9.1 1.1-12.4 4.2m15.4-2.9c-2.1 0-4.3.1-6.4.6-2.1.6-4.1 1.6-5.5 3.2m14.6-2.1c-3.8-1-8.1-.2-11.2 2.1m3.7 1.6c1-1.3 2.5-2 4.1-2.2s3.2 0 4.4.5c-2.7.3-5.2 1.7-6.8 3.8m1.6 1c.6-1.2 1.8-2 3-2.5 1.3-.5 2.6-.6 4-.1-2.3.4-4.5 1.7-6.1 3.5m6.2-2.5c-1.8 1-3.4 2.4-4.8 4m1.4 1c1-1.1 2-2.2 3.7-2-.7 1-1.4 2.1-2.1 3.1m-24.4-18.3c-5.4-2.6-11.9-2.5-17.6-.6-5.7 1.9-10.7 5.5-15.1 9.6m3.5-1.2c-.2 1.6-.3 3.2-.5 4.8m5.1-8.4c-1.9 2.5-3.4 5.3-4.3 8.3m7.7-9.7c-2.1 2.2-3.7 4.9-4.7 7.9m8.8-9.3c-2.1 2.2-3.8 4.8-4.8 7.6m7.3-7.9c-2.2 2-3.9 4.4-5.2 7.1m7.8-7.5c-3.6 1.4-6.3 4.6-7.1 8.4"/><path class="st1" d="M123.8 175c-.2 0-.4-.3-.4-.6 0-.2.1-.5.3-.7 1.5-2.4 3.7-4.4 7.5-5.3-1.6 1-3 2.2-4.3 3.5-.6.6-1.1 1.4-.7 2.2m7.8-5.8c-2.9 1.6-5.5 3.8-7.4 6.4m-13.3-20.8c4.9-3.9 11.1-6.4 17.4-6.6 6.3-.2 12.7 2 17.3 6.3 1.5 1.4 2.7 3 4 4.7 2.4 3.1 4.8 6.1 6.6 9.6"/><path class="st1" d="M120.1 152.4c-1.4.6-2.7 1.5-3.8 2.6-.4.4-.8 1-.6 1.5m9.2-5.9c-2.8 1.2-5.2 3.3-6.8 6m9.7-6.5c-1.9.2-3.4 1.5-4.6 3-1.1 1.4-2 3.1-3.7 3.7m11.9-7.1c-3.4 1-6.4 3.4-8.2 6.4m11.7-6.2c-3.8.6-7.3 2.8-9.5 5.9m11.4-4.8c-1.2.1-2.5.2-3.6.7-.5.3-1 .6-1.5 1-1.9 1.3-3.9 2.7-5 4.8m12.8-5.9c-3.8.6-6.8 3.4-9.6 6-.6.5-1.2 1.3-1 2m12.1-6.7c-2 .4-4.1 1-5.8 2.2-1.7 1.1-3.2 2.8-3.9 4.7m2.5.4c2.8-2.7 5.8-5.6 10.3-5.3-1.4.4-2.8.8-4.1 1.6-1.2.8-2.3 1.9-2.8 3.3m6.5-4.1l-6.6 5.4m9.5-4.4c-3.6 1.1-6.9 3.4-9.1 6.5m7.3-5.6l-5.1 5.4m-1.1 2.4c0-.2.1-.4.2-.6 2-2.9 5.1-5 8.8-5.9-1.7 1.8-3.7 3.4-5.8 4.8m7-3.6c-2.1 2-4.2 4-6.5 5.8m7.8-4c-1.4 1-2.8 2-4.2 2.9m21.2 15.6c3.7-5.8 10.3-9 16.7-11.5 3.1-1.2 6.2-2.3 9.5-2.8 5.4-.8 11 .2 16.4 1.1 3 .5 6.1 1.1 9.1 1.6m-51.1 13.5c.6.1 1.2.1 1.7.2m-.8-1.8c.5.3 1.1.7 1.6 1"/><path class="st1" d="M170.6 180.7c-.5-.5-1-1.1-.3-2.5.7.6 1.7 1 2.7.9m-1-2c1.2-.2 2.4.5 3 1.5m-1.4-2.4c1.1-.3 2.2-.5 3.3-.6 1 1 2.1 1.9 3.4 2.5m-4.7-3.4c1.3 0 2.5.2 3.7.5.2 1 1.3 1.4 2.3 1.6m6.1 2.3c-1.5-.2-2.4-1.6-3.5-2.7-1.3-1.3-3-2.1-4.6-3.1 3.9.4 7.4 2.7 10.7 4.8.8.5 1.6 1 2.5 1.2 1.4.4 2.9.1 4.3.2m-17.1-6.8c2.5-.3 5.1-.4 7.3.8 1 .5 1.8 1.2 2.7 1.8 2.1 1.3 4.6 1.8 7.1 2.2m-13.7-6.1c3.2-.1 6.5 1 9.1 3m-2.1-3.1c2 .3 4 .9 5.8 1.8 1.1.6 2.2 1.3 3.1 2.2.7.7 1.3 1.4 2.2 1.8m-8.6-6.9c4.9.7 9.5 3.4 12.6 7.3"/><path class="st1" d="M195.7 169.2c2.1.4 4.4.8 6.1 2.2 1.2.9 2 2.2 2.8 3.5.4.7.9 1.4 1.3 2 .3-1.8-.1-3.7-1.2-5.2-1-1.5-2.6-2.6-4.3-3.3m4.8 3.8c1.3.5 2.5 1.5 3.3 2.7.5.8.9 1.7 1.8 2.1-.2-2-.5-4.2-1.9-5.6-1.1-1-2.7-1.4-3.8-2.4.8.3 1.7.6 2.5.9 1.2.4 2.4.9 3.5 1.5 2 1.1 3.7 2.7 4.8 4.6-1.9-2.9-3.9-5.9-7.1-7.2 3.6 1.1 6.8 3 10 4.9-1.7-2-3.6-3.8-5.6-5.4m-55.4-2.7c-.8-10.8 2.4-21.8 8.7-30.6 0 .5.1.9.1 1.4"/><path class="st1" d="M162.9 140.4c.8-2.3 2.2-4.3 3.8-6-1.2 3.7-4.2 6.8-4.8 10.6 1.2-2.3 2.7-4.8 5.2-5.5-2.5 3.2-4.6 6.6-6.5 10.2 1.5-2 3.5-4.1 6.1-4.3h.1m-6 5.7c1.4-1.4 2.8-2.9 4.8-3.3m-6.9 7.4c1-1.2 2.1-2.5 3.4-3.4s2.9-1.6 4.5-1.6c-1.8 1.2-3.5 2.5-5.1 3.9-1 .9-1.9 1.8-2.3 3 .7-1.2 1.9-2.1 3.2-2.5s2.7-.5 4.1-.4c-.8.2-1.4.7-2.1 1.2-1.9 1.6-3.8 3.3-4.6 5.6.8-.9 1.7-1.7 2.7-2.3 1.1-.5 2.3-.8 3.5-.4-2.4 1.2-4.3 3.3-6.1 5.3-.3.4-.7.9-.4 1.4.9-1.1 1.8-2.2 2.9-3.1 1.1-.9 2.5-1.4 3.7-1.3-1.4.9-2.7 2-3.8 3.3-.6.7-1.1 1.6-.7 2.4 1.2-1.6 2.7-2.9 4.5-3.8-1.8 1.2-2.6 3.4-3.6 5.3-.5 1-1.2 2.2-.9 3.3m5.3-9.2c.9-1.1 2.2-1.9 3.5-2.1.7-.1 1.3-.1 2-.2 1.4-.1 2.8-.3 4.2-.6m-3 2.5c-1.6-.4-3.3-.4-5.6 1.2 1.4 0 2.9.3 4.2.8m-6.1 1.3l4.8.6m-4.9 1.5c1.3.2 2.7.5 4 .7"/><path class="st1" d="M166 176.7c2-5.6 4.5-11.1 8.5-15.5 6.2-6.7 15.5-9.8 24.7-10.5m-4.5 1.3c1.8.4 3.6 1.1 5.1 2.1m-7.4-1.7c1.9.2 3.6 1.2 4.6 2.8"/><path class="st1" d="M189 153.7c1.6.1 3.2.5 4.7 1.2.5.2 1 .5 1.3 1"/><path class="st1" d="M184.7 154.3c2.4.3 4.7.9 6.8 1.9.6.3 1.2.6 1.6 1.1-.3-.8-.7-1.6-1-2.5m-11.4 2.4c1.4-.8 3.1-.8 4.7-.4s3.1 1.1 4.6 1.5"/><path class="st1" d="M186 156.6c.6 1.4 1.5 2.7 2.5 3.9-1.2-.7-2.4-1.4-3.8-1.9-2-.7-4.1-.8-7.3.9 3-.3 6.2.1 9.1 1.1.8.3 1.5.6 2.3.9 1 .4 2.1.9 3.1 1.3m-15.8-1.1c4.2-.4 8.3 1.1 12.2 2.7m-13.9-.8c2.4-.3 5-.1 7.3.7 1.3.4 2.5 1 3.8 1m-12.4.2c1.6-.6 3.4-.3 5.1.1 1.7.4 3.3 1 5.1.9m-11.1 1.4c2.8.1 5.7.2 8.5.4m-10.4 2.9c2.1.1 4.2 0 6.3-.3m-4.6-1.8c2.1.2 4.1.2 6.2.2m-9.3 3.8c1.6 0 3.2.1 4.9.1m-5.8 2.4l3.3-.9m76.9 67.1c-1.9.5-3.6 1.7-5.1 3-5 4.4-9 10.3-9.4 17m3.3-7.4c-.6 1.9-.8 4-.6 6m1.5-8.8c-.9 2.7-.3 5.7.3 8.5"/><path class="st1" d="M239.8 249.9c-.5 1.9-.4 3.9-.3 5.8 0 .7.1 1.3.1 2m1.3-8.9c0 2.4.1 4.9.3 7.3m.8-9c-.4 2.6-.4 5.3 0 7.9m1.1-9.1c-.1 2.8 0 5.5.2 8.3m1.9-9.1c.1.5 0 1-.1 1.4-.4 2.3-.5 4.6-.2 6.9m5.8-12.7c1.4-2.6 4.2-4.4 7.1-4.5.4 0 .9 0 1.3.2s.8.6 1.1.9c.7.6 1.5 1 2.3 1.6 2.2 1.5 3.8 3.8 5.3 6.1 2.5 3.8 5.1 7.5 7.6 11.3l-.2.1"/><path class="st1" d="M256.9 243.2c-.4-.9-.8-1.8-1.4-2.5s-1.6-1.2-2.5-1.1m4.3 2c-.3-.7-.7-1.5-1.2-2.1s-1.2-1.2-2-1.3h-.2v.2m3.7 1c-.8-.8-1.7-1.5-2.7-2m-45.2 13.1c4.8-4.9 11.2-8 18-9.4 6.7-1.4 13.7-1.1 20.5-.1"/><path class="st1" d="M209.3 251.9c1.5-.2 2.8-1.2 3.9-2.3 1.1-1.1 2-2.3 3.2-3.3-1.9 2.5-2.7 5.7-2.2 8.8 1.7-3.4 3.8-6.6 6.2-9.5m-3.3 7c1.6-1.5 3.1-3.2 4.3-5.1.1-.2.3-.5.4-.7.2-.6.1-1.4 0-2m-1.6 5.9c2.8-1.5 4.8-4.5 4.9-7.7.2.1.4.4.2.6m-1.7 4.9c0 .8-.1 1.7-.2 2.5 1.3-.7 1.8-2.2 2.6-3.4.6-.9 1.5-1.7 2.4-2.5.6-.5 1.2-1.1 1.8-1.6m-4 7.7c.7-1.9 1.5-3.8 2.7-5.4 1.1-1.4 2.5-2.6 3.9-3.6-.3.2-.5.5-.8.7m-3.7 5.9c.2.5.5.9.7 1.4 1.1-.7 1.1-2.4 1.9-3.6.4-.6.9-1 1.4-1.5 1.2-1.3 2.1-3.2 3.9-3.8-.1.1-.1.2-.2.2m-3 4.1c.1 1.2.1 2.4.2 3.5 1.5-2.7 3.3-5.2 5.5-7.3.1-.1.1-.1.2-.1s.1.1.1.2m-3.5 6.7c.8-1.7 1.8-3.4 2.9-4.9.7-1 1.6-1.9 2.8-2.1 0 .1 0 .2.1.3m-2.9 6.1c1.5-2.3 3.4-4.2 5.7-5.6.2-.1.3-.2.5-.3m-28-.3c1.7-4.4 4.5-8.6 8.8-10.7-.1.1-.1.3-.2.4"/><path class="st1" d="M220.5 240.1c.3-3.4 2.5-6.5 5.6-7.9v.3m-3 7.8c.3-3.1 2-6 4.6-7.7.1.1.1.3.2.4m-3 6.8c.6-2.1 1.6-4 2.9-5.7l.3-.3c.1 0 .3.1.3.2m-1.2 5.3c.9-1.8 1.9-3.5 3.1-5.2.1-.2.4-.3.4-.1m-1.8 5.3c1-1.8 2-3.5 3.1-5.3.1.3.1.6 0 .8m-1.4 4.4c1-1.5 1.9-2.9 2.9-4.4.2-.2.4-.5.7-.4.1.2.1.5 0 .7m-.4 3.8c.4-1.1.8-2.3 1.3-3.4.1-.3.4-.6.7-.6.2.2.2.5 0 .7m-.7 2.8c.4-1 .9-1.9 1.5-2.8.1-.2.2-.4.4-.4.2-.1.5.1.4.3m-.7 2.9c.7-.9 1.3-1.8 2-2.7l.3-.3c.1 0 .3.2.1.3m-.6 2.8c.6-1 1.4-2 2.2-2.8m.3 2.7c.5-.8 1.1-1.5 1.7-2.2m-.3 2.5c.5-.9 1-1.8 1.4-2.6m.9 2.1c.4-.4.8-.9 1.3-1.3m27.7 17.8c.3 2.7.2 5.5-.3 8.2-.2-4.8-2.1-9.3-4-13.6m.3 1.6c.4 2.9.6 5.8.5 8.8 0 .7 0 1.4-.4 1.9-.2.2-.4.4-.3.7m-2.2-13.7c1 4 1.2 8.3.7 12.4m-2.6-13c.3 3.9.6 7.9-.4 11.8-.1.3-.3.6-.5.5m-1.1-16c.7 4.2.9 8.5.6 12.7m-2.1-11.9c.6 3.5.7 7 .4 10.5m-2.5-13.7c.7 3.7.9 7.6.5 11.4"/><path class="st1" d="M262 245.8c0-1.1-.1-2.2-.1-3.3.2 1.5.3 3 .5 4.5m-4.4-6.3c.8 3.2 1 6.5.6 9.7m-2.5-6.7c.7 1.9 1 4.1.6 6.1m-2.4-7.5c.3 1.5.5 3.1.6 4.7m8-7.2c4.3-2.2 9.6-1.5 14.3-.1 6.4 1.9 12.7 5 17.1 10"/><path class="st1" d="M266.4 240.9c.9.4 1.9.4 2.7.9.7.5 1 1.3 1.3 2.1.6 1.6 1.1 3.2 1.7 4.8m-2.3-8.5c1.8 1.7 3.1 4 3.6 6.4.3 1.5.4 3 1 4.4m-2.1-10.2c2.6 3.3 4 7.6 3.7 11.8m-1.6-11.9c1 1.6 1.9 3.3 2.4 5 .5 1.8.7 3.7.2 5.5m-.5-9.6c.4 2 1.7 3.7 1.9 5.7.1 1.1-.1 2.3 0 3.5m-.2-8.5c.7 1.4 1.4 2.9 1.9 4.4.4 1.5.5 3.2 0 4.7m0-8.8c1.5 2.6 2.1 5.7 1.6 8.6m2.4-.6c0-2.8-1-5.5-2.9-7.6m5.3 7.5c-.1-1.6-.2-3.3-1.1-4.6-.3-.4-.7-.8-1-1.2l-2.3-2.3m6 7.8c.2-2.4-1.3-4.9-3.6-5.7m6.8 5.7c-1.4-2.3-3.3-4.4-5.4-6.2m-32.5-9c5.2-6.9 14-10.2 22.6-11.5 3.7-.6 7.6-.8 11.3 0 3.8.8 7.4 2.6 10.9 4.4m-40 5.5c1.4 1.9 3.3 3.6 5.4 4.7"/><path class="st1" d="M265.3 238.3c-1.6-1.2-3.2-2.6-4.2-5 1 .2 1.8 1 2.5 1.7 1.5 1.3 3.1 2.4 4.9 3.2m-5.8-7.7c2.7 2.1 4.7 5.2 7.6 7m-5.4-7.7c3.3 1.7 6 4.5 7.5 7.9m-5.4-8.5c2.4.8 4.5 2.5 5.8 4.6.6 1 1.1 2.1 1.7 3.2m-5.7-9.5c2.7 2.1 5 4.8 6.7 7.9m-4.5-6.7c2.5 1.6 4.6 4 5.9 6.7m-3.6-8.8c2.5 2.5 4.7 5.3 6.6 8.3m-4.8-9.5c1.5 2 3.7 3.5 5 5.7.6 1 1 2.2 1.4 3.3m-2.9-8.6c2.3 2.6 4.4 5.3 6.3 8.3m-3.4-7.8c1 .7 2.1 1.5 2.9 2.4 1.4 1.7 2.1 3.8 2.8 5.9m-4-8.3c3.3 1.7 5.9 4.7 7.2 8.2m-4.3-8.7c1.9.8 3.3 2.4 4.3 4.2s1.6 3.8 2.1 5.8m-3.1-9.6c2.3 1.7 3.6 4.7 3.4 7.6m-1.1-6.5c1.4 1.3 2.2 3.4 1.9 5.3m1.8-.4c-.3-1.4-.9-2.8-1.7-4.7.8 0 1.6.1 2.3.4s1.4.8 1.8 1.5m-44.6 3.2c1.8-4.7 5.3-8.6 9.5-11.5 4.1-2.9 8.9-4.7 13.8-6m-21.4 14.8c1.2.1 2.4.1 3.6.2m-1.4-1.2h2.1m-1.4-1.3c1.1.1 2.2.1 3.3.2m-1.9-1.5c1.1.2 2.1.4 3.2.6"/><path class="st1" d="M265.4 225.6c-1.5 0-3-.2-3.4-1.7 1.5.5 3 .8 4.6.9m-3.4-1.6c1.7.3 3.5.3 5.3.1m-4.4-2.1c1.9.5 3.9.9 5.8.5m-3.5-1.3c1.5.4 3 .7 4.6.9m-3.1-1.5c1.5.3 3.1.8 4.1 1.8-.6-.5-1-1.1-1.5-1.7s-1.2-1-2-.9m4.3.5c-1.3-.9-2.7-1.6-4.1-2.2-.1.1-.2.3-.1.5m5.7.5c-1.3-.3-2.7-.5-4.1-.5m4.2-1.1c-1 .2-1.9.4-2.9.6m-18.3 16.9c-.7-4.4-1.4-9.1.3-13.3.5-1.2 1.2-2.4 1.9-3.5 1.7-2.7 3.4-5.5 5.8-7.6 3.2-2.9 7.6-4.4 11.9-4.1"/><path class="st1" d="M263.9 209c3-1.2 6.2-2.3 9.4-1.7 0 .1 0 .3-.1.4m-.4.4c-3.7.3-7.3 1.7-10.7 4.9 2.2-1.3 4.6-2.3 7-2.8h.1m-12 8.1c2.8-2.6 6.4-4.5 10.1-5.4m-10.7 7.5c2.6-2.2 5.7-3.8 8.9-4.8-.1 0-.1.1-.2.1m-10.2 8.1c1.6-1.5 3.3-2.9 5.2-3.9-.2 0-.3.1-.5.2m-6.3 6.6c1.1-1.2 2.4-2.2 3.9-2.9 0 .1-.1.3-.1.4m-4.1 4.5c.7-.6 1.5-1.1 2.2-1.7m-52.2 3.2c6.4-6.2 15.4-9.6 24.4-9.3 1.6.1 3.1.2 4.6.7s2.9 1.3 4.3 2.1c5.5 3.3 10.9 6.9 15 11.7m-2.6-1c-1.5.9-2.8 2.2-3.7 3.7"/><path class="st1" d="M244 236.4c.9-1.1 1.9-2.2 2.5-3.9-2 1.1-3.7 2.5-5.1 4.2m-1.3-1.1c1.2-1.5 2.8-2.8 3.7-4.8-1.7.9-3.2 2.3-4.3 3.9m2.2-4.8c-1.5 1.2-2.8 2.6-4 4.1m-2.4-.8c1.4-1.4 2.8-2.8 3-4.4-2.1.8-4 2.3-5.3 4.2m-.9-1.3c1.4-1.6 2.9-3 3.2-4.6-1.8 1.4-3.5 2.9-5 4.6m4.4-5.4c-2 1-3.9 2.3-5.6 3.7m3.8-4.8c-1.9 1.4-3.8 2.8-5.7 4.3m3.2-5.1c-2.3 1.5-4.3 3.3-6.1 5.3m4.1-5.5c-2.2 1.6-4.1 3.5-5.7 5.7m3.1-6.1c-2.1 1.6-4.1 3.4-5.9 5.4m4.3-6.1c-3.2 1.8-6.2 4.1-7.6 7.5m3.3-6.5c-3.2 1.2-5.7 3.8-6.7 7.1m2.9-6.6c-2 1.9-4.2 4.1-4.6 6.9m1.4-5.6c-.7 1-1.7 1.7-2.5 2.6s-1.4 2.1-1 3.3m1-5.4c-1.5 1.6-2.6 3.6-3 5.7m.3-4.3c-1.2 1.7-2.1 3.7-2.4 5.8m.9-4.7c-.8 1.3-1.5 2.6-2.1 3.9-.1.1 0 .4.1.3m.1-4.3c-.6 1.3-1.2 2.6-1.7 3.8m27.2-31.9c4.1.7 7.7 3.3 10.7 6.2 6.7 6.5 11.5 15.5 11.2 24.8m.5-8.2c-.6-.6-1.1-1.2-1.7-1.8m-10.9-2.6c-1.5-.3-2.9-.5-4.4-.5s-3 .4-4.2 1.3m3.7-.1c-1.2.3-2.3.6-3.5.9m5.7-.5c-1.3.1-2.5.6-3.5 1.3m1.5.6c1.4-.9 3-1.5 6.1-.8-1.4.3-2.7.8-3.9 1.5m1 1c1.2-.6 2.4-1 4.5.3-.7.4-1.5.8-2.2 1.2l2.8-.1m-.2 2.4c2.3.5 4.5 1.3 7.1 2.3-.8-1.1-1.8-2.1-3-2.9-.5-.4-1.3-.7-1.9-.4"/><path class="st1" d="M250.3 228.1c-1.7-1.5-3.5-2.8-5.3-4.1-.7-.5-1.6-1-2.4-.7m6.5 2.9c-1-1.2-2-2.4-3.3-3.3-1.2-.9-2.8-1.5-4.3-1.4m6.7 1.6c-1.8-1.7-4.1-2.9-6.5-3.5m5.7 1.2c-1.6-2.1-4.1-3.6-6.7-4m5 1.4c-2-1.6-4.5-2.5-7-2.6m6.2.7c-2.4-1.7-5.2-3.5-8.1-3.1m-2.1-1.1c2.9-.7 5.8.6 8.4.8-2.2-2-5.2-3.1-8.1-3.1-.6 0-1.4.2-1.5.8"/><path class="st1" d="M240.7 210.8c-2.9-1.4-5.9-2.9-9.1-2.9-.3 0-.8.3-.6.5m7.3-.2c-2.6-1-5.3-1.7-8-2.2-.3-.1-.7-.1-.9.2m5.8-.7c-2.8-1-5.7-2-8.6-1.5m3.4-2.9c-1.9-.5-3.9-.8-5.9-1m8 2.3c-1.3-.2-2.6-.4-4-.6m21.9 41c.7 0 1.5.1 2 .6.7.6.8 1.8 1.7 2.2m-.8.3c-1.6 1.4-3.2 2.7-4.8 4.1m-.9-1.4c-.1 0-.3-.1-.4-.1 1.6-1.3 3.1-2.7 3.6-4.9-1.5.8-2.9 1.8-4.1 3.1m28.8-10.5c-.1 1-.1 2-.2 3m.9-2.9c1.1.8 2.2 1.4 3.5 1.8m-.6-77c-2.6.2-4.4 2.4-6 4.4-2.9 3.7-5.9 7.5-8 11.8s-3.5 9-3.1 13.7"/><path class="st1" d="M265.4 188.4c-.5-3.3-.3-6.7 1.5-11.6-.5 2.6-.3 5.4.4 7.9m2.6-11.3c-.5 3.1-.8 6.3-.8 9.5 0 .1 0 .3.1.3s.2-.2.1-.2m2.9-12.5c-1.1 3.9-1.5 8-1.4 12l.3-.6m3.3-14c-1.2 3.2-1.5 6.7-.9 10.1m2.2-12.6c-.6 3.6-.8 7.2-.7 10.9m3.8-12.8c-1.1 3.8-1.6 7.8-1.3 11.8 0 .2 0 .5.2.6s.5-.1.4-.3m10-19.7c5.6-3.1 13.1-1.9 17.5 2.7 2.7 2.9 4.2 6.8 5.5 10.5 1.1 3 2.2 6.1 2.8 9.2.7 3.8.7 7.8 2.5 11.2"/><path class="st1" d="M312.4 180.5c.2 1.6.2 3.1 0 4.7-.2.1-.4.1-.5.2m.3-7.6c.2 1.8-.3 3.7-1.3 5.3m.5-8.2c-.3 1.5-.7 2.9-1 4.4-.2.7-.5 1.5-1.2 1.5m.3-9.3c.3 3-.2 6.1-1.4 8.8m-1.8-2.1c2.1-3.5 2.5-7.9-.3-11.6 0 3.2-.5 6.4-1.5 9.5m-.5-11c0 3.2-.3 6.5-.7 9.7m-1.8-11.5c.5 3.4 1.1 7 .1 10.3m-2.1-11.3c.9 3 1 6.2.5 9.2m-1.3-.4c0-3.7-.8-7.3-3-10.6-.2 2.4 0 4.9.5 7.2m-1.6.4c-.2-2.4-.3-4.8-2.1-7.9-.2 2.2-.1 4.4.4 6.5"/><path class="st1" d="M296.4 161.6c-2.2-1.3-4.3-2.6-4.9-5.6 2.5 1.6 4.9 3.4 7.1 5.4m-4.5-5.7c3.2 1.5 6 3.9 8 6.8"/><path class="st1" d="M298 157.2c.3-.3.8-.2 1.2.1.3.3.5.6.7 1 1 1.9 1.9 3.9 2.9 5.8m-2-7.1c1.3 2.3 2.7 4.6 4 6.9.3.5.5 1 .3 1.5h-.6m-.6-7.6c1.2 1 1.7 2.7 2 4.3.6 2.6 1.3 5.3 1.9 7.9m-.9-5.6c1.9 3.2 3.5 6.6 4.7 10.1m-25-28.3c-.2-2.5-.8-5.1-2.3-7.1s-3.9-3.5-6.5-3.4c-3.4.2-6.1 3-8 5.9-6.5 9.5-9.4 21.4-8 32.8m2.4-11.4c.4 2.1.7 4.1.9 6.2m.3-11.5c-.7 3.7-.4 7.6 1 11.1"/><path class="st1" d="M268.1 166.3c-.5-.2-.6-.8-.6-1.3-.5-4.4-.3-8.8 2.3-15.3-1 3.7-.9 7.7.3 11.3m1.6-14.5c-.3 3.5-.4 7-.1 10.5m2.3-13.5c-.5 4.3-.8 8.7-.9 13m3.3-.8c0-4.4.2-8.8 2.6-12.1-.5 3.7-.7 7.4-.7 11m1.9-1.8c.3-3.4.5-6.8 2.4-10.8-.2 2.8-.3 5.6-.5 8.4m-14.8-5.7c-8.7-.5-17.8 1.2-24.9 6.4-7.1 5.2-11.7 14-10.5 22.7m4.7-12.5c-1.2 4-.7 8.5 1.5 12.1"/><path class="st1" d="M239.2 171c-.7.2-1.1-.9-1.1-1.6 0-2.8.5-5.7 2.8-10-.7 3-.7 6.1 0 9.1m1.5-11.5c-.1 2.9.1 5.8.7 8.6m2.5-11.1c-.5 3.2-1 6.3-1.5 9.5-.2 1.3-.3 2.9.6 3.8m4-13.5c-1.4 3.7-2.3 7.5-2.7 11.4m7.7-14.9c-1.4 4.4-2.6 8.8-3.7 13.3m7.4-15.2c-1.3 3.4-2.5 6.8-3.7 10.3-.2.5-.3 1.1.1 1.5m3.5-7.9c.9-1.6 1.7-3.2 2.6-4.8-1.7 3.4-2.5 7.3-2.4 11.2m4.8-10.8c-1.7 3.3-2.8 7-3.1 10.8m5.9-11.7c-1.3 2.6-2.4 5.2-3.2 7.9m-42.9-9.3c4.1-8.7 14.2-13.5 23.8-13.8 9.6-.3 19 3.1 26.8 7.3-2.3 1.5-4.5 3.3-6.5 5.2m2.6-5.6c-2.6 1.3-5.1 2.9-7.2 4.9m3.3-4.6c-2.7 1.5-5.1 3.5-6.9 5.9m3-7.1c-2.2 1.6-4.2 3.6-5.9 5.8"/><path class="st1" d="M248.2 145.8c1.8-2.1 3.6-4.2 3.4-7-2.8 1.4-5.2 3.7-6.8 6.4m-4-.6c2.6-2.7 5.3-5.2 5.6-8.5-1.7-.4-3.2 1-4.3 2.3-1.8 2.1-3.7 4.2-5.5 6.2m4.6-8.4c-3.1 2.4-5.9 5.3-8.3 8.5m3-7.2c-2.6 2.5-5.3 5-7.9 7.6m4.6-8.4c-2.4 2.6-4.6 5.3-6.6 8.2m3-7c-3.1 2.3-5.8 5.2-8.1 8.3m110.6 23.2c.2-3.4-1.2-6.8-2.7-9.9-2.1-4.7-4.4-9.4-7.5-13.5s-7.2-7.6-12.1-9.3c-8.7-2.9-19.2 1.4-23.4 9.6-.3.6-.5 1.4-.1 1.8m3.6-1.3c.3 2.4.7 4.9 1 7.3m2.9-8.6c.4 2.1.9 4.1 1.3 6.2m2.3-10c.1 3.7.5 7.3 1.2 10.9m1.3-11.9c-.4 4.6-.1 9.3.9 13.9m2.2-13.4c-.2 5.1-.2 10.2.1 15.4"/><path class="st1" d="M305.7 157c.2-4.9.5-9.9 1.6-14.1-.2 5.3-.1 10.6.3 15.9m1.9-13.4c-.6 5.2-.7 10.5-.2 15.8m2.8-17.5c-.5 5.6-.8 11.2-.8 16.8m2-.3c.2-4.8.8-9.5 3.5-13-.9 4.9-1.4 9.8-1.3 14.8m1.5-13.2c.2 3.8.3 7.6.5 11.4 0 .8.1 1.6.6 2.3m2.4-10.7c-.7 4.2-1 8.5-1.1 12.8m2.4 1c-.2-4 .2-8.1 2.4-11.1-.2 3.9-.3 7.8-.5 11.7m2.6-7.8c-.3 3.1-.5 6.2-.8 9.4m2-7.5c0 2.8 0 5.7.1 8.5m1.9-5c-.2 2.2-.2 4.5-.1 6.8m-4.7-18.9c4.3-.7 8.6 1.2 11.8 4.1s5.5 6.6 7.8 10.2"/><path class="st1" d="M340.7 167c-.1-2.2-.6-4.3-3.8-7.8.7 2.7 1.3 5.5 1.6 8.3m-2.4-1.2c-.5-2.4-.9-4.8-3.1-9.4.9 2.6 1.4 5.3 1.4 8.1m-2-1.3c-.8-3.1-1.7-6.2-4.2-9.8 1 2.7 2.1 5.4 3.1 8m-44.9-21.4c7.1-8.1 18.4-11.9 29.2-11.3s21.1 5.1 28.6 10.7c2 1 3.2 3.3 3 5.5"/><path class="st1" d="M343.2 146.5c-.6-2.1-1.3-4.3-3.2-5.9 1.1-.4 2.3.3 2.9 1.4.6 1 .6 2.2.6 3.4m-4.5.9c-1-2.4-1.9-4.8-4.1-7.1 1 2 1.9 4 2.7 6.1.1.4.2.9-.2 1m-6-7.2c1.6 2.5 3 5 4.3 7.7m-8.2-8.9c1.1 2.3 2.1 4.6 3.2 6.8.3.6.5 1.3 0 1.7m-8.9-9.9c1.6 3.6 3.6 6.9 5.9 10.1M317.3 136c2.7 2.2 4.8 5.1 6.1 8.3m-10.9-7.8c1.7 1.5 3.3 3.1 4.9 4.9m-31.2-2.8c6.7-16.8 21.9-29.9 39.5-34m-9.3 4.4c3.6-.1 7.1 1 10 3.1m-12 .4c3.6-.3 7.2.2 10.5 1.6"/><path class="st1" d="M309.3 114.6c2.4-.2 4.8-.4 7.2-.4 1.1 0 2.5.2 2.9 1.2m-.4 4.1c-3.8-1.8-7.9-2.8-13.4-1.7 4.1.3 8 2.4 10.5 5.6m-12.9-2.2c3.7 1 7.3 2.3 10.8 3.9m-15.8-1.2c3.6.7 7.1 1.7 10.5 3m-13.6-.4c2.8.2 5.6.5 8.4.7m-11.3 2.7c2.8.3 5.5.9 8.2 1.7m-8.2-5.3c-.7-5-2.3-9.9-3.9-14.8-.9-2.6-1.7-5.2-3.5-7.3-2.2-2.5-5.5-3.9-7-6.9 0 .3-.1.5-.1.8m-1.4 3.2c2.1 1.4 4.1 2.8 6.2 4.3m-5.1-1.8c1.5 1.6 3 3 4.7 4.3m-5.9-1.6c3.1.9 6.2 1.9 9.3 2.8m-9.8.8c3.1.3 6.2 1.4 8.8 3.1m-4.7.2c3.4.2 6.7 1.3 9.4 3.3m-7.5 2.3c2.8.2 5.5 1.3 7.7 3m-7.9.7c2.9.7 5.8 1.9 8.4 3.5m-5.8 3.1c2.1.1 4.1.7 6 1.6 0 0-8-7.6-8.5-7.6-2.8-1.6-5.2-2.3-8.4-2.1m-15.3 8.3c-1.1.9-2.1 1.9-3.2 2.8"/><path class="st1" d="M285.5 139.5c-2.5-5.8-5.8-11.2-10-15.9-4.3-4.9-9.8-9.2-16.3-9.5-3.9-.2-7.8 1.2-11.5 2.5-4.5 1.6-9 3.3-12.8 6"/><path class="st1" d="M240.1 125.6c.7-1.9 1.5-3.8 2.5-5.6.5-1 1.4-2.1 2.5-1.8m-2.8 6.6c1.7-2.2 3.5-4.4 5.2-6.6m-2.2 6.5c2.5-2.5 5-5 7.7-7.3m-5.3 6.4c2.4-1.8 4.9-3.5 7.4-5 1.1-.6 2.4-1.3 3.5-.8m-8 7.2c2.7-1.9 5.4-3.7 8.3-5.3.6-.3 1.2-.7 1.9-.7.7-.1 1.4.2 1.8.8m-8 6c4-2.2 8.3-3.6 12.8-4.2m-9.6 5.8c3.4-2.8 7.7-4.4 12.1-4.6m-9.7 6.2c3.7-2.2 8.2-3.2 12.6-2.6m-10 4.8c2.1-1 4.3-2 6.6-2.6 2.3-.6 4.7-.7 7 0m1.3 1.6c-.5-.8-1.8-.7-2.7-.5-3.1.7-6.2 1.5-7.4 4.1 3.4-1.7 7.4-2.4 11.2-1.8m-9 3.2c3.3-.5 6.6-1 9.9-1.4m-19.3.2c0-1.2.5-2.6 2.2-3.1-.5 1.3-.5 2.8-.1 4.2m2.5-1.4c.2.8.3 1.6.5 2.4"/><path class="st2" d="M288.2 147.3c-10.7 59.2-10.2 112.7 2.7 171.5m-38.6-77.2c-3.1 22.9-3.4 46.2-1 69.2m-82.9-114.6c-2.7 38.6 19.7 93.9 34.9 129.5"/><path class="st0" d="M1941 370.8c78.1-35.7 159.8-62.7 241.3-89.6 28.6-9.5 57.4-19 87.2-23.6 111.7-17.3 227 187.9 337.4 163.5 26.6-5.9 52.4-16.2 79.6-18.1 29-2.1 71.5-12.7 97.9-24.9 107.3-49.6 232-158.4 232-158.4"/><path class="st0" d="M2325.5 445.9c64.5 23.6 127.6 50.2 194.2 41.1 54.9-7.4 104.1-38.9 158.7-48.7 27.8-5 56.5-4.3 84-11 90.2-22.1 164.8-117.9 257.2-108.8M1460.7 435.6c66.2-43.6 136.4-81.2 209.4-112.1 13-5.5 26.3-10.8 40.3-11.9 19.7-1.5 38.9 5.6 57.4 12.5 78 29.2 156.2 58 234.6 86.4 23.6 8.5 47.7 17.1 72.7 17.9 30.6 1 60.3-9.7 90.8-13 33.8-3.7 69.8 6.7 103.5 11.7"/><path class="st0" d="M1533.8 446.9c38.8-23.8 88.8-19.4 132.2-5.5 43.3 13.9 83.9 36.3 128.1 47 67.4 16.3 138.1 4.4 206.4-7.5 32.3-5.6 64.5-11.3 96.8-16.9 11.8-2.1 23.7-4.2 34.6-9.1 24.2-11.1 46.8-36.6 72-28m137.2 89.4c23.4-14.5 40.7-8.6 67.1-.7s51.4 20.7 78.4 25.9c71.9 13.9 146.3-27.5 217.8-11.9 12.5 2.7 24.7 7.2 37.5 7.6 18 .6 35.2-6.8 52.7-11.1 63.3-15.2 131.5 11.6 194.2-6.1M1930.5 295.8c7-1 14.5 3.6 16.7 10.4 5.9-5.2 15.4-5.9 22-1.5m-97.2-.2c13.3-2.7 27.7 7.9 29 21.4 6.3-5.3 15.6-6.9 23.4-4"/><path class="st0" d="M2019.6 681.2c90.7-2.9 181.4-5.8 272.1-8.6.6 0 1.1 0 1.7-.1m-604.6-85.7c90.7-2.9 505.2-8.7 505.8-8.7m391.9 86.8c100.3-2.3 316.5-15.7 416.8-18m-371.4 31.4c55.7 11.5 110.8 25.6 165.2 42.4M2116 697c90.8 23 179.6 53.9 265.2 92.1m-171.6-101.9c49.7 12.4 98.1 29.6 144.5 51.3 11.9 5.6 23.7 11.5 36.3 15.1 5.8 1.6 4 2.3 10 2.9m-395.5-86.9c44.3-2.5 65.1-.8 112.7-4.5m-2108 8.5c44.3-2.5 42-.8 89.6-4.5m2261.5-62.2c71.9-5.1 143.8-10.3 215.7-15.4m42.4 3.5c60.7 12.4 120.6 28.5 179.3 48.2m-138.1-51c56.8-7.8 114.2-11.2 171.6-10.3m-999.5 2c85.1 25.6 171.6 51.9 256.6 77.5m182.8-110c-3.7-.7-7.3-1.6-10.9-2.5-16-4.1-19.3-25.7-5.2-34.3.7-.8.8-2 .1-2.9-5.6-7.8-26.4 3.6-30.2-6.9-1.1-3.1 0-6.5 2.5-8.6 7.3-6.1 16.9-2.6 24.5-7.6 2.1-1.4 3.7-3.6 4.2-6.1 1.1-6.5-5.7-8.2-7.6-12.9-2.5-6.1 4.4-11.8 10.7-13.7 6.2-1.9 13.8-3.4 16.4-9.4-1.5-6-10.6-8.5-9-15.3.6-2.8 2.9-5 5.7-5.9 11.9-3.8 25.1-7.9 37.2-4 12.7 4.1 22.4 20.5 11.1 31.6-2.1 2.1-3.3 4.9-3.2 7.9.3 15.5 21.6 4.9 28.7 14.1 4.7 6.1-1.2 14.8-7.5 19.3-1.8 1.3-3.6 2.6-5.4 4-6.3 5-3.5 15.1 4.4 16.5h.1c5 .9 10.5 5.3 7.4 10.4-.8 1.3-2 2.3-3.3 3l-44.9 22.4c-3.1 1.5-6.5 3.4-7.6 6.7-1 2.9.1 6 .9 8.9m-352.7-55.7c19.5-2.1 38.4-11.5 57.9-9.1 17.3 2.1 32.3 13.3 49.5 16.7 19.8 3.9 39.9-2.9 60-4.4 35.9-2.8 72.1 11.2 107.4 4.6m62.1 21.2c1.6 18.2-3.1 48.9-7.4 66.6m21.2-64.6c-6.3 21.1-7.9 43.5-4.6 65.2"/><path class="st0" d="M2275.6 467.7c-2.7.9-3.3 4.7-2 7.3 1.3 2.5 3.7 4.2 5.9 6.1 2.2 1.8 4.2 4.3 4.1 7.1-.1 3.6-3.6 6.1-6.3 8.5-5.6 4.8-9.5 12.4-7.6 19.6 1.3 5 5.2 8.9 9.3 12 6.4 4.8 13.9 8.2 21.8 9.9"/><path class="st1" d="M2605.1 317.8c-5.9-.9-11.7 2.7-15.1 7.6-3.3 4.9-4.6 10.9-5.5 16.7-.5 3.1-.8 6.2-.4 9.3s1.6 6.2 3.9 8.2c.1-2.6-.1-5.1-.6-7.7 0 .4.1.8.1 1.3m-1.2-7c1.4 2.5 2.7 5 3.7 7.6m-2.7-10.8c1.7 2.7 2.7 5.7 3.1 8.8m-2.3-12.4c2 2.8 3.7 6 4.8 9.3m-3.5-12.8c1.1 2.5 2.2 4.9 3.3 7.4m-2.3-10.6c1.8 2.6 3.2 5.5 3.9 8.6"/><path class="st1" d="M2595.5 338.5c-1-3.3-2.2-6.4-3-11.6 2.1 2.5 3.6 5.6 4.2 8.8m1.8-1.9c-1.2-3.1-2.4-6.1-1.2-11.8.9 3.2 1.8 6.4 2.7 9.7m-.4-10.4c.4 2.9.8 5.9 1.1 8.8m6.6-11.1c2.9-1 6.2-.2 8.8 1.5s4.5 4.2 6.1 6.8c2.8 4.6 4.9 9.9 4 15.2m-2.4-8.9c1.2 2.7 1.3 5.9.4 8.7m-2.2-12.4c.6 2.1.7 4.2.5 6.4"/><path class="st1" d="M2620.7 333.6c.4-2.6.2-5.2-2.3-9.3.9 2.7.8 5.7-.1 8.4m-.8-1.9c.3-2.8-.1-5.7-3.2-10.1 1.2 2.6 1.5 5.6.8 8.3m-1.8-.2c.8-2.9.7-6-2.4-9.1 1.8 2.4 1.9 5.8.4 8.3m-1.2-.4c.5-2.6.3-5.3-2.2-7.4.3 2.5.1 5.1-.6 7.6m-19.4-1c-3.3.6-6.1 2.9-8 5.7s-3 6-4.1 9.2"/><path class="st1" d="M2578.8 340.8c-.2-1.5-.3-3.1 1-6.5v4.3m1.9-1.1c-.3-2-.5-3.9.9-7.5.3 1.9.6 3.7.9 5.6m1.9-7.4v5.2m9.1-13.7c-6.1-.4-12.4-.2-18.3 1.5-11.6 3.4-21.3 13.9-21.8 25.9"/><path class="st1" d="M2558.1 336.5c-.7 1.1-.9 2.4-1.1 3.7-.3 1.7-.5 3.4-.6 5.2m2.2-9.8c-.2 2.1-.4 4.2-.4 6.3m4.3-10.8c-1.3 2.2-1.2 4.9-2 7.3-.4 1.3-1.1 2.5-2 3.6m5.4-12c-.7 3.5-1.2 7-1.3 10.6m6.8-14.5c-1.9 1-2.9 3.3-3.4 5.4s-.7 4.4-1.8 6.3m6.9-12.2c-2 3.2-3.1 7-3.1 10.8m7.5-12.5c-2.4 1.8-3.8 4.6-4.9 7.4-.7 1.8-1.2 3.7-.9 5.6m8.4-14.1c-3.1 2.9-5.3 6.8-6.2 10.9m9.4-11.1c-2.5 2.3-4.4 5.3-5.3 8.6m7.7-8.8c-3 2-5.2 5.2-6.1 8.6m8.7-9.3c-2.6 1.8-4.6 4.5-5.7 7.4m7-7.3c-1 1.2-2 2.4-2.9 3.6m-38-11.9c3.5-3.2 8.6-4.3 13.3-3.9 3.4.3 6.7 1.2 10.1 1.1 4.1-.1 8-1.7 11.9-2.7s8.4-1.5 11.9.5c2.1 1.1 3.7 3 5.2 4.8m-26-2.9c-4.3 2.3-7.9 6-9.9 10.4m5.3-9.2c-2.7 1.8-5 4.1-6.9 6.8m4.4-7.2c-2.8 2-5.4 4.3-7.7 6.8"/><path class="st1" d="M2556.7 317c1.5-2.3 3.5-4.2 4.8-6.1-3.2 1.8-5.9 4.3-8.1 7.2m4.6-6.8c-2.1 1.5-3.9 3.3-5.4 5.4m3.9-5.5c-2.3 1.6-4.7 3.3-6.3 5.7m4.6-5.9c-2 1.4-3.8 3-5.5 4.8m25.7-4.9c-.8.6-1.7 1.3-2.4 2-.4.4-.7.8-1.1 1.2-.5.6-1.1 1.3-1.6 2-.9 1.2-1.6 2.4-2.3 3.7m12.6-10.3c-3.1 2.2-5.6 5.3-7.2 8.8m11-9.4c-3.5 2.3-6.4 5.7-8.1 9.5m10.8-9.1c-2.5 1.6-4.6 3.7-6.1 6.2m8.7-5c-1.7 1.6-3.2 3.5-4.4 5.5m7.7-5c-2.4 1.8-4.7 3.9-6.7 6.1m8.6-4.7c-1 1.3-2.1 2.6-3.2 3.8m-23.5-7c3.5-3.2 8-5.1 12.7-5.4s9.4 1 13.3 3.6m-15.9-2.2c-2.2.8-4.2 2.2-5.8 4m8.6-3.8c-1.8.4-3.5 1.6-4.4 3.2m7-3.6c-1.1.8-2.2 1.7-3.3 2.7m21.3 11.4c-.3 3.2-.3 6.4 0 9.6m1.9-9.4c-.5 2.6-1 5.4-.2 8m1.2-7c.7 1 1.4 2.1 2 3.1m-3.5-7.9c2.6-3 5.3-6 8.9-7.7 4.3-2 9.5-1.7 13.5.7 1.7 1.1 3.2 2.5 4.7 3.9 1.4 1.4 2.7 2.9 3.7 4.6.8 1.3 1.3 2.8 1.8 4.2 1 2.9 2.1 5.8 2.7 8.8 1 4.8 1 9.7 1 14.6"/><path class="st1" d="M2653.9 339.6c.6-1.2.5-2.6.3-3.9-.5-4-1.4-8.2-4.1-11.2-.9-1-2-1.8-3.1-2.6-2.1-1.5-4.3-3-6.7-4.1s-5-1.7-7.6-1.5m5 21.7c-.6 2.1-1.6 4-2.8 5.8m.6-8c-.5 1.2-.9 2.3-1.4 3.5-.2.5-.4 1-.5 1.5-.1.3-.1.7-.1 1-.2.7-.6 1.3-.6 2.1m2.8-14.6c-.3 4.4-2.1 8.7-5 12m3.2-16.3c-.5 4.1-1.2 8.1-2.1 12.1m1.3-14.2c-.6 1.7-1.1 3.4-1.7 5.1-.8 2.4-1.6 4.7-2.7 7m1.7-15.4c0 2 .4 3.9.1 5.9-.1 1-.4 2-.7 3l-1.5 4.8m-1-16c.6 4.3.4 8.8-.6 13.1m-1.5-14.4c.3 2.3.6 4.6.3 6.9-.3 2.1-1.1 4.1-.9 6.1m-2.8-15.6c.6 2.2.8 4.6.6 6.8-.1.8-.3 1.7-.3 2.5s.2 1.7.7 2.4m-6.4-18.3c2.2 1.4 3.2 4.1 3.4 6.7s-.1 5.2.2 7.8m-6.2-13.7c1.7 1 2.5 3 3 5 .6 2.3 1 4.7 1.2 7.1m-6.3-10.8c1.4.7 2.2 2.2 2.9 3.7.3.6.5 1.2.7 1.8.5 1.5.7 3.1 1.3 4.6m-7-8.5c1.1.3 1.9 1.4 2.4 2.5 1.1 2 2.1 4.2 2.8 6.4m-7.7-7.4c.6.6 1.4 1.1 1.9 1.8.9 1.2 1 3 2.1 4.1m-5.9-3.8c1.3 1 2.4 2.2 3.2 3.7m29.7 8.1c1.1 1.4 2.3 2.8 3.2 4.4s1.6 3.3 1.8 5.1"/><path class="st1" d="M2637 318.8c2.5 1.8 4.1 4.6 5.1 7.5s1.4 6 1.6 9"/><path class="st1" d="M2638.8 320.1c1.9 2.2 3.7 4.5 5 7.1s2.1 5.5 2 8.3"/><path class="st1" d="M2647.5 335.5c-.3-3.6-1.2-7.1-3-10.2-1.5-2.4-3.5-4.5-5.6-6.5m5.8 5.6c2.2 1.2 3.5 3.5 4.6 5.7 1.3 2.7 2.4 5.6 2.6 8.6"/><path class="st1" d="M2645.9 324c3.6 2.4 5.5 6.5 7.2 10.5.6 1.4 1.2 2.8 1 4.3m-50.6-24.7c1.8-3.4 1-7.7-1.1-10.9-2.2-3.5-5.7-6.2-9.6-7.6-3.9-1.5-8.2-1.8-12.3-1.2-1.4.2-2.7.5-3.9 1-1.3.6-2.6 1.4-3.7 2.3-3.5 2.5-7 5.3-9.5 8.9m6.9-5.6c-2.5 2.1-4.4 5.1-5.2 8.3"/><path class="st1" d="M2577.1 297.4c-2.5 1.5-4.7 3.6-6.4 6.1-.7 1-1.2 2.1-1.2 3.3m11.4-10c-2.9 1.1-5.5 3.1-7.4 5.6-.6.8-1.1 1.6-1.2 2.5m12.7-8.8c-3.1 1.2-5.9 3.2-8 5.7-.3.4-.7.9-.6 1.4m12.2-6.3c-3.3.9-6.4 2.6-9 4.9-.5.5-1 1-1.2 1.6m15.5-4.6c-4.5-.5-9.1 1.1-12.4 4.2m15.3-2.9c-2.1 0-4.3.1-6.4.6s-4.1 1.6-5.5 3.2m14.7-2.1c-3.8-1-8.1-.2-11.2 2.1m3.7 1.6c1-1.3 2.5-2 4.1-2.2s3.2 0 4.4.5c-2.7.3-5.2 1.7-6.8 3.8m1.6 1c.6-1.2 1.8-2 3-2.5s2.6-.6 4-.1c-2.3.4-4.5 1.7-6.1 3.5m6.1-2.5c-1.8 1-3.4 2.4-4.8 4m1.4 1c1-1.1 2-2.2 3.7-2-.7 1-1.4 2.1-2.1 3.1m-24.4-18.4c-5.4-2.6-11.9-2.5-17.6-.6-5.7 1.9-10.7 5.5-15.1 9.6m3.5-1.1c-.2 1.6-.3 3.2-.5 4.8m5.1-8.4c-1.9 2.5-3.4 5.3-4.3 8.3m7.8-9.7c-2.1 2.2-3.7 4.9-4.7 7.9m8.8-9.4c-2.1 2.2-3.8 4.8-4.8 7.6m7.2-7.8c-2.2 2-3.9 4.4-5.2 7.1m7.8-7.5c-3.6 1.4-6.3 4.6-7.1 8.4"/><path class="st1" d="M2561.1 302.1c-.2 0-.4-.3-.4-.6 0-.2.1-.5.3-.7 1.5-2.4 3.7-4.4 7.5-5.3-1.6 1-3 2.2-4.3 3.5-.6.6-1.1 1.4-.7 2.2m7.9-5.7c-2.9 1.6-5.5 3.8-7.4 6.4m-13.3-20.9c4.9-3.9 11.1-6.4 17.4-6.6 6.3-.2 12.7 2 17.3 6.3 1.5 1.4 2.7 3 4 4.7 2.4 3.1 4.8 6.1 6.6 9.6"/><path class="st1" d="M2557.4 279.6c-1.4.6-2.7 1.5-3.8 2.6-.4.4-.8 1-.6 1.5m9.2-5.9c-2.8 1.2-5.2 3.3-6.8 6m9.8-6.5c-1.9.2-3.4 1.5-4.6 3-1.1 1.4-2 3.1-3.7 3.7m11.9-7.1c-3.4 1-6.4 3.4-8.2 6.4m11.6-6.2c-3.8.6-7.3 2.8-9.5 5.9m11.5-4.9c-1.2.1-2.5.2-3.6.7-.5.3-1 .6-1.5 1-1.9 1.3-3.9 2.7-5 4.8m12.7-5.8c-3.8.6-6.8 3.4-9.6 6-.6.5-1.2 1.3-1 2m12.1-6.7c-2 .4-4.1 1-5.8 2.2-1.7 1.1-3.2 2.8-3.9 4.7m2.6.4c2.8-2.7 5.8-5.6 10.3-5.3-1.4.4-2.8.8-4.1 1.6-1.2.8-2.3 1.9-2.8 3.3m6.5-4.2l-6.6 5.4m9.5-4.4c-3.6 1.1-6.9 3.4-9.1 6.5m7.3-5.6l-5.1 5.4m-1.1 2.5c0-.2.1-.4.2-.6 2-2.9 5.1-5 8.8-5.9-1.7 1.8-3.7 3.4-5.8 4.8m6.9-3.7c-2.1 2-4.2 4-6.5 5.8m7.8-3.9c-1.4 1-2.8 2-4.2 2.9m21.3 15.6c3.7-5.8 10.3-9 16.7-11.5 3.1-1.2 6.2-2.3 9.5-2.8 5.4-.8 11 .2 16.4 1.1 3 .5 6.1 1.1 9.1 1.6m-51.2 13.5c.6.1 1.2.1 1.7.2m-.7-1.8c.5.3 1.1.7 1.6 1"/><path class="st1" d="M2607.9 307.9c-.5-.5-1-1.1-.3-2.5.7.6 1.7 1 2.7.9m-.9-2.1c1.2-.2 2.4.5 3 1.5m-1.5-2.3c1.1-.3 2.2-.5 3.3-.6 1 1 2.1 1.9 3.4 2.5m-4.7-3.5c1.3 0 2.5.2 3.7.5.2 1 1.3 1.4 2.3 1.6m6.2 2.4c-1.5-.2-2.4-1.6-3.5-2.7-1.3-1.3-3-2.1-4.6-3.1 3.9.4 7.4 2.7 10.7 4.8.8.5 1.6 1 2.5 1.2 1.4.4 2.9.1 4.3.2m-17.2-6.9c2.5-.3 5.1-.4 7.3.8 1 .5 1.8 1.2 2.7 1.8 2.1 1.3 4.6 1.8 7.1 2.2m-13.7-6c3.2-.1 6.5 1 9.1 3m-2-3.1c2 .3 4 .9 5.8 1.8 1.1.6 2.2 1.3 3.1 2.2.7.7 1.3 1.4 2.2 1.8m-8.7-6.9c4.9.7 9.5 3.4 12.6 7.3"/><path class="st1" d="M2633.1 296.4c2.1.4 4.4.8 6.1 2.2 1.2.9 2 2.2 2.8 3.5.4.7.9 1.4 1.3 2 .3-1.8-.1-3.7-1.2-5.2-1-1.5-2.6-2.6-4.3-3.3m4.8 3.7c1.3.5 2.5 1.5 3.3 2.7.5.8.9 1.7 1.8 2.1-.2-2-.5-4.2-1.9-5.6-1.1-1-2.7-1.4-3.8-2.4.8.3 1.7.6 2.5.9 1.2.4 2.4.9 3.5 1.5 2 1.1 3.7 2.7 4.8 4.6-1.9-2.9-3.9-5.9-7.1-7.2 3.6 1.1 6.8 3 10 4.9-1.7-2-3.6-3.8-5.6-5.4m-55.4-2.6c-.8-10.8 2.4-21.8 8.7-30.6 0 .5.1.9.1 1.4"/><path class="st1" d="M2600.3 267.5c.8-2.3 2.2-4.3 3.8-6-1.2 3.7-4.2 6.8-4.8 10.6 1.2-2.3 2.7-4.8 5.2-5.5-2.5 3.2-4.6 6.6-6.5 10.2 1.5-2 3.5-4.1 6.1-4.3h.1m-6.1 5.7c1.4-1.4 2.8-2.9 4.8-3.3m-6.9 7.5c1-1.2 2.1-2.5 3.4-3.4s2.9-1.6 4.5-1.6c-1.8 1.2-3.5 2.5-5.1 3.9-1 .9-1.9 1.8-2.3 3 .7-1.2 1.9-2.1 3.2-2.5s2.7-.5 4.1-.4c-.8.2-1.4.7-2.1 1.2-1.9 1.6-3.8 3.3-4.6 5.6.8-.9 1.7-1.7 2.7-2.3 1.1-.5 2.3-.8 3.5-.4-2.4 1.2-4.3 3.3-6.1 5.3-.3.4-.7.9-.4 1.4.9-1.1 1.8-2.2 2.9-3.1 1.1-.9 2.5-1.4 3.7-1.3-1.4.9-2.7 2-3.8 3.3-.6.7-1.1 1.6-.7 2.4 1.2-1.6 2.7-2.9 4.5-3.8-1.8 1.2-2.6 3.4-3.6 5.3-.5 1-1.2 2.2-.9 3.3m5.3-9.3c.9-1.1 2.2-1.9 3.5-2.1.7-.1 1.3-.1 2-.2 1.4-.1 2.8-.3 4.2-.6m-2.9 2.6c-1.6-.4-3.3-.4-5.6 1.2 1.4 0 2.9.3 4.2.8m-6.2 1.3l4.8.6m-4.9 1.5c1.3.2 2.7.5 4 .7"/><path class="st1" d="M2603.3 303.9c2-5.6 4.5-11.1 8.5-15.5 6.2-6.7 15.5-9.8 24.7-10.5m-4.4 1.3c1.8.4 3.6 1.1 5.1 2.1m-7.5-1.8c1.9.2 3.6 1.2 4.6 2.8"/><path class="st1" d="M2626.3 280.8c1.6.1 3.2.5 4.7 1.2.5.2 1 .5 1.3 1m-10.3-1.5c2.4.3 4.7.9 6.8 1.9.6.3 1.2.6 1.6 1.1-.3-.8-.7-1.6-1-2.5m-11.3 2.4c1.4-.8 3.1-.8 4.7-.4s3.1 1.1 4.6 1.5"/><path class="st1" d="M2623.3 283.7c.6 1.4 1.5 2.7 2.5 3.9-1.2-.7-2.4-1.4-3.8-1.9-2-.7-4.1-.8-7.3.9 3-.3 6.2.1 9.1 1.1.8.3 1.5.6 2.3.9 1 .4 2.1.9 3.1 1.3m-15.8-1c4.2-.4 8.3 1.1 12.2 2.7m-13.8-.8c2.4-.3 5-.1 7.3.7 1.3.4 2.5 1 3.8 1m-12.5.2c1.6-.6 3.4-.3 5.1.1 1.7.4 3.3 1 5.1.9m-11.1 1.4c2.8.1 5.7.2 8.5.4m-10.4 2.8c2.1.1 4.2 0 6.3-.3m-4.5-1.8c2.1.2 4.1.2 6.2.2m-9.4 3.9c1.6 0 3.2.1 4.9.1m-5.8 2.4l3.3-.9m77 67.1c-1.9.5-3.6 1.7-5.1 3-5 4.4-9 10.3-9.4 17m3.2-7.4c-.6 1.9-.8 4-.6 6m1.5-8.9c-.9 2.7-.3 5.7.3 8.5"/><path class="st1" d="M2677.1 377.1c-.5 1.9-.4 3.9-.3 5.8 0 .7.1 1.3.1 2m1.3-8.9c0 2.4.1 4.9.3 7.3m.8-9.1c-.4 2.6-.4 5.3 0 7.9m1.2-9c-.1 2.8 0 5.5.2 8.3m1.9-9.2c.1.5 0 1-.1 1.4-.4 2.3-.5 4.6-.2 6.9m5.7-12.6c1.4-2.6 4.2-4.4 7.1-4.5.4 0 .9 0 1.3.2s.8.6 1.1.9c.7.6 1.5 1 2.3 1.6 2.2 1.5 3.8 3.8 5.3 6.1 2.5 3.8 5.1 7.5 7.6 11.3l-.2.1"/><path class="st1" d="M2694.2 370.4c-.4-.9-.8-1.8-1.4-2.5-.6-.7-1.6-1.2-2.5-1.1m4.4 2c-.3-.7-.7-1.5-1.2-2.1s-1.2-1.2-2-1.3h-.2c-.1 0 0 .2 0 .2m3.6 1c-.8-.8-1.7-1.5-2.7-2m-45.1 13.1c4.8-4.9 11.2-8 18-9.4 6.7-1.4 13.7-1.1 20.5-.1"/><path class="st1" d="M2646.6 379.1c1.5-.2 2.8-1.2 3.9-2.3s2-2.3 3.2-3.3c-1.9 2.5-2.7 5.7-2.2 8.8 1.7-3.4 3.8-6.6 6.2-9.5m-3.3 7c1.6-1.5 3.1-3.2 4.3-5.1.1-.2.3-.5.4-.7.2-.6.1-1.4 0-2m-1.6 5.9c2.8-1.5 4.8-4.5 4.9-7.7.2.1.4.4.2.6m-1.7 4.9c0 .8-.1 1.7-.2 2.5 1.3-.7 1.8-2.2 2.6-3.4.6-.9 1.5-1.7 2.4-2.5.6-.5 1.2-1.1 1.8-1.6m-4 7.7c.7-1.9 1.5-3.8 2.7-5.4 1.1-1.4 2.5-2.6 3.9-3.6-.3.2-.5.5-.8.7m-3.6 5.8c.2.5.5.9.7 1.4 1.1-.7 1.1-2.4 1.9-3.6.4-.6.9-1 1.4-1.5 1.2-1.3 2.1-3.2 3.9-3.8-.1.1-.1.2-.2.2m-3.1 4.2c.1 1.2.1 2.4.2 3.5 1.5-2.7 3.3-5.2 5.5-7.3.1-.1.1-.1.2-.1s.1.1.1.2m-3.4 6.7c.8-1.7 1.8-3.4 2.9-4.9.7-1 1.6-1.9 2.8-2.1 0 .1 0 .2.1.3m-3 6.1c1.5-2.3 3.4-4.2 5.7-5.6.2-.1.3-.2.5-.3m-28-.3c1.7-4.4 4.5-8.6 8.8-10.7-.1.1-.1.3-.2.4"/><path class="st1" d="M2657.8 367.3c.3-3.4 2.5-6.5 5.6-7.9v.3m-3 7.8c.3-3.1 2-6 4.6-7.7.1.1.1.3.2.4m-3 6.8c.6-2.1 1.6-4 2.9-5.7l.3-.3c.1 0 .3.1.3.2m-1.1 5.3c.9-1.8 1.9-3.5 3.1-5.2.1-.2.4-.3.4-.1m-1.8 5.3c1-1.8 2-3.5 3.1-5.3.1.3.1.6 0 .8m-1.4 4.4c1-1.5 1.9-2.9 2.9-4.4.2-.2.4-.5.7-.4.1.2.1.5 0 .7m-.5 3.8c.4-1.1.8-2.3 1.3-3.4.1-.3.4-.6.7-.6.2.2.2.5 0 .7m-.6 2.8c.4-1 .9-1.9 1.5-2.8.1-.2.2-.4.4-.4.2-.1.5.1.4.3m-.8 2.9c.7-.9 1.3-1.8 2-2.7l.3-.3c.1-.1.3.2.1.3m-.6 2.8c.6-1 1.4-2 2.2-2.8m.3 2.7c.5-.8 1.1-1.5 1.7-2.2m-.3 2.4c.5-.9 1-1.8 1.4-2.6m1 2.2c.4-.4.8-.9 1.3-1.3m27.7 17.8c.3 2.7.2 5.5-.3 8.2-.2-4.8-2.1-9.3-4-13.6m.2 1.6c.4 2.9.6 5.8.5 8.8 0 .7 0 1.4-.4 1.9-.2.2-.4.4-.3.7m-2.1-13.8c1 4 1.2 8.3.7 12.4m-2.7-12.9c.3 3.9.6 7.9-.4 11.8-.1.3-.3.6-.5.5m-1-16c.7 4.2.9 8.5.6 12.7m-2.2-12c.6 3.5.7 7 .4 10.5m-2.5-13.6c.7 3.7.9 7.6.5 11.4"/><path class="st1" d="M2699.3 373c0-1.1-.1-2.2-.1-3.3.2 1.5.3 3 .5 4.5m-4.4-6.3c.8 3.2 1 6.5.6 9.7m-2.4-6.7c.7 1.9 1 4.1.6 6.1m-2.5-7.5c.3 1.5.5 3.1.6 4.7m8.1-7.2c4.3-2.2 9.6-1.5 14.3-.1 6.4 1.9 12.7 5 17.1 10"/><path class="st1" d="M2703.8 368.1c.9.4 1.9.4 2.7.9.7.5 1 1.3 1.3 2.1.6 1.6 1.1 3.2 1.7 4.8m-2.4-8.5c1.8 1.7 3.1 4 3.6 6.4.3 1.5.4 3 1 4.4m-2.1-10.2c2.6 3.3 4 7.6 3.7 11.8m-1.5-11.9c1 1.6 1.9 3.3 2.4 5 .5 1.8.7 3.7.2 5.5m-.5-9.6c.4 2 1.7 3.7 1.9 5.7.1 1.1-.1 2.3 0 3.5m-.2-8.6c.7 1.4 1.4 2.9 1.9 4.4s.5 3.2 0 4.7m-.1-8.7c1.5 2.6 2.1 5.7 1.6 8.6m2.5-.7c0-2.8-1-5.5-2.9-7.6m5.2 7.6c-.1-1.6-.2-3.3-1.1-4.6-.3-.4-.7-.8-1-1.2l-2.3-2.3m6.1 7.8c.2-2.4-1.3-4.9-3.6-5.7m6.7 5.7c-1.4-2.3-3.3-4.4-5.4-6.2m-32.5-9c5.2-6.9 14-10.2 22.6-11.5 3.7-.6 7.6-.8 11.3 0 3.8.8 7.4 2.6 10.9 4.4m-40 5.5c1.4 1.9 3.3 3.6 5.4 4.7"/><path class="st1" d="M2702.6 365.5c-1.6-1.2-3.2-2.6-4.2-5 1 .2 1.8 1 2.5 1.7 1.5 1.3 3.1 2.4 4.9 3.2m-5.8-7.7c2.7 2.1 4.7 5.2 7.6 7m-5.4-7.7c3.3 1.7 6 4.5 7.5 7.9m-5.3-8.5c2.4.8 4.5 2.5 5.8 4.6.6 1 1.1 2.1 1.7 3.2m-5.7-9.5c2.7 2.1 5 4.8 6.7 7.9m-4.5-6.7c2.5 1.6 4.6 4 5.9 6.7m-3.6-8.8c2.5 2.5 4.7 5.3 6.6 8.3m-4.8-9.5c1.5 2 3.7 3.5 5 5.7.6 1 1 2.2 1.4 3.3m-2.9-8.6c2.3 2.6 4.4 5.3 6.3 8.3m-3.5-7.8c1 .7 2.1 1.5 2.9 2.4 1.4 1.7 2.1 3.8 2.8 5.9m-4-8.4c3.3 1.7 5.9 4.7 7.2 8.2m-4.3-8.6c1.9.8 3.3 2.4 4.3 4.2s1.6 3.8 2.1 5.8m-3-9.6c2.3 1.7 3.6 4.7 3.4 7.6m-1.2-6.5c1.4 1.3 2.2 3.4 1.9 5.3m1.9-.5c-.3-1.4-.9-2.8-1.7-4.7.8 0 1.6.1 2.3.4s1.4.8 1.8 1.5m-44.7 3.3c1.8-4.7 5.3-8.6 9.5-11.5s8.9-4.7 13.8-6m-21.3 14.8c1.2.1 2.4.1 3.6.2m-1.5-1.3h2.1m-1.4-1.2c1.1.1 2.2.1 3.3.2m-1.8-1.5c1.1.2 2.1.4 3.2.6"/><path class="st1" d="M2702.7 352.8c-1.5 0-3-.2-3.4-1.7 1.5.5 3 .8 4.6.9m-3.4-1.6c1.7.3 3.5.3 5.3.1m-4.3-2.1c1.9.5 3.9.9 5.8.5m-3.5-1.3c1.5.4 3 .7 4.6.9m-3.1-1.6c1.5.3 3.1.8 4.1 1.8-.6-.5-1-1.1-1.5-1.7-.5-.6-1.2-1-2-.9m4.3.6c-1.3-.9-2.7-1.6-4.1-2.2-.1.1-.2.3-.1.5m5.7.4c-1.3-.3-2.7-.5-4.1-.5m4.1-1c-1 .2-1.9.4-2.9.6m-18.2 16.9c-.7-4.4-1.4-9.1.3-13.3.5-1.2 1.2-2.4 1.9-3.5 1.7-2.7 3.4-5.5 5.8-7.6 3.2-2.9 7.6-4.4 11.9-4.1"/><path class="st1" d="M2701.3 336.2c3-1.2 6.2-2.3 9.4-1.7 0 .1 0 .3-.1.4m-.4.4c-3.7.3-7.3 1.7-10.7 4.9 2.2-1.3 4.6-2.3 7-2.8h.1m-12.1 8.1c2.8-2.6 6.4-4.5 10.1-5.4m-10.7 7.4c2.6-2.2 5.7-3.8 8.9-4.8-.1 0-.1.1-.2.1m-10.1 8.2c1.6-1.5 3.3-2.9 5.2-3.9-.2 0-.3.1-.5.2m-6.4 6.6c1.1-1.2 2.4-2.2 3.9-2.9 0 .1-.1.3-.1.4m-4.1 4.4c.7-.6 1.5-1.1 2.2-1.7m-52.1 3.3c6.4-6.2 15.4-9.6 24.4-9.3 1.6.1 3.1.2 4.6.7s2.9 1.3 4.3 2.1c5.5 3.3 10.9 6.9 15 11.7m-2.7-1c-1.5.9-2.8 2.2-3.7 3.7"/><path class="st1" d="M2681.4 363.5c.9-1.1 1.9-2.2 2.5-3.9-2 1.1-3.7 2.5-5.1 4.2m-1.3-1c1.2-1.5 2.8-2.8 3.7-4.8-1.7.9-3.2 2.3-4.3 3.9m2.2-4.8c-1.5 1.2-2.8 2.6-4 4.1m-2.4-.8c1.4-1.4 2.8-2.8 3-4.4-2.1.8-4 2.3-5.3 4.2m-1-1.4c1.4-1.6 2.9-3 3.2-4.6-1.8 1.4-3.5 2.9-5 4.6m4.4-5.3c-2 1-3.9 2.3-5.6 3.7m3.8-4.8c-1.9 1.4-3.8 2.8-5.7 4.3m3.3-5.1c-2.3 1.5-4.3 3.3-6.1 5.3m4.1-5.5c-2.2 1.6-4.1 3.5-5.7 5.7m3-6.1c-2.1 1.6-4.1 3.4-5.9 5.4m4.4-6.1c-3.2 1.8-6.2 4.1-7.6 7.5m3.3-6.6c-3.2 1.2-5.7 3.8-6.7 7.1m2.8-6.5c-2 1.9-4.2 4.1-4.6 6.9m1.4-5.6c-.7 1-1.7 1.7-2.5 2.6-.8.9-1.4 2.1-1 3.3m1.1-5.5c-1.5 1.6-2.6 3.6-3 5.7m.3-4.2c-1.2 1.7-2.1 3.7-2.4 5.8m.8-4.7c-.8 1.3-1.5 2.6-2.1 3.9-.1.1 0 .4.1.3m.2-4.3c-.6 1.3-1.2 2.6-1.7 3.8m27.1-31.9c4.1.7 7.7 3.3 10.7 6.2 6.7 6.5 11.5 15.5 11.2 24.8m.5-8.2c-.6-.6-1.1-1.2-1.7-1.8m-10.9-2.7c-1.5-.3-2.9-.5-4.4-.5s-3 .4-4.2 1.3m3.7 0c-1.2.3-2.3.6-3.5.9m5.7-.6c-1.3.1-2.5.6-3.5 1.3m1.5.7c1.4-.9 3-1.5 6.1-.8-1.4.3-2.7.8-3.9 1.5m1 1c1.2-.6 2.4-1 4.5.3-.7.4-1.5.8-2.2 1.2l2.8-.1m-.1 2.4c2.3.5 4.5 1.3 7.1 2.3-.8-1.1-1.8-2.1-3-2.9-.5-.4-1.3-.7-1.9-.4"/><path class="st1" d="M2687.6 355.3c-1.7-1.5-3.5-2.8-5.3-4.1-.7-.5-1.6-1-2.4-.7m6.6 2.9c-1-1.2-2-2.4-3.3-3.3s-2.8-1.5-4.3-1.4m6.6 1.6c-1.8-1.7-4.1-2.9-6.5-3.5m5.7 1.2c-1.6-2.1-4.1-3.6-6.7-4m5.1 1.4c-2-1.6-4.5-2.5-7-2.6m6.2.7c-2.4-1.7-5.2-3.5-8.1-3.1m-2.1-1.1c2.9-.7 5.8.6 8.4.8-2.2-2-5.2-3.1-8.1-3.1-.6 0-1.4.2-1.5.8"/><path class="st1" d="M2678.1 338c-2.9-1.4-5.9-2.9-9.1-2.9-.3 0-.8.3-.6.5m7.2-.2c-2.6-1-5.3-1.7-8-2.2-.3-.1-.7-.1-.9.2m5.8-.7c-2.8-1-5.7-2-8.6-1.5m3.5-3c-1.9-.5-3.9-.8-5.9-1m8 2.4c-1.3-.2-2.6-.4-4-.6m21.9 41c.7 0 1.5.1 2 .6.7.6.8 1.8 1.7 2.2m-.9.3c-1.6 1.4-3.2 2.7-4.8 4.1m-.8-1.4c-.1 0-.3-.1-.4-.1 1.6-1.3 3.1-2.7 3.6-4.9-1.5.8-2.9 1.8-4.1 3.1m28.7-10.5c-.1 1-.1 2-.2 3m.9-2.9c1.1.8 2.2 1.4 3.5 1.8m-.6-77c-2.6.2-4.4 2.4-6 4.4-2.9 3.7-5.9 7.5-8 11.8-2.2 4.2-3.5 9-3.1 13.7"/><path class="st1" d="M2702.8 315.6c-.5-3.3-.3-6.7 1.5-11.6-.5 2.6-.3 5.4.4 7.9m2.6-11.3c-.5 3.1-.8 6.3-.8 9.5 0 .1 0 .3.1.3s.2-.2.1-.2m2.8-12.5c-1.1 3.9-1.5 8-1.4 12l.3-.6m3.3-14c-1.2 3.2-1.5 6.7-.9 10.1m2.3-12.7c-.6 3.6-.8 7.2-.7 10.9m3.7-12.7c-1.1 3.8-1.6 7.8-1.3 11.8 0 .2 0 .5.2.6s.5-.1.4-.3m10-19.7c5.6-3.1 13.1-1.9 17.5 2.7 2.7 2.9 4.2 6.8 5.5 10.5 1.1 3 2.2 6.1 2.8 9.2.7 3.8.7 7.8 2.5 11.2"/><path class="st1" d="M2749.7 307.7c.2 1.6.2 3.1 0 4.7-.2.1-.4.1-.5.2m.4-7.7c.2 1.8-.3 3.7-1.3 5.3m.4-8.1c-.3 1.5-.7 2.9-1 4.4-.2.7-.5 1.5-1.2 1.5m.3-9.4c.3 3-.2 6.1-1.4 8.8m-1.8-2c2.1-3.5 2.5-7.9-.3-11.6 0 3.2-.5 6.4-1.5 9.5m-.4-11c0 3.2-.3 6.5-.7 9.7m-1.8-11.5c.5 3.4 1.1 7 .1 10.3m-2.2-11.3c.9 3 1 6.2.5 9.2m-1.3-.4c0-3.7-.8-7.3-3-10.6-.2 2.4 0 4.9.5 7.2m-1.6.4c-.2-2.4-.3-4.8-2.1-7.9-.2 2.2-.1 4.4.4 6.5"/><path class="st1" d="M2733.7 288.7c-2.2-1.3-4.3-2.6-4.9-5.6 2.5 1.6 4.9 3.4 7.1 5.4m-4.5-5.7c3.2 1.5 6 3.9 8 6.8"/><path class="st1" d="M2735.4 284.4c.3-.3.8-.2 1.2.1s.5.6.7 1c1 1.9 1.9 3.9 2.9 5.8m-2.1-7.1c1.3 2.3 2.7 4.6 4 6.9.3.5.5 1 .3 1.5h-.6m-.5-7.6c1.2 1 1.7 2.7 2 4.3.6 2.6 1.3 5.3 1.9 7.9m-1-5.6c1.9 3.2 3.5 6.6 4.7 10.1m-25-28.3c-.2-2.5-.8-5.1-2.3-7.1s-3.9-3.5-6.5-3.4c-3.4.2-6.1 3-8 5.9-6.5 9.5-9.4 21.4-8 32.8m2.5-11.4c.4 2.1.7 4.1.9 6.2m.2-11.6c-.7 3.7-.4 7.6 1 11.1"/><path class="st1" d="M2705.5 293.5c-.5-.2-.6-.8-.6-1.3-.5-4.4-.3-8.8 2.3-15.3-1 3.7-.9 7.7.3 11.3m1.5-14.6c-.3 3.5-.4 7-.1 10.5m2.3-13.4c-.5 4.3-.8 8.7-.9 13m3.4-.8c0-4.4.2-8.8 2.6-12.1-.5 3.7-.7 7.4-.7 11m1.9-1.8c.3-3.4.5-6.8 2.4-10.8-.2 2.8-.3 5.6-.5 8.4m-14.8-5.7c-8.7-.5-17.8 1.2-24.9 6.4-7.1 5.2-11.7 14-10.5 22.7m4.7-12.5c-1.2 4-.7 8.5 1.5 12.1"/><path class="st1" d="M2676.6 298.2c-.7.2-1.1-.9-1.1-1.6 0-2.8.5-5.7 2.8-10-.7 3-.7 6.1 0 9.1m1.5-11.5c-.1 2.9.1 5.8.7 8.6m2.5-11.1c-.5 3.2-1 6.3-1.5 9.5-.2 1.3-.3 2.9.6 3.8m3.9-13.5c-1.4 3.7-2.3 7.5-2.7 11.4m7.8-15c-1.4 4.4-2.6 8.8-3.7 13.3m7.3-15.1c-1.3 3.4-2.5 6.8-3.7 10.3-.2.5-.3 1.1.1 1.5m3.6-7.9c.9-1.6 1.7-3.2 2.6-4.8-1.7 3.4-2.5 7.3-2.4 11.2m4.7-10.8c-1.7 3.3-2.8 7-3.1 10.8m6-11.7c-1.3 2.6-2.4 5.2-3.2 7.9m-43-9.3c4.1-8.7 14.2-13.5 23.8-13.8s19 3.1 26.8 7.3c-2.3 1.5-4.5 3.3-6.5 5.2m2.6-5.6c-2.6 1.3-5.1 2.9-7.2 4.9m3.3-4.7c-2.7 1.5-5.1 3.5-6.9 5.9m3-7c-2.2 1.6-4.2 3.6-5.9 5.8"/><path class="st1" d="M2685.6 273c1.8-2.1 3.6-4.2 3.4-7-2.8 1.4-5.2 3.7-6.8 6.4m-4-.6c2.6-2.7 5.3-5.2 5.6-8.5-1.7-.4-3.2 1-4.3 2.3-1.8 2.1-3.7 4.2-5.5 6.2m4.6-8.4c-3.1 2.4-5.9 5.3-8.3 8.5m2.9-7.2c-2.6 2.5-5.3 5-7.9 7.6m4.7-8.4c-2.4 2.6-4.6 5.3-6.6 8.2m3-7c-3.1 2.3-5.8 5.2-8.1 8.3m110.6 23.2c.2-3.4-1.2-6.8-2.7-9.9-2.1-4.7-4.4-9.4-7.5-13.5s-7.2-7.6-12.1-9.3c-8.7-2.9-19.2 1.4-23.4 9.6-.3.6-.5 1.4-.1 1.8m3.6-1.3c.3 2.4.7 4.9 1 7.3m2.8-8.6c.4 2.1.9 4.1 1.3 6.2m2.3-10c.1 3.7.5 7.3 1.2 10.9m1.4-11.9c-.4 4.6-.1 9.3.9 13.9m2.1-13.4c-.2 5.1-.2 10.2.1 15.4"/><path class="st1" d="M2743 284.1c.2-4.9.5-9.9 1.6-14.1-.2 5.3-.1 10.6.3 15.9m1.9-13.4c-.6 5.2-.7 10.5-.2 15.8m2.8-17.4c-.5 5.6-.8 11.2-.8 16.8m2-.4c.2-4.8.8-9.5 3.5-13-.9 4.9-1.4 9.8-1.3 14.8m1.6-13.1c.2 3.8.3 7.6.5 11.4 0 .8.1 1.6.6 2.3m2.3-10.8c-.7 4.2-1 8.5-1.1 12.8m2.4 1.1c-.2-4 .2-8.1 2.4-11.1-.2 3.9-.3 7.8-.5 11.7m2.6-7.8c-.3 3.1-.5 6.2-.8 9.4m2-7.5c0 2.8 0 5.7.1 8.5m1.9-5c-.2 2.2-.2 4.5-.1 6.8m-4.7-18.9c4.3-.7 8.6 1.2 11.8 4.1s5.5 6.6 7.8 10.2"/><path class="st1" d="M2778 294.2c-.1-2.2-.6-4.3-3.8-7.8.7 2.7 1.3 5.5 1.6 8.3m-2.4-1.2c-.5-2.4-.9-4.8-3.1-9.4.9 2.6 1.4 5.3 1.4 8.1m-1.9-1.3c-.8-3.1-1.7-6.2-4.2-9.8 1 2.7 2.1 5.4 3.1 8m-44.9-21.4c7.1-8.1 18.4-11.9 29.2-11.3 10.8.6 21.1 5.1 28.6 10.7 2 1 3.2 3.3 3 5.5"/><path class="st1" d="M2780.6 273.7c-.6-2.1-1.3-4.3-3.2-5.9 1.1-.4 2.3.3 2.9 1.4s.6 2.2.6 3.4m-4.6.9c-1-2.4-1.9-4.8-4.1-7.1 1 2 1.9 4 2.7 6.1.1.4.2.9-.2 1m-6-7.2c1.6 2.5 3 5 4.3 7.7m-8.2-8.9c1.1 2.3 2.1 4.6 3.2 6.8.3.6.5 1.3 0 1.7m-8.9-9.9c1.6 3.6 3.6 6.9 5.9 10.1m-10.3-10.6c2.7 2.2 4.8 5.1 6.1 8.3m-10.9-7.8c1.7 1.5 3.3 3.1 4.9 4.9m-31.2-2.8c6.7-16.8 21.9-29.9 39.5-34m-9.3 4.4c3.6-.1 7.1 1 10 3.1m-12 .4c3.6-.3 7.2.2 10.5 1.6"/><path class="st1" d="M2746.7 241.8c2.4-.2 4.8-.4 7.2-.4 1.1 0 2.5.2 2.9 1.2m-.5 4.1c-3.8-1.8-7.9-2.8-13.4-1.7 4.1.3 8 2.4 10.5 5.6m-12.9-2.2c3.7 1 7.3 2.3 10.8 3.9m-15.8-1.2c3.6.7 7.1 1.7 10.5 3m-13.5-.4c2.8.2 5.6.5 8.4.7m-11.4 2.7c2.8.3 5.5.9 8.2 1.7m-8.2-5.3c-.7-5-2.3-9.9-3.9-14.8-.9-2.6-1.7-5.2-3.5-7.3-2.2-2.5-5.5-3.9-7-6.9 0 .3-.1.5-.1.8m-1.4 3.2c2.1 1.4 4.1 2.8 6.2 4.3m-5-1.8c1.5 1.6 3 3 4.7 4.3m-6-1.6c3.1.9 6.2 1.9 9.3 2.8m-9.8.8c3.1.3 6.2 1.4 8.8 3.1m-4.6.2c3.4.2 6.7 1.3 9.4 3.3m-7.5 2.3c2.8.2 5.5 1.3 7.7 3m-8 .6c2.9.7 5.8 1.9 8.4 3.5m-5.8 3.2c2.1.1 4.1.7 6 1.6 0 0-8-7.6-8.5-7.6-2.8-1.6-5.2-2.3-8.4-2.1m-15.2 8.3c-1.1.9-2.1 1.9-3.2 2.8"/><path class="st1" d="M2722.8 266.6c-2.5-5.8-5.8-11.2-10-15.9-4.3-4.9-9.8-9.2-16.3-9.5-3.9-.2-7.8 1.2-11.5 2.5-4.5 1.6-9 3.3-12.8 6"/><path class="st1" d="M2677.4 252.7c.7-1.9 1.5-3.8 2.5-5.6.5-1 1.4-2.1 2.5-1.8m-2.8 6.7c1.7-2.2 3.5-4.4 5.2-6.6m-2.2 6.5c2.5-2.5 5-5 7.7-7.3m-5.3 6.4c2.4-1.8 4.9-3.5 7.4-5 1.1-.6 2.4-1.3 3.5-.8m-7.9 7.2c2.7-1.9 5.4-3.7 8.3-5.3.6-.3 1.2-.7 1.9-.7.7-.1 1.4.2 1.8.8m-8.1 5.9c4-2.2 8.3-3.6 12.8-4.2m-9.6 5.9c3.4-2.8 7.7-4.4 12.1-4.6m-9.6 6.1c3.7-2.2 8.2-3.2 12.6-2.6m-10 4.9c2.1-1 4.3-2 6.6-2.6 2.3-.6 4.7-.7 7 0m1.2 1.5c-.5-.8-1.8-.7-2.7-.5-3.1.7-6.2 1.5-7.4 4.1 3.4-1.7 7.4-2.4 11.2-1.8m-9 3.3c3.3-.5 6.6-1 9.9-1.4m-19.3.2c0-1.2.5-2.6 2.2-3.1-.5 1.3-.5 2.8-.1 4.2m2.6-1.4c.2.8.3 1.6.5 2.4"/><path class="st2" d="M2725.6 274.5c-10.7 59.2-12.9 100.7.1 159.5m-36-65.2c-3.1 22.9-3.4 46.2-1 69.2m-82.9-114.6c-2.7 38.6 15.3 87.5 30.5 123"/><path class="st1" d="M1629.8 190.6c-5.9-.9-11.7 2.7-15.1 7.6-3.3 4.9-4.6 10.9-5.5 16.7-.5 3.1-.8 6.2-.4 9.3.4 3.1 1.6 6.2 3.9 8.2.1-2.6-.1-5.1-.6-7.7 0 .4.1.8.1 1.3m-1.1-6.9c1.4 2.5 2.7 5 3.7 7.6m-2.8-10.9c1.7 2.7 2.7 5.7 3.1 8.8m-2.2-12.4c2 2.8 3.7 6 4.8 9.3m-3.5-12.8c1.1 2.5 2.2 4.9 3.3 7.4m-2.3-10.6c1.8 2.6 3.2 5.5 3.9 8.6"/><path class="st1" d="M1620.3 211.3c-1-3.3-2.2-6.4-3-11.6 2.1 2.5 3.6 5.6 4.2 8.8m1.8-1.9c-1.2-3.1-2.4-6.1-1.2-11.8.9 3.2 1.8 6.4 2.7 9.7m-.4-10.3c.4 2.9.8 5.9 1.1 8.8m6.6-11.2c2.9-1 6.2-.2 8.8 1.5 2.6 1.7 4.5 4.2 6.1 6.8 2.8 4.6 4.9 9.9 4 15.2m-2.4-8.8c1.2 2.7 1.3 5.9.4 8.7m-2.2-12.5c.6 2.1.7 4.2.5 6.4"/><path class="st1" d="M1645.5 206.5c.4-2.6.2-5.2-2.3-9.3.9 2.7.8 5.7-.1 8.4m-.8-1.9c.3-2.8-.1-5.7-3.2-10.1 1.2 2.6 1.5 5.6.8 8.3m-1.9-.3c.8-2.9.7-6-2.4-9.1 1.8 2.4 1.9 5.8.4 8.3m-1.1-.4c.5-2.6.3-5.3-2.2-7.4.3 2.5.1 5.1-.6 7.6m-19.4-1c-3.3.6-6.1 2.9-8 5.7s-3 6-4.1 9.2"/><path class="st1" d="M1603.6 213.6c-.2-1.5-.3-3.1 1-6.5v4.3m1.9-1c-.3-2-.5-3.9.9-7.5.3 1.9.6 3.7.9 5.6m1.8-7.5v5.2m9.2-13.7c-6.1-.4-12.4-.2-18.3 1.5-11.6 3.4-21.3 13.9-21.8 25.9"/><path class="st1" d="M1582.9 209.3c-.7 1.1-.9 2.4-1.1 3.7-.3 1.7-.5 3.4-.6 5.2m2.2-9.8c-.2 2.1-.4 4.2-.4 6.3m4.3-10.8c-1.3 2.2-1.2 4.9-2 7.3-.4 1.3-1.1 2.5-2 3.6m5.4-11.9c-.7 3.5-1.2 7-1.3 10.6m6.8-14.6c-1.9 1-2.9 3.3-3.4 5.4s-.7 4.4-1.8 6.3m6.9-12.2c-2 3.2-3.1 7-3.1 10.8m7.5-12.5c-2.4 1.8-3.8 4.6-4.9 7.4-.7 1.8-1.2 3.7-.9 5.6m8.4-14.1c-3.1 2.9-5.3 6.8-6.2 10.9m9.3-11.1c-2.5 2.3-4.4 5.3-5.3 8.6m7.8-8.8c-3 2-5.2 5.2-6.1 8.6m8.7-9.2c-2.6 1.8-4.6 4.5-5.7 7.4m6.9-7.4c-1 1.2-2 2.4-2.9 3.6m-37.9-11.9c3.5-3.2 8.6-4.3 13.3-3.9 3.4.3 6.7 1.2 10.1 1.1 4.1-.1 8-1.7 11.9-2.7s8.4-1.5 11.9.5c2.1 1.1 3.7 3 5.2 4.8m-26-2.9c-4.3 2.3-7.9 6-9.9 10.4m5.2-9.2c-2.7 1.8-5 4.1-6.9 6.8m4.5-7.2c-2.8 2-5.4 4.3-7.7 6.8"/><path class="st1" d="M1581.5 189.9c1.5-2.3 3.5-4.2 4.8-6.1-3.2 1.8-5.9 4.3-8.1 7.2m4.6-6.9c-2.1 1.5-3.9 3.3-5.4 5.4m3.9-5.5c-2.3 1.6-4.7 3.3-6.3 5.7m4.6-5.9c-2 1.4-3.8 3-5.5 4.8m25.7-4.8c-.8.6-1.7 1.3-2.4 2-.4.4-.7.8-1.1 1.2-.5.6-1.1 1.3-1.6 2-.9 1.2-1.6 2.4-2.3 3.7m12.6-10.4c-3.1 2.2-5.6 5.3-7.2 8.8m11-9.4c-3.5 2.3-6.4 5.7-8.1 9.5m10.8-9.1c-2.5 1.6-4.6 3.7-6.1 6.2m8.7-5c-1.7 1.6-3.2 3.5-4.4 5.5m7.7-5c-2.4 1.8-4.7 3.9-6.7 6.1m8.6-4.6c-1 1.3-2.1 2.6-3.2 3.8m-23.5-7.1c3.5-3.2 8-5.1 12.7-5.4s9.4 1 13.3 3.6m-15.9-2.1c-2.2.8-4.2 2.2-5.8 4m8.6-3.9c-1.8.4-3.5 1.6-4.4 3.2m7-3.6c-1.1.8-2.2 1.7-3.3 2.7m21.3 11.5c-.3 3.2-.3 6.4 0 9.6m1.9-9.5c-.5 2.6-1 5.4-.2 8m1.2-6.9c.7 1 1.4 2.1 2 3.1m-3.5-7.9c2.6-3 5.3-6 8.9-7.7 4.3-2 9.5-1.7 13.5.7 1.7 1.1 3.2 2.5 4.7 3.9 1.4 1.4 2.7 2.9 3.7 4.6.8 1.3 1.3 2.8 1.8 4.2 1 2.9 2.1 5.8 2.7 8.8 1 4.8 1 9.7 1 14.6"/><path class="st1" d="M1678.7 212.5c.6-1.2.5-2.6.3-3.9-.5-4-1.4-8.2-4.1-11.2-.9-1-2-1.8-3.1-2.6-2.1-1.5-4.3-3-6.7-4.1-2.4-1.1-5-1.7-7.6-1.5m4.9 21.6c-.6 2.1-1.6 4-2.8 5.8m.6-7.9c-.5 1.2-.9 2.3-1.4 3.5-.2.5-.4 1-.5 1.5-.1.3-.1.7-.1 1-.2.7-.6 1.3-.6 2.1m2.9-14.7c-.3 4.4-2.1 8.7-5 12m3.1-16.3c-.5 4.1-1.2 8.1-2.1 12.1m1.4-14.2c-.6 1.7-1.1 3.4-1.7 5.1-.8 2.4-1.6 4.7-2.7 7m1.7-15.4c0 2 .4 3.9.1 5.9-.1 1-.4 2-.7 3l-1.5 4.8m-1-16c.6 4.3.4 8.8-.6 13.1m-1.5-14.4c.3 2.3.6 4.6.3 6.9-.3 2.1-1.1 4.1-.9 6.1m-2.8-15.5c.6 2.2.8 4.6.6 6.8-.1.8-.3 1.7-.3 2.5s.2 1.7.7 2.4m-6.4-18.4c2.2 1.4 3.2 4.1 3.4 6.7.2 2.6-.1 5.2.2 7.8m-6.2-13.6c1.7 1 2.5 3 3 5 .6 2.3 1 4.7 1.2 7.1m-6.3-10.8c1.4.7 2.2 2.2 2.9 3.7.3.6.5 1.2.7 1.8.5 1.5.7 3.1 1.3 4.6m-7-8.5c1.1.3 1.9 1.4 2.4 2.5 1.1 2 2.1 4.2 2.8 6.4m-7.7-7.5c.6.6 1.4 1.1 1.9 1.8.9 1.2 1 3 2.1 4.1m-6-3.8c1.3 1 2.4 2.2 3.2 3.7m29.8 8.1c1.1 1.4 2.3 2.8 3.2 4.4.9 1.6 1.6 3.3 1.8 5.1"/><path class="st1" d="M1661.7 191.6c2.5 1.8 4.1 4.6 5.1 7.5s1.4 6 1.6 9"/><path class="st1" d="M1663.6 192.9c1.9 2.2 3.7 4.5 5 7.1s2.1 5.5 2 8.3"/><path class="st1" d="M1672.3 208.3c-.3-3.6-1.2-7.1-3-10.2-1.5-2.4-3.5-4.5-5.6-6.5m5.7 5.6c2.2 1.2 3.5 3.5 4.6 5.7 1.3 2.7 2.4 5.6 2.6 8.6"/><path class="st1" d="M1670.7 196.8c3.6 2.4 5.5 6.5 7.2 10.5.6 1.4 1.2 2.8 1 4.3m-50.7-24.7c1.8-3.4 1-7.7-1.1-10.9-2.2-3.5-5.7-6.2-9.6-7.6-3.9-1.5-8.2-1.8-12.3-1.2-1.4.2-2.7.5-3.9 1-1.3.6-2.6 1.4-3.7 2.3-3.5 2.5-7 5.3-9.5 8.9m7-5.5c-2.5 2.1-4.4 5.1-5.2 8.3"/><path class="st1" d="M1601.9 170.2c-2.5 1.5-4.7 3.6-6.4 6.1-.7 1-1.2 2.1-1.2 3.3m11.3-10c-2.9 1.1-5.5 3.1-7.4 5.6-.6.8-1.1 1.6-1.2 2.5m12.7-8.8c-3.1 1.2-5.9 3.2-8 5.7-.3.4-.7.9-.6 1.4m12.3-6.3c-3.3.9-6.4 2.6-9 4.9-.5.5-1 1-1.2 1.6m15.5-4.6c-4.5-.5-9.1 1.1-12.4 4.2m15.3-2.9c-2.1 0-4.3.1-6.4.6-2.1.6-4.1 1.6-5.5 3.2m14.6-2.1c-3.8-1-8.1-.2-11.2 2.1m3.7 1.6c1-1.3 2.5-2 4.1-2.2s3.2 0 4.4.5c-2.7.3-5.2 1.7-6.8 3.8m1.7 1c.6-1.2 1.8-2 3-2.5 1.3-.5 2.6-.6 4-.1-2.3.4-4.5 1.7-6.1 3.5m6.1-2.5c-1.8 1-3.4 2.4-4.8 4m1.4 1c1-1.1 2-2.2 3.7-2-.7 1-1.4 2.1-2.1 3.1m-24.4-18.3c-5.4-2.6-11.9-2.5-17.6-.6s-10.7 5.5-15.1 9.6m3.5-1.2c-.2 1.6-.3 3.2-.5 4.8m5.1-8.4c-1.9 2.5-3.4 5.3-4.3 8.3m7.7-9.7c-2.1 2.2-3.7 4.9-4.7 7.9m8.8-9.3c-2.1 2.2-3.8 4.8-4.8 7.6m7.3-7.9c-2.2 2-3.9 4.4-5.2 7.1m7.8-7.5c-3.6 1.4-6.3 4.6-7.1 8.4"/><path class="st1" d="M1585.9 175c-.2 0-.4-.3-.4-.6 0-.2.1-.5.3-.7 1.5-2.4 3.7-4.4 7.5-5.3-1.6 1-3 2.2-4.3 3.5-.6.6-1.1 1.4-.7 2.2m7.8-5.8c-2.9 1.6-5.5 3.8-7.4 6.4m-13.2-20.8c4.9-3.9 11.1-6.4 17.4-6.6s12.7 2 17.3 6.3c1.5 1.4 2.7 3 4 4.7 2.4 3.1 4.8 6.1 6.6 9.6"/><path class="st1" d="M1582.2 152.4c-1.4.6-2.7 1.5-3.8 2.6-.4.4-.8 1-.6 1.5m9.2-5.9c-2.8 1.2-5.2 3.3-6.8 6m9.7-6.5c-1.9.2-3.4 1.5-4.6 3-1.1 1.4-2 3.1-3.7 3.7m12-7.1c-3.4 1-6.4 3.4-8.2 6.4m11.6-6.2c-3.8.6-7.3 2.8-9.5 5.9m11.4-4.8c-1.2.1-2.5.2-3.6.7-.5.3-1 .6-1.5 1-1.9 1.3-3.9 2.7-5 4.8m12.8-5.9c-3.8.6-6.8 3.4-9.6 6-.6.5-1.2 1.3-1 2m12.1-6.7c-2 .4-4.1 1-5.8 2.2s-3.2 2.8-3.9 4.7m2.5.4c2.8-2.7 5.8-5.6 10.3-5.3-1.4.4-2.8.8-4.1 1.6s-2.3 1.9-2.8 3.3m6.5-4.1l-6.6 5.4m9.5-4.4c-3.6 1.1-6.9 3.4-9.1 6.5m7.3-5.6l-5.1 5.4m-1 2.4c0-.2.1-.4.2-.6 2-2.9 5.1-5 8.8-5.9-1.7 1.8-3.7 3.4-5.8 4.8m6.9-3.6c-2.1 2-4.2 4-6.5 5.8m7.8-4c-1.4 1-2.8 2-4.2 2.9m21.3 15.6c3.7-5.8 10.3-9 16.7-11.5 3.1-1.2 6.2-2.3 9.5-2.8 5.4-.8 11 .2 16.4 1.1 3 .5 6.1 1.1 9.1 1.6m-51.2 13.5c.6.1 1.2.1 1.7.2m-.8-1.8c.5.3 1.1.7 1.6 1"/><path class="st1" d="M1632.7 180.7c-.5-.5-1-1.1-.3-2.5.7.6 1.7 1 2.7.9m-.9-2c1.2-.2 2.4.5 3 1.5m-1.5-2.4c1.1-.3 2.2-.5 3.3-.6 1 1 2.1 1.9 3.4 2.5m-4.7-3.4c1.3 0 2.5.2 3.7.5.2 1 1.3 1.4 2.3 1.6m6.2 2.3c-1.5-.2-2.4-1.6-3.5-2.7-1.3-1.3-3-2.1-4.6-3.1 3.9.4 7.4 2.7 10.7 4.8.8.5 1.6 1 2.5 1.2 1.4.4 2.9.1 4.3.2m-17.2-6.8c2.5-.3 5.1-.4 7.3.8 1 .5 1.8 1.2 2.7 1.8 2.1 1.3 4.6 1.8 7.1 2.2m-13.7-6.1c3.2-.1 6.5 1 9.1 3m-2.1-3.1c2 .3 4 .9 5.8 1.8 1.1.6 2.2 1.3 3.1 2.2.7.7 1.3 1.4 2.2 1.8m-8.6-6.9c4.9.7 9.5 3.4 12.6 7.3"/><path class="st1" d="M1657.8 169.2c2.1.4 4.4.8 6.1 2.2 1.2.9 2 2.2 2.8 3.5.4.7.9 1.4 1.3 2 .3-1.8-.1-3.7-1.2-5.2-1-1.5-2.6-2.6-4.3-3.3m4.9 3.8c1.3.5 2.5 1.5 3.3 2.7.5.8.9 1.7 1.8 2.1-.2-2-.5-4.2-1.9-5.6-1.1-1-2.7-1.4-3.8-2.4.8.3 1.7.6 2.5.9 1.2.4 2.4.9 3.5 1.5 2 1.1 3.7 2.7 4.8 4.6-1.9-2.9-3.9-5.9-7.1-7.2 3.6 1.1 6.8 3 10 4.9-1.7-2-3.6-3.8-5.6-5.4m-55.4-2.7c-.8-10.8 2.4-21.8 8.7-30.6 0 .5.1.9.1 1.4"/><path class="st1" d="M1625 140.4c.8-2.3 2.2-4.3 3.8-6-1.2 3.7-4.2 6.8-4.8 10.6 1.2-2.3 2.7-4.8 5.2-5.5-2.5 3.2-4.6 6.6-6.5 10.2 1.5-2 3.5-4.1 6.1-4.3h.1m-6 5.7c1.4-1.4 2.8-2.9 4.8-3.3m-6.9 7.4c1-1.2 2.1-2.5 3.4-3.4s2.9-1.6 4.5-1.6c-1.8 1.2-3.5 2.5-5.1 3.9-1 .9-1.9 1.8-2.3 3 .7-1.2 1.9-2.1 3.2-2.5 1.3-.4 2.7-.5 4.1-.4-.8.2-1.4.7-2.1 1.2-1.9 1.6-3.8 3.3-4.6 5.6.8-.9 1.7-1.7 2.7-2.3s2.3-.8 3.5-.4c-2.4 1.2-4.3 3.3-6.1 5.3-.3.4-.7.9-.4 1.4.9-1.1 1.8-2.2 2.9-3.1s2.5-1.4 3.7-1.3c-1.4.9-2.7 2-3.8 3.3-.6.7-1.1 1.6-.7 2.4 1.2-1.6 2.7-2.9 4.5-3.8-1.8 1.2-2.6 3.4-3.6 5.3-.5 1-1.2 2.2-.9 3.3m5.3-9.2c.9-1.1 2.2-1.9 3.5-2.1.7-.1 1.3-.1 2-.2 1.4-.1 2.8-.3 4.2-.6m-3 2.5c-1.6-.4-3.3-.4-5.6 1.2 1.4 0 2.9.3 4.2.8m-6.1 1.3l4.8.6m-4.9 1.5c1.3.2 2.7.5 4 .7"/><path class="st1" d="M1628.1 176.7c2-5.6 4.5-11.1 8.5-15.5 6.2-6.7 15.5-9.8 24.7-10.5m-4.5 1.3c1.8.4 3.6 1.1 5.1 2.1m-7.4-1.7c1.9.2 3.6 1.2 4.6 2.8"/><path class="st1" d="M1651.1 153.7c1.6.1 3.2.5 4.7 1.2.5.2 1 .5 1.3 1"/><path class="st1" d="M1646.8 154.3c2.4.3 4.7.9 6.8 1.9.6.3 1.2.6 1.6 1.1-.3-.8-.7-1.6-1-2.5m-11.4 2.4c1.4-.8 3.1-.8 4.7-.4s3.1 1.1 4.6 1.5"/><path class="st1" d="M1648.1 156.6c.6 1.4 1.5 2.7 2.5 3.9-1.2-.7-2.4-1.4-3.8-1.9-2-.7-4.1-.8-7.3.9 3-.3 6.2.1 9.1 1.1.8.3 1.5.6 2.3.9 1 .4 2.1.9 3.1 1.3m-15.8-1.1c4.2-.4 8.3 1.1 12.2 2.7m-13.8-.8c2.4-.3 5-.1 7.3.7 1.3.4 2.5 1 3.8 1m-12.5.2c1.6-.6 3.4-.3 5.1.1s3.3 1 5.1.9m-11.1 1.4c2.8.1 5.7.2 8.5.4m-10.4 2.9c2.1.1 4.2 0 6.3-.3m-4.5-1.8c2.1.2 4.1.2 6.2.2m-9.4 3.8c1.6 0 3.2.1 4.9.1m-5.8 2.4l3.3-.9m76.9 67.1c-1.9.5-3.6 1.7-5.1 3-5 4.4-9 10.3-9.4 17m3.3-7.4c-.6 1.9-.8 4-.6 6m1.5-8.8c-.9 2.7-.3 5.7.3 8.5"/><path class="st1" d="M1701.9 249.9c-.5 1.9-.4 3.9-.3 5.8 0 .7.1 1.3.1 2m1.3-8.9c0 2.4.1 4.9.3 7.3m.8-9c-.4 2.6-.4 5.3 0 7.9m1.2-9.1c-.1 2.8 0 5.5.2 8.3m1.8-9.1c.1.5 0 1-.1 1.4-.4 2.3-.5 4.6-.2 6.9m5.8-12.7c1.4-2.6 4.2-4.4 7.1-4.5.4 0 .9 0 1.3.2s.8.6 1.1.9c.7.6 1.5 1 2.3 1.6 2.2 1.5 3.8 3.8 5.3 6.1 2.5 3.8 5.1 7.5 7.6 11.3l-.2.1"/><path class="st1" d="M1719 243.2c-.4-.9-.8-1.8-1.4-2.5s-1.6-1.2-2.5-1.1m4.3 2c-.3-.7-.7-1.5-1.2-2.1s-1.2-1.2-2-1.3h-.2c-.1 0 0 .2 0 .2m3.7 1c-.8-.8-1.7-1.5-2.7-2m-45.2 13.1c4.8-4.9 11.2-8 18-9.4s13.7-1.1 20.5-.1"/><path class="st1" d="M1671.4 251.9c1.5-.2 2.8-1.2 3.9-2.3 1.1-1.1 2-2.3 3.2-3.3-1.9 2.5-2.7 5.7-2.2 8.8 1.7-3.4 3.8-6.6 6.2-9.5m-3.3 7c1.6-1.5 3.1-3.2 4.3-5.1.1-.2.3-.5.4-.7.2-.6.1-1.4 0-2m-1.6 5.9c2.8-1.5 4.8-4.5 4.9-7.7.2.1.4.4.2.6m-1.7 4.9c0 .8-.1 1.7-.2 2.5 1.3-.7 1.8-2.2 2.6-3.4.6-.9 1.5-1.7 2.4-2.5.6-.5 1.2-1.1 1.8-1.6m-4 7.7c.7-1.9 1.5-3.8 2.7-5.4 1.1-1.4 2.5-2.6 3.9-3.6-.3.2-.5.5-.8.7m-3.6 5.9c.2.5.5.9.7 1.4 1.1-.7 1.1-2.4 1.9-3.6.4-.6.9-1 1.4-1.5 1.2-1.3 2.1-3.2 3.9-3.8-.1.1-.1.2-.2.2m-3.1 4.1c.1 1.2.1 2.4.2 3.5 1.5-2.7 3.3-5.2 5.5-7.3.1-.1.1-.1.2-.1s.1.1.1.2m-3.5 6.7c.8-1.7 1.8-3.4 2.9-4.9.7-1 1.6-1.9 2.8-2.1 0 .1 0 .2.1.3m-2.9 6.1c1.5-2.3 3.4-4.2 5.7-5.6.2-.1.3-.2.5-.3m-28-.3c1.7-4.4 4.5-8.6 8.8-10.7-.1.1-.1.3-.2.4"/><path class="st1" d="M1682.6 240.1c.3-3.4 2.5-6.5 5.6-7.9v.3m-3 7.8c.3-3.1 2-6 4.6-7.7.1.1.1.3.2.4m-3 6.8c.6-2.1 1.6-4 2.9-5.7l.3-.3c.1 0 .3.1.3.2m-1.2 5.3c.9-1.8 1.9-3.5 3.1-5.2.1-.2.4-.3.4-.1m-1.7 5.3c1-1.8 2-3.5 3.1-5.3.1.3.1.6 0 .8m-1.4 4.4c1-1.5 1.9-2.9 2.9-4.4.2-.2.4-.5.7-.4.1.2.1.5 0 .7m-.5 3.8c.4-1.1.8-2.3 1.3-3.4.1-.3.4-.6.7-.6.2.2.2.5 0 .7m-.6 2.8c.4-1 .9-1.9 1.5-2.8.1-.2.2-.4.4-.4.2-.1.5.1.4.3m-.8 2.9c.7-.9 1.3-1.8 2-2.7l.3-.3c.1 0 .3.2.1.3m-.6 2.8c.6-1 1.4-2 2.2-2.8m.3 2.7c.5-.8 1.1-1.5 1.7-2.2m-.3 2.5c.5-.9 1-1.8 1.4-2.6m.9 2.1c.4-.4.8-.9 1.3-1.3m27.8 17.8c.3 2.7.2 5.5-.3 8.2-.2-4.8-2.1-9.3-4-13.6m.2 1.6c.4 2.9.6 5.8.5 8.8 0 .7 0 1.4-.4 1.9-.2.2-.4.4-.3.7m-2.2-13.7c1 4 1.2 8.3.7 12.4m-2.6-13c.3 3.9.6 7.9-.4 11.8-.1.3-.3.6-.5.5m-1-16c.7 4.2.9 8.5.6 12.7m-2.2-11.9c.6 3.5.7 7 .4 10.5m-2.5-13.7c.7 3.7.9 7.6.5 11.4"/><path class="st1" d="M1724.1 245.8c0-1.1-.1-2.2-.1-3.3.2 1.5.3 3 .5 4.5m-4.4-6.3c.8 3.2 1 6.5.6 9.7m-2.4-6.7c.7 1.9 1 4.1.6 6.1m-2.5-7.5c.3 1.5.5 3.1.6 4.7m8.1-7.2c4.3-2.2 9.6-1.5 14.3-.1 6.4 1.9 12.7 5 17.1 10"/><path class="st1" d="M1728.5 240.9c.9.4 1.9.4 2.7.9.7.5 1 1.3 1.3 2.1.6 1.6 1.1 3.2 1.7 4.8m-2.3-8.5c1.8 1.7 3.1 4 3.6 6.4.3 1.5.4 3 1 4.4m-2.1-10.2c2.6 3.3 4 7.6 3.7 11.8m-1.6-11.9c1 1.6 1.9 3.3 2.4 5 .5 1.8.7 3.7.2 5.5m-.4-9.6c.4 2 1.7 3.7 1.9 5.7.1 1.1-.1 2.3 0 3.5m-.2-8.5c.7 1.4 1.4 2.9 1.9 4.4.4 1.5.5 3.2 0 4.7m-.1-8.8c1.5 2.6 2.1 5.7 1.6 8.6m2.5-.6c0-2.8-1-5.5-2.9-7.6m5.2 7.5c-.1-1.6-.2-3.3-1.1-4.6-.3-.4-.7-.8-1-1.2l-2.3-2.3m6 7.8c.2-2.4-1.3-4.9-3.6-5.7m6.8 5.7c-1.4-2.3-3.3-4.4-5.4-6.2m-32.5-9c5.2-6.9 14-10.2 22.6-11.5 3.7-.6 7.6-.8 11.3 0 3.8.8 7.4 2.6 10.9 4.4m-40 5.5c1.4 1.9 3.3 3.6 5.4 4.7"/><path class="st1" d="M1727.4 238.3c-1.6-1.2-3.2-2.6-4.2-5 1 .2 1.8 1 2.5 1.7 1.5 1.3 3.1 2.4 4.9 3.2m-5.8-7.7c2.7 2.1 4.7 5.2 7.6 7m-5.4-7.7c3.3 1.7 6 4.5 7.5 7.9m-5.3-8.5c2.4.8 4.5 2.5 5.8 4.6.6 1 1.1 2.1 1.7 3.2m-5.8-9.5c2.7 2.1 5 4.8 6.7 7.9m-4.4-6.7c2.5 1.6 4.6 4 5.9 6.7m-3.6-8.8c2.5 2.5 4.7 5.3 6.6 8.3m-4.8-9.5c1.5 2 3.7 3.5 5 5.7.6 1 1 2.2 1.4 3.3m-3-8.6c2.3 2.6 4.4 5.3 6.3 8.3m-3.4-7.8c1 .7 2.1 1.5 2.9 2.4 1.4 1.7 2.1 3.8 2.8 5.9m-4-8.3c3.3 1.7 5.9 4.7 7.2 8.2m-4.3-8.7c1.9.8 3.3 2.4 4.3 4.2 1 1.8 1.6 3.8 2.1 5.8m-3.1-9.6c2.3 1.7 3.6 4.7 3.4 7.6m-1.1-6.5c1.4 1.3 2.2 3.4 1.9 5.3m1.9-.4c-.3-1.4-.9-2.8-1.7-4.7.8 0 1.6.1 2.3.4s1.4.8 1.8 1.5m-44.7 3.2c1.8-4.7 5.3-8.6 9.5-11.5 4.1-2.9 8.9-4.7 13.8-6m-21.3 14.8c1.2.1 2.4.1 3.6.2m-1.5-1.2h2.1m-1.4-1.3c1.1.1 2.2.1 3.3.2m-1.8-1.5c1.1.2 2.1.4 3.2.6"/><path class="st1" d="M1727.5 225.6c-1.5 0-3-.2-3.4-1.7 1.5.5 3 .8 4.6.9m-3.4-1.6c1.7.3 3.5.3 5.3.1m-4.3-2.1c1.9.5 3.9.9 5.8.5m-3.6-1.3c1.5.4 3 .7 4.6.9m-3.1-1.5c1.5.3 3.1.8 4.1 1.8-.6-.5-1-1.1-1.5-1.7s-1.2-1-2-.9m4.4.5c-1.3-.9-2.7-1.6-4.1-2.2-.1.1-.2.3-.1.5m5.7.5c-1.3-.3-2.7-.5-4.1-.5m4.1-1.1c-1 .2-1.9.4-2.9.6m-18.3 16.9c-.7-4.4-1.4-9.1.3-13.3.5-1.2 1.2-2.4 1.9-3.5 1.7-2.7 3.4-5.5 5.8-7.6 3.2-2.9 7.6-4.4 11.9-4.1"/><path class="st1" d="M1726.1 209c3-1.2 6.2-2.3 9.4-1.7 0 .1 0 .3-.1.4m-.4.4c-3.7.3-7.3 1.7-10.7 4.9 2.2-1.3 4.6-2.3 7-2.8h.1m-12.1 8.1c2.8-2.6 6.4-4.5 10.1-5.4m-10.7 7.5c2.6-2.2 5.7-3.8 8.9-4.8-.1 0-.1.1-.2.1m-10.1 8.1c1.6-1.5 3.3-2.9 5.2-3.9-.2 0-.3.1-.5.2m-6.4 6.6c1.1-1.2 2.4-2.2 3.9-2.9 0 .1-.1.3-.1.4m-4.1 4.5c.7-.6 1.5-1.1 2.2-1.7m-52.1 3.2c6.4-6.2 15.4-9.6 24.4-9.3 1.6.1 3.1.2 4.6.7s2.9 1.3 4.3 2.1c5.5 3.3 10.9 6.9 15 11.7m-2.7-1c-1.5.9-2.8 2.2-3.7 3.7"/><path class="st1" d="M1706.2 236.4c.9-1.1 1.9-2.2 2.5-3.9-2 1.1-3.7 2.5-5.1 4.2m-1.3-1.1c1.2-1.5 2.8-2.8 3.7-4.8-1.7.9-3.2 2.3-4.3 3.9m2.1-4.8c-1.5 1.2-2.8 2.6-4 4.1m-2.4-.8c1.4-1.4 2.8-2.8 3-4.4-2.1.8-4 2.3-5.3 4.2m-.9-1.3c1.4-1.6 2.9-3 3.2-4.6-1.8 1.4-3.5 2.9-5 4.6m4.4-5.4c-2 1-3.9 2.3-5.6 3.7m3.8-4.8c-1.9 1.4-3.8 2.8-5.7 4.3m3.3-5.1c-2.3 1.5-4.3 3.3-6.1 5.3m4.1-5.5c-2.2 1.6-4.1 3.5-5.7 5.7m3-6.1c-2.1 1.6-4.1 3.4-5.9 5.4m4.3-6.1c-3.2 1.8-6.2 4.1-7.6 7.5m3.3-6.5c-3.2 1.2-5.7 3.8-6.7 7.1m2.9-6.6c-2 1.9-4.2 4.1-4.6 6.9m1.4-5.6c-.7 1-1.7 1.7-2.5 2.6s-1.4 2.1-1 3.3m1-5.4c-1.5 1.6-2.6 3.6-3 5.7m.3-4.3c-1.2 1.7-2.1 3.7-2.4 5.8m.9-4.7c-.8 1.3-1.5 2.6-2.1 3.9-.1.1 0 .4.1.3m.1-4.3c-.6 1.3-1.2 2.6-1.7 3.8m27.2-31.9c4.1.7 7.7 3.3 10.7 6.2 6.7 6.5 11.5 15.5 11.2 24.8m.5-8.2c-.6-.6-1.1-1.2-1.7-1.8m-10.9-2.6c-1.5-.3-2.9-.5-4.4-.5s-3 .4-4.2 1.3m3.7-.1c-1.2.3-2.3.6-3.5.9m5.7-.5c-1.3.1-2.5.6-3.5 1.3m1.5.6c1.4-.9 3-1.5 6.1-.8-1.4.3-2.7.8-3.9 1.5m1 1c1.2-.6 2.4-1 4.5.3-.7.4-1.5.8-2.2 1.2l2.8-.1m-.1 2.4c2.3.5 4.5 1.3 7.1 2.3-.8-1.1-1.8-2.1-3-2.9-.5-.4-1.3-.7-1.9-.4"/><path class="st1" d="M1712.4 228.1c-1.7-1.5-3.5-2.8-5.3-4.1-.7-.5-1.6-1-2.4-.7m6.5 2.9c-1-1.2-2-2.4-3.3-3.3s-2.8-1.5-4.3-1.4m6.7 1.6c-1.8-1.7-4.1-2.9-6.5-3.5m5.7 1.2c-1.6-2.1-4.1-3.6-6.7-4m5 1.4c-2-1.6-4.5-2.5-7-2.6m6.3.7c-2.4-1.7-5.2-3.5-8.1-3.1m-2.1-1.1c2.9-.7 5.8.6 8.4.8-2.2-2-5.2-3.1-8.1-3.1-.6 0-1.4.2-1.5.8"/><path class="st1" d="M1702.9 210.8c-2.9-1.4-5.9-2.9-9.1-2.9-.3 0-.8.3-.6.5m7.2-.2c-2.6-1-5.3-1.7-8-2.2-.3-.1-.7-.1-.9.2m5.8-.7c-2.8-1-5.7-2-8.6-1.5m3.4-2.9c-1.9-.5-3.9-.8-5.9-1m8 2.3c-1.3-.2-2.6-.4-4-.6m22 41c.7 0 1.5.1 2 .6.7.6.8 1.8 1.7 2.2m-.9.3c-1.6 1.4-3.2 2.7-4.8 4.1m-.8-1.4c-.1 0-.3-.1-.4-.1 1.6-1.3 3.1-2.7 3.6-4.9-1.5.8-2.9 1.8-4.1 3.1m28.7-10.5c-.1 1-.1 2-.2 3m.9-2.9c1.1.8 2.2 1.4 3.5 1.8m-.6-77c-2.6.2-4.4 2.4-6 4.4-2.9 3.7-5.9 7.5-8 11.8s-3.5 9-3.1 13.7"/><path class="st1" d="M1727.5 188.4c-.5-3.3-.3-6.7 1.5-11.6-.5 2.6-.3 5.4.4 7.9m2.6-11.3c-.5 3.1-.8 6.3-.8 9.5 0 .1 0 .3.1.3s.2-.2.1-.2m2.9-12.5c-1.1 3.9-1.5 8-1.4 12l.3-.6m3.3-14c-1.2 3.2-1.5 6.7-.9 10.1m2.3-12.6c-.6 3.6-.8 7.2-.7 10.9m3.7-12.8c-1.1 3.8-1.6 7.8-1.3 11.8 0 .2 0 .5.2.6s.5-.1.4-.3m10-19.7c5.6-3.1 13.1-1.9 17.5 2.7 2.7 2.9 4.2 6.8 5.5 10.5 1.1 3 2.2 6.1 2.8 9.2.7 3.8.7 7.8 2.5 11.2"/><path class="st1" d="M1774.5 180.5c.2 1.6.2 3.1 0 4.7-.2.1-.4.1-.5.2m.3-7.6c.2 1.8-.3 3.7-1.3 5.3m.5-8.2c-.3 1.5-.7 2.9-1 4.4-.2.7-.5 1.5-1.2 1.5m.3-9.3c.3 3-.2 6.1-1.4 8.8m-1.8-2.1c2.1-3.5 2.5-7.9-.3-11.6 0 3.2-.5 6.4-1.5 9.5m-.4-11c0 3.2-.3 6.5-.7 9.7m-1.8-11.5c.5 3.4 1.1 7 .1 10.3m-2.2-11.3c.9 3 1 6.2.5 9.2m-1.3-.4c0-3.7-.8-7.3-3-10.6-.2 2.4 0 4.9.5 7.2m-1.6.4c-.2-2.4-.3-4.8-2.1-7.9-.2 2.2-.1 4.4.4 6.5"/><path class="st1" d="M1758.5 161.6c-2.2-1.3-4.3-2.6-4.9-5.6 2.5 1.6 4.9 3.4 7.1 5.4m-4.5-5.7c3.2 1.5 6 3.9 8 6.8"/><path class="st1" d="M1760.2 157.2c.3-.3.8-.2 1.2.1.3.3.5.6.7 1 1 1.9 1.9 3.9 2.9 5.8m-2.1-7.1c1.3 2.3 2.7 4.6 4 6.9.3.5.5 1 .3 1.5h-.6m-.5-7.6c1.2 1 1.7 2.7 2 4.3.6 2.6 1.3 5.3 1.9 7.9m-1-5.6c1.9 3.2 3.5 6.6 4.7 10.1m-25-28.3c-.2-2.5-.8-5.1-2.3-7.1s-3.9-3.5-6.5-3.4c-3.4.2-6.1 3-8 5.9-6.5 9.5-9.4 21.4-8 32.8m2.4-11.4c.4 2.1.7 4.1.9 6.2m.3-11.5c-.7 3.7-.4 7.6 1 11.1"/><path class="st1" d="M1730.2 166.3c-.5-.2-.6-.8-.6-1.3-.5-4.4-.3-8.8 2.3-15.3-1 3.7-.9 7.7.3 11.3m1.6-14.5c-.3 3.5-.4 7-.1 10.5m2.3-13.5c-.5 4.3-.8 8.7-.9 13m3.3-.8c0-4.4.2-8.8 2.6-12.1-.5 3.7-.7 7.4-.7 11m2-1.8c.3-3.4.5-6.8 2.4-10.8-.2 2.8-.3 5.6-.5 8.4m-14.9-5.7c-8.7-.5-17.8 1.2-24.9 6.4-7.1 5.2-11.7 14-10.5 22.7m4.8-12.5c-1.2 4-.7 8.5 1.5 12.1"/><path class="st1" d="M1701.3 171c-.7.2-1.1-.9-1.1-1.6 0-2.8.5-5.7 2.8-10-.7 3-.7 6.1 0 9.1m1.6-11.5c-.1 2.9.1 5.8.7 8.6m2.4-11.1c-.5 3.2-1 6.3-1.5 9.5-.2 1.3-.3 2.9.6 3.8m4-13.5c-1.4 3.7-2.3 7.5-2.7 11.4m7.7-14.9c-1.4 4.4-2.6 8.8-3.7 13.3m7.4-15.2c-1.3 3.4-2.5 6.8-3.7 10.3-.2.5-.3 1.1.1 1.5m3.6-7.9c.9-1.6 1.7-3.2 2.6-4.8-1.7 3.4-2.5 7.3-2.4 11.2m4.7-10.8c-1.7 3.3-2.8 7-3.1 10.8m6-11.7c-1.3 2.6-2.4 5.2-3.2 7.9m-43-9.3c4.1-8.7 14.2-13.5 23.8-13.8 9.6-.3 19 3.1 26.8 7.3-2.3 1.5-4.5 3.3-6.5 5.2m2.6-5.6c-2.6 1.3-5.1 2.9-7.2 4.9m3.3-4.6c-2.7 1.5-5.1 3.5-6.9 5.9m3-7.1c-2.2 1.6-4.2 3.6-5.9 5.8"/><path class="st1" d="M1710.3 145.8c1.8-2.1 3.6-4.2 3.4-7-2.8 1.4-5.2 3.7-6.8 6.4m-3.9-.6c2.6-2.7 5.3-5.2 5.6-8.5-1.7-.4-3.2 1-4.3 2.3-1.8 2.1-3.7 4.2-5.5 6.2m4.6-8.4c-3.1 2.4-5.9 5.3-8.3 8.5m2.9-7.2c-2.6 2.5-5.3 5-7.9 7.6m4.7-8.4c-2.4 2.6-4.6 5.3-6.6 8.2m3-7c-3.1 2.3-5.8 5.2-8.1 8.3m110.5 23.2c.2-3.4-1.2-6.8-2.7-9.9-2.1-4.7-4.4-9.4-7.5-13.5s-7.2-7.6-12.1-9.3c-8.7-2.9-19.2 1.4-23.4 9.6-.3.6-.5 1.4-.1 1.8m3.7-1.3c.3 2.4.7 4.9 1 7.3m2.8-8.6c.4 2.1.9 4.1 1.3 6.2m2.3-10c.1 3.7.5 7.3 1.2 10.9m1.3-11.9c-.4 4.6-.1 9.3.9 13.9m2.2-13.4c-.2 5.1-.2 10.2.1 15.4"/><path class="st1" d="M1767.8 157c.2-4.9.5-9.9 1.6-14.1-.2 5.3-.1 10.6.3 15.9m1.9-13.4c-.6 5.2-.7 10.5-.2 15.8m2.8-17.5c-.5 5.6-.8 11.2-.8 16.8m2-.3c.2-4.8.8-9.5 3.5-13-.9 4.9-1.4 9.8-1.3 14.8m1.5-13.2c.2 3.8.3 7.6.5 11.4 0 .8.1 1.6.6 2.3m2.4-10.7c-.7 4.2-1 8.5-1.1 12.8m2.4 1c-.2-4 .2-8.1 2.4-11.1-.2 3.9-.3 7.8-.5 11.7m2.6-7.8c-.3 3.1-.5 6.2-.8 9.4m2-7.5c0 2.8 0 5.7.1 8.5m1.9-5c-.2 2.2-.2 4.5-.1 6.8m-4.7-18.9c4.3-.7 8.6 1.2 11.8 4.1s5.5 6.6 7.8 10.2"/><path class="st1" d="M1802.8 167c-.1-2.2-.6-4.3-3.8-7.8.7 2.7 1.3 5.5 1.6 8.3m-2.4-1.2c-.5-2.4-.9-4.8-3.1-9.4.9 2.6 1.4 5.3 1.4 8.1m-1.9-1.3c-.8-3.1-1.7-6.2-4.2-9.8 1 2.7 2.1 5.4 3.1 8m-45-21.4c7.1-8.1 18.4-11.9 29.2-11.3s21.1 5.1 28.6 10.7c2 1 3.2 3.3 3 5.5"/><path class="st1" d="M1805.3 146.5c-.6-2.1-1.3-4.3-3.2-5.9 1.1-.4 2.3.3 2.9 1.4.6 1 .6 2.2.6 3.4m-4.5.9c-1-2.4-1.9-4.8-4.1-7.1 1 2 1.9 4 2.7 6.1.1.4.2.9-.2 1m-6-7.2c1.6 2.5 3 5 4.3 7.7m-8.2-8.9c1.1 2.3 2.1 4.6 3.2 6.8.3.6.5 1.3 0 1.7m-8.9-9.9c1.6 3.6 3.6 6.9 5.9 10.1m-10.3-10.6c2.7 2.2 4.8 5.1 6.1 8.3m-10.9-7.8c1.7 1.5 3.3 3.1 4.9 4.9m-31.3-2.8c6.7-16.8 21.9-29.9 39.5-34m-9.2 4.4c3.6-.1 7.1 1 10 3.1m-12 .4c3.6-.3 7.2.2 10.5 1.6"/><path class="st1" d="M1771.5 114.6c2.4-.2 4.8-.4 7.2-.4 1.1 0 2.5.2 2.9 1.2m-.5 4.1c-3.8-1.8-7.9-2.8-13.4-1.7 4.1.3 8 2.4 10.5 5.6m-12.9-2.2c3.7 1 7.3 2.3 10.8 3.9m-15.8-1.2c3.6.7 7.1 1.7 10.5 3m-13.6-.4c2.8.2 5.6.5 8.4.7m-11.3 2.7c2.8.3 5.5.9 8.2 1.7m-8.2-5.3c-.7-5-2.3-9.9-3.9-14.8-.9-2.6-1.7-5.2-3.5-7.3-2.2-2.5-5.5-3.9-7-6.9 0 .3-.1.5-.1.8m-1.4 3.2c2.1 1.4 4.1 2.8 6.2 4.3m-5-1.8c1.5 1.6 3 3 4.7 4.3m-6-1.6c3.1.9 6.2 1.9 9.3 2.8m-9.8.8c3.1.3 6.2 1.4 8.8 3.1m-4.6.2c3.4.2 6.7 1.3 9.4 3.3m-7.6 2.3c2.8.2 5.5 1.3 7.7 3m-7.9.7c2.9.7 5.8 1.9 8.4 3.5m-5.8 3.1c2.1.1 4.1.7 6 1.6 0 0-8-7.6-8.5-7.6-2.8-1.6-5.2-2.3-8.4-2.1m-15.3 8.3c-1.1.9-2.1 1.9-3.2 2.8"/><path class="st1" d="M1747.6 139.5c-2.5-5.8-5.8-11.2-10-15.9-4.3-4.9-9.8-9.2-16.3-9.5-3.9-.2-7.8 1.2-11.5 2.5-4.5 1.6-9 3.3-12.8 6"/><path class="st1" d="M1702.2 125.6c.7-1.9 1.5-3.8 2.5-5.6.5-1 1.4-2.1 2.5-1.8m-2.8 6.6c1.7-2.2 3.5-4.4 5.2-6.6m-2.2 6.5c2.5-2.5 5-5 7.7-7.3m-5.3 6.4c2.4-1.8 4.9-3.5 7.4-5 1.1-.6 2.4-1.3 3.5-.8m-7.9 7.2c2.7-1.9 5.4-3.7 8.3-5.3.6-.3 1.2-.7 1.9-.7.7-.1 1.4.2 1.8.8m-8.1 6c4-2.2 8.3-3.6 12.8-4.2m-9.6 5.8c3.4-2.8 7.7-4.4 12.1-4.6m-9.6 6.2c3.7-2.2 8.2-3.2 12.6-2.6m-10.1 4.8c2.1-1 4.3-2 6.6-2.6s4.7-.7 7 0m1.3 1.6c-.5-.8-1.8-.7-2.7-.5-3.1.7-6.2 1.5-7.4 4.1 3.4-1.7 7.4-2.4 11.2-1.8m-9 3.2c3.3-.5 6.6-1 9.9-1.4m-19.3.2c0-1.2.5-2.6 2.2-3.1-.5 1.3-.5 2.8-.1 4.2m2.6-1.4c.2.8.3 1.6.5 2.4"/><path class="st2" d="M1750.4 147.3c-10.7 59.2-10.2 112.7 2.7 171.5m-38.7-77.2c-3.1 22.9-3.4 46.2-1 69.2m-82.8-114.6c-2.7 38.6 19.7 93.9 34.9 129.5"/><ellipse class="st0" cx="783.5" cy="621.3" rx="69.3" ry="15.6"/><path class="st0" d="M714.3 621.2l.1 32.9c0 8.6 31 15.6 69.3 15.6s69.3-7 69.3-15.6l-.1-1.1-.4-30.3m-402.9-14.9h108.9m25.3 60.5h108.9m254.7-24.9h108.9m-472.5 36.8l262.1-4M642 589.8l8.1-.3m-8.1 9.4l14.8-.3m168.8-169.9c3.4-.2 6.9-.3 10.3.5 3.4.8 6.6 2.7 8.2 5.8 2.9 5.5-.4 12-3.3 17.5s-5.4 12.6-1.4 17.4c2.3 2.7 6 3.6 9.4 4.1 3.5.5 7.1.7 10.2 2.4 3.1 1.7 5.3 5.6 3.9 8.8-1.2 2.8-4.5 3.9-7.1 5.4-4.6 2.8-7.8 7.8-8.2 13.2-.5 5.3 1.8 10.9 5.9 14.4"/></svg>